<svg width="75" height="75" viewBox="0 0 75 75" fill="none" xmlns="http://www.w3.org/2000/svg">
<path d="M50.0236 28.7445C52.5516 25.28 58.0058 28.1749 57.7795 32.0996C57.7404 36.9685 54.1044 37.2963 50.1796 37.0856C48.0261 37.226 49.0326 29.7744 50.0236 28.7445Z" fill="white"/>
<path d="M49.6647 48.2122C46.9806 48.259 44.2106 48.493 41.6045 47.705C35.4403 45.5359 39.092 36.8982 44.9206 38.0218C48.2602 38.053 51.6388 37.9359 54.9316 38.5836C58.6691 39.2 59.2777 44.342 56.6091 46.5112C54.7131 48.2355 52.0445 48.0405 49.6647 48.2122Z" fill="white"/>
<path d="M33.6534 27.8003C29.4321 26.6455 24.7505 26.942 20.4823 27.6989C16.6668 28.2685 15.0516 35.0257 19.4056 36.477C22.0741 37.2183 24.8831 37.0934 27.6219 37.2573C29.1902 36.8749 31.4296 37.4835 33.1619 36.8827C36.9851 35.5484 37.8981 29.2673 33.6534 27.8003ZM26.389 40.5032C26.6153 38.2092 25.5463 37.7723 23.4942 37.9985C15.7305 36.8905 15.8553 49.1174 23.502 47.7208C26.5919 46.761 26.3188 43.1327 26.389 40.5032ZM39.5601 6.09309C47.2614 5.87462 56.8587 4.06438 62.6328 10.4782C68.8282 16.7516 67.5954 26.2242 68.2429 34.3078C68.3912 45.4423 71.5747 61.9139 58.669 67.1262C53.2461 68.835 47.4799 68.7491 41.8619 69.1627C30.782 69.4046 15.7305 70.731 9.44147 59.5029C6.73392 53.1905 6.76513 46.1368 6.27356 39.4655C6.86657 10.0803 9.23076 4.9851 39.5601 6.09309ZM50.1718 37.0856C54.0966 37.2963 57.7326 36.9686 57.7717 32.0996C57.998 28.1748 52.5516 25.2801 50.0158 28.7445C49.0326 29.7745 48.0261 37.226 50.1718 37.0856ZM36.439 21.1914C36.2517 18.718 33.8016 17.4539 31.4998 17.5788C25.4995 17.7816 23.978 27.0669 34.145 26.1852C37.6172 26.5519 36.4702 23.4152 36.439 21.1914ZM37.2426 41.9779C36.7745 39.5981 34.2074 38.2248 32.2489 38.1312C28.3554 37.8737 27.1537 42.4148 27.3254 45.5906C27.2708 50.3112 26.7636 59.1752 34.028 57.677C38.3662 56.3505 36.9462 50.639 37.4533 47.1512C37.0944 45.692 37.5704 43.6165 37.2426 41.9779ZM44.9205 38.0141C39.0919 36.8905 35.4324 45.5282 41.6044 47.6973C44.2105 48.4932 46.9805 48.2513 49.6647 48.2045C52.0444 48.0406 54.7208 48.2357 56.609 46.5035C59.2854 44.3344 58.669 39.1845 54.9315 38.5759C51.6387 37.9283 48.2601 38.0453 44.9205 38.0141ZM48.1119 25.1162C48.268 21.5738 47.1912 16.8921 42.5563 17.095C40.7461 17.2276 39.2792 18.0625 38.7642 19.8962C37.9917 23.2513 37.9995 26.7626 37.9762 30.1958C36.8603 36.0634 45.1078 39.9804 47.5501 33.7227C48.4708 30.9527 48.1119 27.9954 48.1119 25.1162ZM43.4537 57.7863C49.7115 57.3571 50.6478 48.2045 41.0192 49.1018C37.032 48.8131 38.5067 51.6221 38.4911 54.3687C38.7408 56.7485 41.2611 57.8877 43.4537 57.7863Z" fill="#8B51FF"/>
<path d="M47.5578 33.7303C45.1155 39.988 36.868 36.0711 37.9838 30.2034C37.9994 26.7702 37.9994 23.259 38.7719 19.9038C39.2869 18.0779 40.7538 17.2353 42.564 17.1026C47.1988 16.8997 48.2756 21.5814 48.1196 25.1238C48.1118 27.9952 48.4707 30.9525 47.5578 33.7303Z" fill="white"/>
<path d="M41.0191 49.1018C50.6477 48.2044 49.7114 57.3571 43.4536 57.7862C41.261 57.8877 38.7408 56.7562 38.4911 54.3687C38.5066 51.6221 37.0319 48.8131 41.0191 49.1018Z" fill="white"/>
<path d="M32.2488 38.1233C34.2073 38.217 36.7744 39.5902 37.2426 41.9701C37.5702 43.6086 37.0943 45.6841 37.4532 47.1355C36.9382 50.6155 38.3662 56.3349 34.0278 57.6614C26.7634 59.1673 27.2784 50.3034 27.3252 45.5749C27.1536 42.407 28.3552 37.8736 32.2488 38.1233Z" fill="white"/>
<path d="M31.4999 17.5867C33.8017 17.4541 36.2518 18.7181 36.439 21.1994C36.4702 23.4232 37.6172 26.5599 34.1372 26.201C23.978 27.0671 25.4996 17.7817 31.4999 17.5867Z" fill="white"/>
<path d="M20.4901 27.6989C24.7582 26.9499 29.4398 26.6456 33.6611 27.8004C37.9058 29.2673 36.9929 35.5485 33.1696 36.8827C31.4374 37.4836 29.2057 36.875 27.6296 37.2573C24.8908 37.0935 22.0818 37.2183 19.4133 36.477C15.0594 35.0257 16.6746 28.2685 20.4901 27.6989Z" fill="white"/>
<path d="M23.4942 37.9987C25.5542 37.7723 26.6231 38.2015 26.3891 40.5033C26.3189 43.1329 26.592 46.7612 23.5021 47.7208C15.8553 49.1176 15.7305 36.8984 23.4942 37.9987Z" fill="white"/>
</svg>
