<svg width="75" height="75" viewBox="0 0 75 75" fill="none" xmlns="http://www.w3.org/2000/svg">
<path d="M21.4444 56.0042C22.022 52.2003 24.8194 42.7465 21.8154 39.7936C19.9298 37.8967 18.1429 35.9 16.3582 33.9062C15.4435 32.7642 14.3775 31.6395 13.8379 30.2592C12.9322 27.5035 16.5395 27.4188 18.3698 27.0395C20.8739 26.2675 29.3087 25.7045 30.304 23.9751C32.0985 21.0083 33.8482 18.0147 35.612 15.0295C36.3813 13.485 38.4824 13.3081 39.3767 14.8511C40.9989 17.9609 42.8343 20.9484 44.6947 23.9237C45.262 24.8459 46.026 25.2964 47.1765 25.3443C51.6925 25.6356 56.2664 25.652 60.7448 26.3017C64.7237 27.6574 60.3879 30.9541 58.9139 32.5652C56.7489 34.8011 54.5546 37.009 52.4121 39.2661C50.8726 40.8878 50.9276 40.9104 51.3189 43.1026C52.009 47.3597 52.9378 51.6005 53.4542 55.8761C53.382 57.8459 51.926 58.7321 50.1817 57.8124C45.9976 55.6397 41.9475 53.2049 37.6344 51.2904C37.138 51.0552 36.711 51.1549 36.2434 51.4391C32.9746 53.4262 29.6974 55.3994 26.4064 57.3494C24.5302 58.6432 21.3913 59.488 21.4444 56.0042Z" fill="#8B51FF"/>
<path d="M49.6503 18.2946C50.422 15.9729 54.9683 6.80851 57.1644 6.34257C58.7701 5.94515 60.0648 7.84687 59.231 9.22656C57.2937 12.114 55.5442 15.1381 53.7019 18.0916C53.391 18.5962 53.0947 19.1199 52.7135 19.5684C51.6105 20.8512 49.6665 19.9495 49.6503 18.2946Z" fill="#8B51FF"/>
<path d="M17.1313 9.87585C17.2464 8.20905 19.0645 7.19705 20.4042 8.21139C22.8732 10.873 24.7271 14.119 26.9512 17.0023C28.2803 18.5618 26.5564 20.9643 24.7174 19.8562C22.1284 17.4003 20.2169 14.234 17.9344 11.4808C17.5785 11.013 17.3947 10.4141 17.1313 9.87585Z" fill="#8B51FF"/>
<path d="M34.3695 65.0125C34.5423 62.6653 34.7001 60.3168 34.9025 57.9722C34.9997 56.7005 36.2171 55.497 37.5094 55.903C38.3555 56.1407 38.9644 56.88 38.9503 57.7906C38.8892 60.5594 38.8183 63.3311 38.7047 66.0979C38.8757 68.9087 35.1397 69.8274 34.444 66.9648C34.3523 66.3276 34.4267 65.6662 34.4267 65.0157C34.4076 65.0146 34.3886 65.0136 34.3695 65.0125Z" fill="#8B51FF"/>
<path d="M8.54336 51.691C6.94465 51.5717 6.00809 49.9591 6.812 48.618C8.15726 46.9941 10.2612 46.0824 12.0101 44.9438C13.4648 44.3508 16.1089 42.4965 17.4971 43.7583C18.5543 44.6603 18.2636 46.1814 16.9444 46.8894C15.4298 47.7024 13.9286 48.5431 12.4511 49.4215C11.1644 50.2208 10.0294 51.2562 8.54336 51.691Z" fill="#8B51FF"/>
<path d="M65.8813 45.9648C63.5482 45.4242 60.9246 44.5256 58.5848 43.8131C56.3684 43.3823 56.2382 40.1397 58.6499 39.975C61.508 40.4212 64.3899 41.2077 67.1522 42.0715C69.2652 43.1829 68.4826 46.121 65.8813 45.9648Z" fill="#8B51FF"/>
</svg>
