<svg width="75" height="75" viewBox="0 0 75 75" fill="none" xmlns="http://www.w3.org/2000/svg">
<path d="M68.7074 10.8928C68.3857 12.9689 67.5837 14.9716 66.1911 16.5412C63.4605 19.7756 60.4255 22.7208 57.1444 25.3941C52.0068 29.747 46.6977 33.8978 41.4454 38.1101C37.9084 40.8049 34.296 43.3997 30.6977 46.01C29.0171 47.5504 27.3679 49.5061 24.8152 49.2131C21.247 48.2619 22.4433 43.6816 24.2872 41.6193C27.0673 38.0863 30.033 34.701 33.0568 31.3745C40.4872 23.1606 54.0544 6.87126 65.7078 6.67175C67.8305 7.07786 68.8086 8.79203 68.7074 10.8928Z" fill="#8B51FF"/>
<path d="M63.3796 51.9648C63.4197 53.6164 62.7358 54.8749 61.4696 55.8688C57.3544 60.0452 48.9056 42.2854 46.9127 39.3171C46.2592 38.0023 46.1951 36.2304 47.3433 35.2284C49.5891 33.2434 51.8575 31.2838 54.1198 29.3176C55.6082 27.802 57.8761 26.2191 59.1495 28.8844C61.0891 36.4327 62.7626 44.1715 63.3796 51.9648Z" fill="#8B51FF"/>
<path d="M19.0021 10.0933C19.1502 7.4918 22.4804 6.55742 24.6361 7.22433C31.3552 9.0832 38.0544 11.1648 44.5049 13.8004C45.8136 14.583 46.0527 16.0379 44.9904 17.128C42.3756 19.7936 39.6186 22.3216 37.0636 25.0473C36.1918 25.9734 35.713 26.1172 34.6618 25.4177C33.4784 24.6302 32.3104 23.8015 31.2309 22.8793C28.3247 19.9466 19.285 13.8578 19.0021 10.0933Z" fill="#8B51FF"/>
<path d="M29.7986 63.9831C29.8466 63.2659 30.3614 62.6552 30.9851 62.102C35.3154 58.3694 39.503 54.4884 43.5341 50.4352C44.1591 49.8342 44.8442 49.2925 45.5267 48.7552C47.138 47.3705 48.9203 49.3865 47.376 50.8203C42.7614 55.3872 38.0778 59.8853 33.4893 64.4783C32.4969 65.7545 29.8045 66.3004 29.7986 63.9831Z" fill="#8B51FF"/>
<path d="M23.3902 23.5902C19.8303 28.4812 15.0955 32.5753 11.1123 37.1712C10.3399 37.9712 9.69609 38.9748 8.68149 39.4865C7.40555 40.2323 5.73581 38.7066 6.46159 37.3963C6.72444 36.867 7.14802 36.3982 7.5689 35.9698C11.2509 32.4812 14.6013 28.6696 18.1311 25.0312C19.3777 23.9624 22.5342 20.4417 23.3902 23.5902Z" fill="#8B51FF"/>
<path d="M23.2657 53.2176C21.9176 55.4616 19.4435 57.1403 17.6525 59.0731C15.6585 60.7952 14.0351 63.0709 11.6869 64.3162C11.1717 64.5533 10.6277 64.5089 10.1945 64.0784C9.26636 63.1596 10.2225 61.9191 10.903 61.1898C14.0562 58.2281 17.2353 55.2938 20.4112 52.3562C21.3526 51.1982 23.2425 51.2988 23.2657 53.2176Z" fill="#8B51FF"/>
<path d="M37.2789 50.4076C36.9308 56.984 29.7037 53.5845 30.722 48.5408C31.0855 47.0764 32.7129 46.396 33.7476 45.4325C34.4894 44.8549 35.3134 45.0869 36.0738 45.3533C37.0922 45.9418 36.9354 49.1304 37.2789 50.4076Z" fill="#8B51FF"/>
<path d="M18.6865 36.4594C19.8655 33.3341 23.2598 33.5408 25.7405 34.9849C28.8568 36.6873 25.1514 39.3558 23.7958 40.9237C23.602 41.1191 23.1696 41.2398 22.9016 41.1737C20.4324 40.6941 19.2962 38.8084 18.6865 36.4594Z" fill="#8B51FF"/>
<path d="M47.7837 68.3961C45.888 68.4892 45.4527 66.6196 46.6202 65.5168C47.2719 64.9154 47.9235 64.3134 48.5622 63.6983C49.9473 62.364 51.3227 61.0196 52.7064 59.684C53.2481 59.1071 54.2031 58.8461 54.775 59.4538C55.3961 60.0161 55.1633 60.9712 54.5891 61.5219C53.1484 63.0869 51.7022 64.6465 50.2601 66.2102C49.6201 66.9946 48.652 68.0411 47.7837 68.3961Z" fill="#8B51FF"/>
<path d="M11.1528 20.2459C9.49093 20.277 8.73147 18.6295 9.70507 17.5096C10.0919 17.0655 10.5441 16.6763 10.9833 16.2805C12.092 15.3377 13.1143 14.266 14.3047 13.4295C15.5637 12.6701 17.0041 14.1354 16.2542 15.388C15.0944 16.9083 13.6129 18.1867 12.278 19.5555C11.9133 19.9047 11.4001 20.0988 11.1528 20.2459Z" fill="#8B51FF"/>
</svg>
