<svg width="75" height="75" viewBox="0 0 75 75" fill="none" xmlns="http://www.w3.org/2000/svg">
<path d="M23.7172 68.0719C21.6217 67.8872 19.512 67.3687 17.5159 66.6938C11.6202 64.6836 8.45203 60.3719 7.79144 54.2771C7.32261 49.9441 7.0953 45.5826 6.83248 41.2211C6.56965 36.8952 6.25 32.5692 6.25 28.2432C6.25 24.5637 6.69041 20.8841 8.16078 17.4319C9.82297 13.5463 12.6998 10.9252 16.6067 9.40508C19.7322 8.19039 23.0211 7.79258 26.317 7.40899C32.6391 6.68445 38.9753 6.42163 45.3257 6.84072C50.3194 7.16748 55.2847 7.75706 59.9019 9.83836C62.9989 11.2377 65.1939 13.5677 66.2878 16.8636C67.5096 20.529 67.9642 24.3151 68.2768 28.1366C68.7527 34.0183 68.8805 39.907 68.6106 45.8028C68.4259 49.7452 67.7866 53.6023 66.2168 57.225C63.759 62.9006 59.7243 66.8359 53.4094 67.8588C51.2073 68.214 48.9555 68.3348 46.7251 68.3916C43.4149 68.4768 40.0977 68.4129 36.7804 68.4129L23.7172 68.0719ZM38.5349 63.5257C43.1805 63.3198 47.3147 63.1777 51.4488 62.9291C54.6951 62.7373 57.373 61.3521 59.4117 58.7665C62.2105 55.2148 63.1268 51.0166 63.3967 46.6765C63.8371 39.5873 63.617 32.5052 62.8284 25.4445C62.5443 22.8944 62.1537 20.3869 60.7045 18.1706C60.3209 17.581 60.0155 16.9346 59.6604 16.3238C58.7369 14.7397 57.5364 13.3261 55.7535 12.843C51.804 11.7634 47.7337 11.2377 43.6493 11.2448C39.1173 11.252 34.5712 11.3514 30.0605 11.7278C26.658 12.012 23.2697 12.6726 19.9311 13.4113C15.7898 14.3277 13.3676 17.1477 12.3092 21.1683C11.2081 25.3592 11.2152 29.6426 11.471 33.933C11.7196 38.0317 12.0463 42.1303 12.3518 46.229C12.5507 48.8288 12.6857 51.4358 13.0124 54.0214C13.5238 57.978 15.6265 60.7625 19.5405 61.892C21.4086 62.4318 23.3478 62.9077 25.2729 63.0285C29.8545 63.3198 34.4434 63.3837 38.5349 63.5257Z" fill="#8B51FF"/>
<path d="M38.5349 63.5258C34.4433 63.3837 29.8546 63.3197 25.2729 63.0286C23.3408 62.9078 21.4087 62.4247 19.5405 61.892C15.6265 60.7626 13.5239 57.978 13.0124 54.0215C12.6786 51.4429 12.5436 48.8289 12.3518 46.229C12.0393 42.1304 11.7196 38.0388 11.471 33.9331C11.2153 29.6497 11.2082 25.3664 12.3092 21.1683C13.3676 17.1549 15.7898 14.3277 19.9312 13.4114C23.2698 12.6726 26.658 12.012 30.0605 11.7279C34.5712 11.3443 39.1174 11.2519 43.6494 11.2448C47.7409 11.2378 51.804 11.7705 55.7535 12.8431C57.5365 13.3333 58.7369 14.7397 59.6604 16.3238C60.0155 16.9347 60.321 17.5811 60.7046 18.1707C62.1537 20.3798 62.5444 22.8944 62.8285 25.4445C63.6169 32.5053 63.8372 39.5874 63.3968 46.6765C63.1269 51.0167 62.2105 55.2148 59.4118 58.7665C57.3731 61.3522 54.7022 62.7373 51.4489 62.9291C47.3147 63.1706 43.1805 63.3127 38.5349 63.5258ZM30.0322 51.0025C30.2594 51.4074 30.4512 52.0396 30.8704 52.4232C31.8648 53.3466 33.3849 52.892 33.9887 51.4997C34.4362 50.4626 34.7772 49.3758 35.0969 48.289C37.5688 39.8644 40.0266 31.4327 42.4915 23.001C42.8964 21.6158 42.2713 20.3088 40.9998 19.9181C39.7567 19.5345 38.4568 20.3088 38.0661 21.6869C37.8885 22.3119 37.7606 22.9512 37.583 23.5834C35.381 31.4682 33.179 39.3529 30.984 47.2448C30.6573 48.4169 30.3873 49.6031 30.0322 51.0025ZM19.4694 36.0144C22.531 33.5637 25.4149 31.2409 28.3131 28.9323C29.2792 28.1651 29.5988 27.2417 29.1371 26.3537C28.6754 25.4587 27.5886 25.0893 26.4805 25.5511C25.7844 25.8423 25.0882 26.2188 24.4986 26.6876C21.4655 29.1099 18.4608 31.5605 15.456 34.0254C14.703 34.6434 14.3194 35.5242 14.5823 36.4547C14.8025 37.2504 15.1648 38.0886 15.6975 38.6994C18.1766 41.5621 21.3518 43.5724 24.4773 45.6252C25.7417 46.4563 27.3826 45.6963 27.7519 44.304C28.0361 43.2172 27.6241 42.3506 26.7646 41.6971C25.4149 40.6671 24.0298 39.6726 22.6873 38.6355C21.6359 37.8186 20.6273 36.9591 19.4694 36.0144ZM54.9934 35.9718C54.6738 36.2488 54.4607 36.469 54.2121 36.6536C51.3139 38.8273 48.4086 40.9938 45.5033 43.1675C44.3312 44.0483 44.0258 45.3127 44.729 46.3498C45.4607 47.4153 46.8601 47.6426 48.025 46.7121C51.669 43.7854 55.2847 40.8233 58.8506 37.8044C60.2712 36.604 60.1647 35.1548 58.7156 33.9757C57.1102 32.6686 55.4836 31.3901 53.8427 30.1328C52.5144 29.117 51.1505 28.1509 49.7937 27.1707C49.4955 26.9576 49.1829 26.7515 48.8562 26.5953C47.8403 26.1265 46.7677 26.4248 46.235 27.2914C45.7235 28.1296 45.9011 29.2094 46.7606 29.877C47.9043 30.765 49.1048 31.5676 50.2626 32.4343C51.8324 33.585 53.381 34.7642 54.9934 35.9718Z" fill="white"/>
<path d="M30.0323 51.0023C30.3875 49.5958 30.6574 48.4096 30.9842 47.2447C33.1791 39.3599 35.3883 31.4751 37.5833 23.5833C37.7609 22.9582 37.8887 22.3118 38.0663 21.6866C38.457 20.3086 39.7569 19.5343 41 19.9179C42.2715 20.3086 42.8966 21.6156 42.4917 23.0008C40.0268 31.4325 37.5691 39.8642 35.097 48.2888C34.7774 49.3757 34.4365 50.4625 33.9889 51.4996C33.3923 52.8919 31.865 53.3394 30.8706 52.423C30.4585 52.0394 30.2668 51.4144 30.0323 51.0023Z" fill="#8B51FF"/>
<path d="M19.4697 36.0144C20.6204 36.9591 21.6362 37.8186 22.6804 38.6284C24.023 39.6655 25.4081 40.66 26.7577 41.69C27.6173 42.3435 28.0363 43.2172 27.7451 44.2969C27.3757 45.6892 25.7348 46.4493 24.4705 45.6182C21.345 43.5653 18.1698 41.555 15.6907 38.6924C15.1579 38.0743 14.8027 37.2433 14.5755 36.4477C14.3126 35.51 14.6962 34.6363 15.4491 34.0183C18.4468 31.5535 21.4586 29.1028 24.4918 26.6805C25.0813 26.2117 25.7775 25.8352 26.4736 25.544C27.5817 25.0823 28.6686 25.4517 29.1303 26.3467C29.592 27.2417 29.2723 28.158 28.3063 28.9252C25.4152 31.2409 22.5313 33.5637 19.4697 36.0144Z" fill="#8B51FF"/>
<path d="M54.9932 35.9716C53.3808 34.7641 51.8322 33.5849 50.2623 32.4271C49.0974 31.5676 47.8969 30.7578 46.7604 29.8698C45.9009 29.2022 45.7233 28.1224 46.2348 27.2842C46.7675 26.4176 47.8401 26.1193 48.8559 26.5881C49.1898 26.7444 49.4952 26.9504 49.7936 27.1635C51.1503 28.1437 52.5141 29.1098 53.8425 30.1256C55.4833 31.3829 57.1101 32.6615 58.7154 33.9685C60.1645 35.1476 60.271 36.5968 58.8504 37.7972C55.2844 40.8162 51.6617 43.7783 48.0248 46.7049C46.8669 47.6354 45.4605 47.4081 44.7288 46.3426C44.0185 45.3055 44.324 44.0411 45.5031 43.1603C48.4083 40.9937 51.3137 38.8201 54.2119 36.6465C54.4605 36.4689 54.6807 36.2487 54.9932 35.9716Z" fill="#8B51FF"/>
</svg>
