<svg width="75" height="75" viewBox="0 0 75 75" fill="none" xmlns="http://www.w3.org/2000/svg">
<path d="M22.966 22.3509C16.4172 20.5174 18.6135 10.9035 24.6028 10.0013C29.7225 8.80229 32.6714 14.4153 30.8679 18.7925C40.5186 16.6643 53.1689 19.2996 57.1942 29.3104C62.819 40.8924 58.476 56.0486 46.3648 61.3973C21.008 72.0199 0.371537 39.747 22.966 22.3509ZM37.8384 20.4434C22.8284 19.4581 10.8977 35.7749 17.6467 49.277C21.4088 56.1417 28.7349 61.0372 36.6789 60.9431C45.5435 60.936 52.7193 55.4765 55.87 47.3204C58.2469 41.6835 57.4889 35.2149 54.8808 29.8006C52.2832 23.1793 43.8687 20.6595 37.8384 20.4434ZM24.6714 19.4679C24.691 19.5222 24.7105 19.5764 24.73 19.6307C27.8712 18.4083 29.1865 18.9135 28.7689 14.881C28.0353 10.6517 22.2639 12.5196 21.904 16.0124C21.5788 17.6908 22.3318 19.5314 24.6714 19.4679Z" fill="#8B51FF"/>
<path d="M52.9429 5.45146C51.8797 8.98141 50.6654 12.597 49.2636 16.0198C48.4881 17.6362 46.081 16.7553 46.5722 15.0283C47.4752 11.7146 48.445 8.41875 49.3851 5.11513C49.8393 2.95286 52.9432 2.83239 52.9429 5.45146Z" fill="#8B51FF"/>
<path d="M14.1827 69.6154C15.1556 67.1332 16.8709 64.8118 18.1395 62.445C19.6988 59.6958 23.0663 61.8808 21.1825 64.4269C20.1204 66.1608 19.0591 67.8954 17.9757 69.6158C17.3634 70.6183 16.4449 71.9971 15.0977 71.2947C14.4891 70.9998 14.1934 70.4958 14.1827 69.6154Z" fill="#8B51FF"/>
<path d="M69.6905 53.2202C67.6041 52.7548 65.4818 51.9891 63.4187 51.3799C63.0158 51.2518 62.6078 51.0344 62.2939 50.7549C61.0982 49.8086 61.9125 47.6768 63.4354 47.7352C63.8251 47.7305 64.229 47.7759 64.6043 47.8795C66.683 48.5377 68.892 48.9127 70.8772 49.8146C72.6065 50.8767 71.8685 53.3796 69.6905 53.2202Z" fill="#8B51FF"/>
<path d="M64.3196 22.2567C64.0197 22.7209 63.8163 23.3149 63.4009 23.6235C62.1486 24.4124 60.9226 25.5021 59.4639 25.8495C58.0875 26.0852 57.0725 24.3529 57.977 23.2788C58.8814 22.2959 60.1169 21.6559 61.1764 20.8497C62.4193 19.8763 64.1164 20.6525 64.3196 22.2567Z" fill="#8B51FF"/>
<path d="M6.22341 40.6122C4.92826 40.6994 3.23552 40.6708 3.16443 38.9907C3.1463 38.1402 3.80505 37.3451 4.6699 37.3029C6.2599 37.3522 9.31773 36.6476 9.40734 38.9747C9.38484 40.6281 7.52302 40.7115 6.22333 40.6102C6.22341 40.6109 6.22341 40.6116 6.22341 40.6122Z" fill="#8B51FF"/>
<path d="M45.244 66.1748C46.6409 66.1133 47.0862 67.6853 47.1757 68.8388C47.2573 69.6392 46.7531 70.349 46.0248 70.5638C44.3497 71.0716 43.7271 69.0389 43.6511 67.7354C43.5965 66.8668 44.3777 66.1828 45.244 66.1748Z" fill="#8B51FF"/>
<path d="M37.8384 20.4434C43.8672 20.6583 52.2853 23.1795 54.8808 29.8007C57.4894 35.2146 58.2468 41.6838 55.8705 47.3207C52.7191 55.4735 45.543 60.9393 36.6788 60.9428C28.7355 61.0389 21.408 56.1407 17.6467 49.2765C10.9013 35.7729 22.8259 19.46 37.8384 20.4434ZM36.7524 22.2132C15.5929 23.0678 11.1321 45.9858 28.0969 57.1319C31.4263 59.5099 35.4242 60.0276 39.4052 59.552C41.6028 59.3662 43.7716 58.7992 45.5906 57.4968C61.3352 46.9297 57.9559 21.782 36.7524 22.2132Z" fill="white"/>
<path d="M36.7524 22.2134C57.9552 21.7842 61.3369 46.9313 45.5901 57.4971C43.7717 58.7992 41.6028 59.3663 39.4052 59.5524C35.4244 60.0249 31.426 59.5129 28.0967 57.1317C11.1277 45.9812 15.5998 23.0645 36.7524 22.2134ZM50.6412 31.9259C46.5045 24.9947 36.8333 24.1022 31.3688 26.0874C31.7495 27.2973 33.4842 29.2834 31.9123 30.2002C30.291 30.9172 29.4841 28.1468 28.6285 27.1642C21.4459 30.8513 18.0328 39.0544 22.8277 46.529C23.9323 46.0306 25.8166 44.2367 26.8076 45.5372C27.1865 46.0809 27.0771 46.6922 26.3937 47.3159C25.7354 47.9167 25.1202 48.6179 24.1045 48.6545C28.5734 55.6011 36.0101 58.1243 42.2222 55.0913C41.9388 54.5281 41.639 53.9727 41.3765 53.4002C40.6267 51.8163 42.8466 50.5831 43.768 52.0704C44.1511 52.8827 44.345 53.7593 44.6531 54.6193C50.42 50.54 54.4453 41.2096 51.7158 34.2373C50.694 34.6414 49.2186 35.8065 48.3582 34.5832C47.3656 33.014 49.4747 32.3366 50.6412 31.9259Z" fill="#8B51FF"/>
<path d="M50.6412 31.9258C49.4757 32.3354 47.3646 33.0151 48.3581 34.5833C49.2197 35.8064 50.6925 34.6413 51.7157 34.2372C54.4452 41.2096 50.4198 50.5399 44.653 54.6193C44.3449 53.7593 44.1509 52.8826 43.7679 52.0703C42.8465 50.5832 40.6262 51.8165 41.3764 53.4002C41.6388 53.9727 41.9387 54.5282 42.222 55.0914C36.01 58.1243 28.5733 55.6012 24.1044 48.6545C25.1201 48.6179 25.7353 47.9167 26.3935 47.316C27.077 46.6922 27.1863 46.081 26.8074 45.5373C25.8145 44.2372 23.9346 46.03 22.828 46.5298C18.0326 39.0544 21.4457 30.8513 28.6283 27.1643C29.4829 28.1456 30.291 30.9172 31.9119 30.2004C33.484 29.2816 31.7492 27.2997 31.3686 26.0875C36.8333 24.1022 46.5044 24.9947 50.6412 31.9258ZM31.4258 45.1061C31.361 45.1068 31.2962 45.1076 31.2315 45.1083C31.2892 47.7297 31.4282 50.3517 31.431 52.9734C31.4483 54.2193 32.9077 54.3151 33.4377 53.3189C34.9828 51.2155 36.5194 49.1057 38.0493 46.9911C39.2784 45.2683 40.7953 43.5702 41.1379 41.418C41.7812 37.1386 42.2404 32.8294 42.4832 28.5076C42.652 27.2329 41.067 26.669 40.3048 27.6744C37.6565 30.842 34.8235 33.8687 32.3392 37.1691C30.7527 39.4658 31.6377 42.4854 31.4258 45.1061Z" fill="white"/>
<path d="M31.4259 45.1061C31.6372 42.4858 30.7535 39.4655 32.3393 37.1692C34.8238 33.8687 37.6567 30.8421 40.3051 27.6743C41.0614 26.6807 42.6561 27.2204 42.4835 28.5076C42.2407 32.8294 41.7815 37.1386 41.1382 41.418C40.7953 43.5706 39.2788 45.2678 38.0496 46.9911C36.5197 49.1057 34.9831 51.2155 33.4379 53.319C32.9147 54.2997 31.4454 54.2349 31.4311 52.9733C31.4283 50.3517 31.2893 47.7297 31.2317 45.1083C31.2964 45.1075 31.3611 45.1068 31.4259 45.1061ZM34.0272 38.4251C35.843 39.4022 37.4954 40.2915 39.2493 41.2354C39.6489 37.752 40.0289 34.4396 40.4183 31.0447C38.2793 33.5149 36.2046 35.9108 34.0272 38.4251ZM33.2843 50.0197C35.0346 47.6915 36.7591 45.3976 38.479 43.1097C36.8291 42.2772 35.2558 41.4833 33.6263 40.661C33.5126 43.7718 33.3997 46.8631 33.2843 50.0197Z" fill="#8B51FF"/>
<path d="M34.0271 38.4251C36.2044 35.9107 38.2791 33.5149 40.4181 31.0446C40.0287 34.4395 39.6487 37.7519 39.2492 41.2353C37.4952 40.2914 35.8429 39.4022 34.0271 38.4251Z" fill="white"/>
<path d="M33.2843 50.0195C33.3997 46.8629 33.5127 43.7716 33.6263 40.6607C35.2559 41.483 36.8292 42.277 38.4791 43.1095C36.7591 45.3974 35.0346 47.6913 33.2843 50.0195Z" fill="white"/>
</svg>
