<svg width="960" height="960" viewBox="0 0 960 960" fill="none" xmlns="http://www.w3.org/2000/svg">
<path d="M515.593 920.036C482.136 916.034 465.535 898.269 446.732 872.425C443.896 868.874 440.284 868.076 436.177 869.706C415.11 878.352 395.949 892.5 372.966 895.729C338.067 900.776 301.131 876.234 297.565 840.281C220.492 872.574 166.205 798.055 203.926 724.397C206.386 717.57 210.276 712.609 201.002 709.529C151.196 690.153 150.437 627.145 178.78 589.124C194.185 563.849 227.588 559.33 252.375 573.257C246.749 512.381 317.804 471.688 370.7 495.152C384.721 498.878 397.481 505.021 408.909 514.04C416.284 518.39 420.812 525.169 425.86 531.738C424.729 529.139 425.77 525.528 422.535 524.092C423.754 506.149 420.946 487.568 425.296 469.527C430.752 439.239 435.206 408.463 451.186 381.526C434.501 376.818 417.465 372.297 404.042 360.789C398.602 355.911 396.4 349.704 398.153 342.508C400.744 331.953 403.539 321.71 406.319 311.166C382.875 295.004 354.161 270.279 363.449 238.519C377.311 187.148 387.927 135.249 393.353 82.2825C394.533 67.8855 406.031 68.8615 408.493 81.9245C409.163 89.1075 409.226 95.5075 409.685 102.867C411.784 101.767 412.009 100.174 412.515 98.8755C415.521 91.0245 417.961 82.8895 422.667 75.8295C424.977 71.1465 432.506 73.1395 432.268 78.2985C432.353 81.4825 432.165 84.7425 431.547 87.8615C431.033 92.6815 427.689 96.9675 428.54 101.891C433.186 96.9305 437.372 90.5925 443.865 88.0135C452.192 85.4495 452.496 95.1805 450.303 100.61C447.733 106.576 445.062 111.184 442.658 117.675C452.43 119.946 462.542 117.419 471.529 122.067C484.741 134.354 448.091 137.258 441.404 139.024C434.248 140.713 425.422 141.566 422.221 149.274C406.658 189.578 365.491 249.485 420.457 277.223C434.274 263.721 440.385 274.266 452.034 283.35C461.93 290.976 470.91 299.072 481.302 306.121C456.472 276.151 448.556 235.659 450.652 197.435C451.076 191.97 451.842 186.539 455.515 182.035C457.015 179.145 457.845 175.549 459.838 172.933C470.776 156.432 485.128 142.347 505.44 139.122C531.899 135.137 559.601 147.027 578.981 164.777C591.916 177.82 599.744 195.581 598.546 214.145C597.326 248.468 602.133 291.943 638.97 305.871C657.143 311.16 652.418 322.607 636.899 327.006C629.128 329.371 621.061 328.932 613.058 328.678C605.191 328.698 615.341 339.875 616.988 342.671C621.343 348.083 616.945 355.581 610.031 353.944C601.774 352.959 594.74 351.126 586.879 347.948C608.402 375.185 615.216 411.444 608.288 445.108C607.174 461.431 609.015 477.979 609.083 494.367C609.437 505.509 611.739 516.382 613.73 527.3C617.666 543.718 617.371 559.091 599.344 565.915C600.12 568.358 600.821 570.275 601.898 572.665C640.763 550.867 683.706 565.279 698.454 608.071C702.933 619.179 706.011 630.704 708.611 642.371C709.89 649.756 712.666 656.277 721.125 656.016C844.73 648.971 840.446 827.633 727.504 817.945C724.362 817.979 723.257 818.86 722.462 821.935C720.819 863.505 680.701 895.732 639.829 886.797C622.483 884.259 607.235 875.846 591.585 868.547C573.71 858.654 579.63 922.685 515.593 920.036ZM215.381 713.716C214.925 722.497 210.225 729.677 207.402 737.664C196.292 765.542 195.625 801.771 219.922 822.997C243.53 845.172 275.478 843.148 302.59 828.608C307.135 826.019 309.275 820.367 312.611 816.511C313.936 814.973 315.805 813.781 317.645 812.865C323.09 811.734 322.12 815.283 318.966 817.92C306.732 830.639 302.085 849.542 314.13 863.952C333.381 888.925 367.592 895.389 395.323 880.748C408.197 874.947 420.451 867.353 433.576 862.236C443.12 860.083 448.162 851.332 454.753 845.12C458.991 844.136 458.24 848.142 456.069 850.498C453.656 854.381 450.917 858.772 448.967 862.769C454.986 869.897 460.985 877.486 466.897 884.803C488.486 912.128 537.051 924.376 560.123 892.467C571.607 875.171 585.023 852.263 575.558 831.383C574.821 830.346 575.879 827.707 576.469 827.418C578.922 827.065 580.707 829.112 581.135 831.427C582.046 834.523 583.417 837.632 583.548 840.779C584.08 850.521 594.397 860.387 602.874 864.204C606.27 865.495 609.417 867.432 612.704 869.02C659.538 894.053 715.081 871.768 713.762 814.492C713.77 811.221 707.821 802.076 714.679 803.023C720.604 807.003 726.721 810.262 734.189 809.386C757.122 811.38 775.779 803.165 789.106 784.146C825.548 733.154 794.403 661.31 724.502 664.594C719.284 664.487 714.528 665.258 709.921 667.651C705.819 670.022 697.371 670.526 700.295 663.74C706.064 653.387 694.641 624.079 690.886 612.464C677.642 572.598 639.691 560.463 604.044 581.358C612.845 652.299 532.185 661.923 499.707 709.524C499.903 709.784 500.1 710.043 500.296 710.303C530.959 692.964 564.27 681.214 596.506 667.19C605.875 662.482 613.048 665.853 617.695 674.907C624.408 672.155 630.838 669.079 637.409 666.045C677.176 649.247 700.137 724.755 711.605 751.628C720.642 772.714 706.73 779.802 688.536 770.321C669.417 760.845 652.964 747.221 632.657 740.105C632.759 744.546 634.328 749.26 628.849 750.122C598.212 767.125 569.087 787.43 538.395 804.585C505.264 823.802 464.055 833.656 426.71 821.453C396.155 808.878 357.432 788.753 355.524 751.711C354.347 687.352 400.831 634.305 435.882 584.337C441.204 576.687 439.922 568.147 438.151 559.452C419.284 569.638 399.984 581.507 390.302 601.537C386.632 608.011 382.909 615.112 376.553 619.323C363.191 626.03 363.156 608.708 366.527 600.165C361.594 602.705 357.516 604.014 352.305 604.466C342.225 604.357 344.905 592.87 349.651 587.501C342.346 588.321 326.618 587.426 332.852 576.527C336.785 570.767 343.419 567.843 349.36 564.585C363.847 558.615 350.488 549.789 352.807 538.658C353.515 531.397 361.264 529.911 366.707 533.33C370.695 535.375 373.467 538.66 375.968 542.321C380.28 549.485 386.551 549.194 393.671 546.249C402.03 542.53 410.741 539.664 418.824 535.382C410.476 520.376 391.721 508.664 375.262 504.714C362.15 498.438 347.658 494.417 333.042 495.535C276.946 497.768 236.161 562.546 276.358 608.509C278.283 611.192 278.403 612.851 276.863 614.036C274.315 616.482 270.089 610.606 268.356 608.269C264.569 602.36 260.804 596.433 257.19 590.418C253.8 582.172 252.765 581.132 244.221 578.28C180.94 547.885 140.409 659.581 190.124 693.646C202.1 701.12 214.793 709.546 229.516 708.58C232.877 708.211 236.904 710.737 233.281 713.565C227.381 716.125 221.885 714.243 215.381 713.716ZM444.813 555.368C444.833 565.153 450.945 567.735 447.05 579.17C446.164 583.024 443.722 585.982 441.261 589.115C433.195 599.385 425.692 610.097 417.914 620.595C390.491 661.739 333.01 743.532 381.861 786.247C401.189 801.14 422.406 815.466 447.28 818.066C515.319 825.795 568.598 773.813 624.319 743.308C621.073 723.133 617.434 702.997 612.126 683.246C610.388 678.653 608.153 670.627 601.754 673.504C571.589 686.753 540.131 697.391 511.159 713.178C505.922 716.222 500.381 718.57 494.303 719.538C489.716 720.8 488.831 726.766 485.212 729.398C479.795 732.698 477.759 726.227 481.275 722.211C492.466 706.199 503.864 690.089 519.779 678.412C535.961 666.293 553.102 655.476 569.726 644.003C593.612 627.284 604.745 594.844 592.509 567.811C556.873 571.082 522.554 559.566 488.231 551.866C460.278 543.545 470.592 540.792 444.813 555.368ZM509.432 453.206C536.479 465.699 563.854 473.82 594.3 467.001C615.536 423.681 604.043 366.316 566.209 334.702C563.124 331.669 558.974 330.167 554.385 328.404C556.198 336.268 550.128 343.262 546.411 349.475C532.831 366.814 512.258 385.516 488.85 384.527C459.658 379.975 477.498 341.979 492.914 330.751C495.319 328.677 496.546 326.298 496.505 323.118C476.573 313.815 460.367 299.387 443.571 285.79C437.449 294.876 421.15 349.868 420.801 362.651C428.151 366.168 436.238 368.382 443.968 371C448.909 372.588 453.902 374.014 458.854 375.569C461.149 376.29 461.758 377.411 461.142 379.702C458.42 386.299 454.98 392.634 452.084 399.172C436.687 428.757 435.379 462.432 430.602 494.812C429.668 506.007 428.684 518.294 433.199 528.848C460.172 515.768 486.533 498.716 506.359 476.255C494.431 465.605 503.327 451.435 508.188 439.884C512.538 430.914 517.164 422.078 521.692 413.195C522.315 411.109 524.481 410.027 526.442 410.22C529.836 411.061 528.017 415.307 526.948 417.44C520.98 429.43 514.676 440.785 509.432 453.206ZM468.678 190.542C455.774 224.591 462.319 265.266 484.89 293.715C504.555 320.417 537.654 315.804 554.207 288.678C561.215 276.827 566.572 263.489 568.176 249.84C567.396 246.045 567.649 245.906 571.758 245.739C582.394 244.229 583.234 226.386 573.893 222.187C572.533 221.573 571.318 221.528 569.988 222.547C564.177 227.211 556.931 229.731 549.877 231.605C550.265 236.173 550.432 238.733 545.246 237.859C541.059 237.751 536.868 237.785 532.678 237.793C530.712 237.966 527.209 238.581 527.186 235.739C527.455 233.31 529.705 232.033 532.064 231.459C523.077 228.854 514.476 226.641 506.729 221.621C501.415 217.982 496.299 216.358 490.285 219.585C478.96 222.992 474.384 210.342 481.561 212.115C484.464 213.617 487.226 215.029 490.5 212.43C481.803 206.71 474.558 199.809 468.678 190.542ZM472.471 539.949C496.711 544.831 609.226 585.172 609.715 543.197C608.348 526.862 603.115 510.992 602.779 494.486C602.094 484.97 603 475.836 601.692 466.319C594.809 481.683 581.748 495.72 563.544 492.999C560.313 492.254 556.621 493.514 553.138 493.892C552.745 491.51 551.255 490.967 541.626 489.492C523.948 512.564 496.075 523.956 472.471 539.949ZM418.136 282.549C358.114 255.536 396.905 191.031 414.81 148.29C422.892 128.535 448.176 133.298 464.875 127.098C455.709 122.83 433.869 130.965 436.594 114.516C438.082 107.422 443.667 102.712 444.378 95.2855C438.039 99.9825 434.873 107.219 427.951 111.033C415.658 115.365 421.89 98.6995 422.709 92.6335C419.454 98.4835 417.979 105.111 413.434 110.071C406.66 116.827 402.88 106.132 402.711 100.412C401.715 93.5865 404.035 87.4225 400.711 80.7955C394.773 121.801 390.797 163.012 379.461 203.034C374.615 227.207 359.589 254.959 378.606 276.535C387.341 287.133 397.238 296.824 409.113 303.676C412.135 296.602 415.099 289.661 418.136 282.549ZM511.716 480.126C479.449 515.113 435.791 538.375 390.987 553.34C371.263 559.002 372.981 538.69 359.991 538.248C358.048 543.372 361.208 548.079 362.51 552.869C367.313 569.063 346.062 570.842 337.964 580.29C346.097 582.779 352.816 578.818 360.169 576.228C363.648 575.199 365.285 579.065 364.097 581.829C359.998 587.778 354.638 590.987 351.414 598.016C358.045 597.612 361.764 593.858 367.255 591.032C369.18 589.896 370.848 588.249 372.864 587.361C375.751 586.09 378.32 588.407 377.612 591.496C375.242 597.295 373.211 603.298 371.305 609.285C370.813 610.839 370.672 612.545 372.521 614.284C378.135 609.505 381.388 603.208 384.956 596.945C409.282 551.552 496.103 529.701 534.992 487.967C526.932 485.253 519.37 482.705 511.716 480.126ZM620.815 681.26C624.221 698.096 627.549 714.54 630.922 731.212C645.442 734.124 657.289 742.191 669.317 750.006C674.894 753.005 713.105 779.335 705.322 758.561C692.624 729.489 684.788 694.974 658.534 674.716C646.442 665.591 632.549 677.552 620.815 681.26ZM506.365 316.395C504.866 321.497 488.705 362.3 500.089 359.272C516.197 355.839 528.473 343.819 537.693 330.788C540.147 327.88 534.451 318.673 533.607 314.496C524.949 317.496 516.137 318.416 506.365 316.395ZM437.81 281.264C431.168 272.907 426.058 283.469 423.316 289.4C415.098 306.723 409.639 324.956 405.688 343.665C404.227 350.586 408.035 356.603 414.52 358.536C420.834 332.273 428.54 306.715 437.81 281.264ZM489.545 341.402C479.148 352.075 470.032 381.328 494.062 378.85C515.966 375.77 533.266 358.501 545.385 341.073C544.254 339.319 544.065 338.176 542.424 336.975C533.535 348.857 522.94 358.768 509.063 364.411C501.224 368.396 489.242 367.723 489.318 356.604C488.508 352.306 492.521 344.091 489.545 341.402ZM588.575 476.302C588.478 475.971 588.38 475.641 588.283 475.31C560.207 480.065 532.972 471.339 507.535 460.449C504.323 473.721 519.27 475.143 527.769 478.953C547.169 483.869 573.777 495.934 588.575 476.302ZM523.042 151.341C523.051 151.077 523.061 150.812 523.07 150.548C505.598 145.397 488.361 157.262 477.354 170.109C476.096 171.894 473.439 174.87 476.162 176.575C477.745 177.509 478.746 176.319 479.568 175.105C489.617 161.18 505.813 151.785 523.042 151.341ZM545.281 323.883C545.861 327.173 546.612 330.044 548.564 332.06C549.836 330.389 550.965 328.906 552.144 327.357C549.926 326.236 547.604 325.059 545.281 323.883Z" fill="#8B51FF"/>
<path d="M38.4648 191.353C42.7298 171.608 52.9688 157.437 72.2738 153.365C69.7778 144.079 70.5868 134.983 76.0928 126.594C92.6138 100.592 126.119 106.792 140.252 131.38C156.745 78.9136 216.614 98.1456 210.459 147.615C238.934 127.337 276.837 153.677 268.72 186.937C264.622 206.482 248.609 223.963 227.823 225.055C210.773 256.747 176.324 254.111 162.913 221.057C147.44 250.315 103.712 248.604 97.6718 217.927C75.8378 237.129 38.7668 219.795 38.4648 191.353ZM203.788 139.708C204.828 115.169 175.015 94.1206 154.927 118.329C151.787 122.544 149.705 127.293 148.137 132.283C146.849 138.788 142.594 147.192 136.151 139.486C133.586 135.993 131.405 132.144 128.588 128.849C107.864 103.075 70.7358 125.488 80.4958 154.25C81.2258 159.218 79.4558 161.566 74.5288 161.741C54.3338 162.603 39.4178 190.415 52.1948 206.788C64.8838 223.093 84.2908 220.242 98.1778 207.282C103.441 204.18 107.354 208.405 106.377 213.785C105.024 236.776 139.337 241.063 152.619 222.102C155.499 217.806 157.478 212.909 159.729 208.275C162.409 202.772 168.679 204.901 168.965 210.054C171.011 237.924 204.694 253.32 219.73 222.526C221.029 220.495 222.694 219.496 225.239 219.307C243.048 217.977 256.77 204.364 261.427 187.497C270.641 153.548 228.921 132.957 207.079 161.144C203.128 165.144 198.463 161.504 200.133 156.936C201.487 151.225 202.587 145.454 203.788 139.708Z" fill="#8B51FF"/>
<path d="M840.243 532.047C823.517 556.13 785.633 552.338 786.484 517.666C762.877 531.771 734.605 514.459 747.48 486.652C735.427 488.785 724.398 485.705 716.284 476.534C697.921 454.104 734.749 428.083 756.477 429.284C756.784 385.936 816.917 389.889 822.71 429.69C857.452 386.394 913.602 440.807 875.865 478.749C925.579 503.745 880.593 564.925 840.243 532.047ZM863.699 534.11C895.756 532.919 899.201 494.52 870.117 484.379C861.651 478.404 875.129 469.123 877.743 462.926C885.783 449.536 877.72 432.366 865.343 424.835C853.751 417.439 838.004 422.954 830.088 433.296C816.465 453.325 816.399 430.107 810.95 420.082C804.918 408.418 791.467 403.09 779.011 407.246C768.382 410.586 763.698 419.856 764.236 430.095C763.633 444.43 739.024 428.643 721.563 456.426C712.03 470.993 733.315 482.907 746.061 478.667C753.86 476.142 761.685 476.818 756.326 486.747C755.157 489.603 753.797 492.404 752.904 495.345C747.102 512.96 769.488 520.251 781.615 511.051C785.918 508.589 789.281 504.25 793.932 502.391C803.37 501.124 797.072 512.535 795.499 516.888C792.25 526.958 799.04 537.931 809.51 539.717C829.754 543.52 835.356 514.62 845.13 526.215C850.244 531.289 856.386 533.995 863.699 534.11Z" fill="#8B51FF"/>
<path d="M735.857 118.915C726.044 131.6 704.956 141.264 692.781 126.545C684.131 116.651 689.221 104.583 695.751 94.9563C663.387 84.5083 693.959 34.6183 731.67 56.1653C747.018 28.1793 776.834 43.0183 781.467 69.7813C812.668 51.3013 828.084 103.006 798.095 115.439C793.061 117.851 792.256 124.383 788.546 128.228C775.031 146.537 739.251 144.377 735.857 118.915ZM807.789 90.3083C807.795 77.6303 794.606 67.2833 785.47 76.7773C780.902 80.6923 776.237 79.9643 774.588 73.8953C773.083 60.1623 758.98 40.2233 744.448 52.4913C737.657 59.3923 736.679 68.2453 725.307 62.0033C712.26 54.2853 693.929 60.6383 690.682 75.9103C688.3 85.0913 696.226 86.7593 703.362 87.8503C710.177 90.3113 706.519 96.2123 703.041 99.8913C688.063 116.751 702.138 133.043 720.09 122.263C726.73 118.413 730.429 111.745 734.681 105.635C736.978 102.015 742.799 103.456 743.231 107.703C743.553 109.498 743.696 111.324 743.929 113.136C744.224 120.359 746.244 128.09 753.917 130.506C768.38 136.28 782.28 127.522 787.88 113.932C788.618 112.841 789.834 111.386 790.901 111.329C799.232 110.146 807.756 98.6413 807.789 90.3083Z" fill="#8B51FF"/>
<path d="M677.276 903.311C673.366 905.744 669.599 906.813 665.764 907.349C640.335 910.878 614.839 914.071 589.296 916.612C586.634 916.612 585.066 915.571 584.819 913.73C584.268 909.868 590.514 909.539 593.46 909.08C617.151 906.256 640.872 903.7 664.682 902.114C668.698 901.824 672.759 901.94 677.276 903.311Z" fill="#8B51FF"/>
<path d="M844.121 825.301C841.381 833.723 776.317 836.118 763.205 838.952C760.749 838.948 756.593 840.232 755.848 836.947C755.499 835.074 756.698 834.04 758.301 833.555C780.936 829.563 803.931 827.359 826.709 824.159C832.745 823.666 838.144 823.075 844.121 825.301Z" fill="#8B51FF"/>
<path d="M921.534 728.875C909.927 731.815 897.81 732.388 885.991 734.309C869.381 736.015 852.609 740.09 835.987 740.141C832.372 738.231 834.474 734.617 838.051 734.58C865.693 731.218 893.556 724.37 921.507 727.624C921.517 728.041 921.526 728.458 921.534 728.875Z" fill="#8B51FF"/>
<path d="M363.26 108.653C364.641 88.2702 371.318 71.0602 384.167 56.3902C386.583 54.2022 390.216 48.8512 393.711 51.9342C395.726 54.4082 392.821 57.3182 391.311 59.2742C378.568 73.1042 371.918 89.5782 370.031 108.139C370.295 115.18 363.218 115.582 363.26 108.653Z" fill="#8B51FF"/>
<path d="M816.915 617.02C811.293 625.094 758.944 622.925 745.662 624.946C738.712 626.351 737.371 618.619 744.772 618.882C765.898 617.694 787.025 616.511 808.153 615.367C811.033 615.211 814.017 614.755 816.915 617.02Z" fill="#8B51FF"/>
<path d="M745.112 577.099C743.611 581.511 736.082 580.736 732.258 581.64C724.843 582.276 717.415 582.765 709.988 583.236C707.042 583.4 702.347 583.386 702.619 579.283C702.65 576.669 705.165 575.651 707.426 575.66C715.41 575.101 723.391 574.485 731.381 574.04C735.908 574.339 742.115 572.763 745.112 577.099Z" fill="#8B51FF"/>
<path d="M348.78 85.6074C350.517 78.8704 354.184 72.5164 356.867 66.0784C357.495 64.7284 358.664 63.5754 359.758 62.5124C362.135 59.6824 366.775 62.5164 365.074 65.9404C361.975 73.1254 358.536 80.2074 355.73 87.5074C354.069 91.3184 348.639 89.7824 348.78 85.6074Z" fill="#8B51FF"/>
<path d="M215.38 713.719C221.88 714.25 227.38 716.13 233.281 713.573C236.97 710.666 232.753 708.251 229.516 708.589C214.795 709.553 202.099 701.13 190.125 693.655C140.404 659.595 180.944 547.89 244.221 578.287C252.856 581.202 253.738 582.113 257.19 590.427C260.805 596.442 264.57 602.368 268.357 608.277C270.088 610.617 274.318 616.488 276.864 614.044C278.403 612.857 278.283 611.2 276.357 608.516C236.147 562.575 276.978 497.742 333.044 495.543C347.66 494.422 362.15 498.446 375.262 504.721C391.787 508.687 410.424 520.368 418.825 535.388C410.743 539.67 402.03 542.536 393.672 546.255C386.536 549.203 380.291 549.487 375.969 542.326C372.724 537.41 368.31 533.027 362.402 531.719C357.389 530.714 353.481 533.57 352.807 538.663C350.49 549.81 363.848 558.613 349.36 564.591C343.419 567.848 336.783 570.773 332.852 576.532C326.623 587.432 342.347 588.326 349.651 587.507C344.906 592.874 342.225 604.365 352.306 604.472C357.521 604.018 361.587 602.713 366.527 600.171C363.163 608.703 363.182 626.041 376.553 619.329C382.909 615.117 386.631 608.017 390.301 601.543C399.983 581.513 419.283 569.643 438.15 559.458C439.921 568.153 441.203 576.693 435.884 584.343C400.826 634.287 354.347 687.375 355.522 751.714C357.42 788.773 396.172 808.86 426.709 821.459C464.059 833.661 505.259 823.804 538.395 804.591C569.086 787.435 598.212 767.129 628.847 750.126C634.352 749.265 632.72 744.55 632.656 740.11C652.958 747.226 669.42 760.853 688.536 770.326C706.62 779.748 720.681 772.828 711.604 751.632C700.153 724.801 677.188 649.251 637.409 666.048C630.836 669.084 624.41 672.161 617.695 674.912C613.165 665.946 605.738 662.455 596.506 667.196C564.27 681.218 530.959 692.969 500.296 710.308C500.1 710.048 499.903 709.789 499.707 709.529C532.16 661.961 612.869 652.263 604.044 581.362C639.691 560.568 677.57 572.449 690.884 612.471C694.603 623.859 706.064 653.516 700.297 663.745C697.344 670.642 705.902 669.939 709.922 667.655C714.529 665.262 719.285 664.49 724.504 664.597C794.339 661.335 825.599 733.106 789.104 784.152C775.779 803.169 757.125 811.386 734.189 809.391C726.708 810.263 720.618 807.011 714.68 803.027C707.868 802.103 713.722 811.171 713.762 814.498C715.08 871.752 659.547 894.072 612.705 869.024C609.418 867.437 606.271 865.501 602.876 864.209C594.388 860.425 584.082 850.472 583.548 840.784C583.418 837.636 582.047 834.529 581.136 831.432C580.743 829.095 578.876 827.096 576.47 827.423C575.841 827.736 574.884 830.313 575.558 831.387C585.014 852.28 571.624 875.154 560.124 892.471C537.03 924.39 488.52 912.115 466.899 884.806C460.985 877.49 454.986 869.901 448.968 862.772C450.91 858.77 453.652 854.385 456.07 850.501C458.01 848.29 459.259 844.152 454.754 845.123C448.16 851.335 443.126 860.088 433.577 862.24C420.45 867.357 408.198 874.949 395.323 880.752C367.581 895.384 333.391 888.935 314.131 863.955C302.09 849.539 306.727 830.649 318.968 817.924C322.185 815.236 323.016 811.735 317.646 812.867C315.806 813.783 313.938 814.976 312.613 816.514C309.276 820.368 307.135 826.023 302.592 828.612C275.49 843.151 243.523 845.173 219.924 822.998C195.629 801.768 196.298 765.551 207.404 737.666C210.223 729.679 214.927 722.502 215.38 713.719Z" fill="white"/>
<path d="M444.813 555.368C470.585 540.784 460.322 543.561 488.23 551.865C522.554 559.566 556.87 571.081 592.508 567.81C604.739 594.856 593.611 627.277 569.725 644.001C553.101 655.474 535.96 666.293 519.778 678.411C503.864 690.088 492.464 706.198 481.274 722.21C479.802 724.38 478.145 727.819 480.912 729.699C482.379 730.717 483.942 730.429 485.211 729.397C488.825 726.769 489.716 720.798 494.302 719.537C500.38 718.569 505.921 716.221 511.159 713.178C540.13 697.391 571.589 686.752 601.753 673.502C608.166 670.622 610.376 678.656 612.126 683.245C617.435 702.997 621.072 723.131 624.319 743.307C568.62 773.812 515.302 825.799 447.28 818.067C422.405 815.464 401.19 801.138 381.864 786.247C332.998 743.546 390.494 661.753 417.911 620.594C425.693 610.096 433.195 599.385 441.261 589.115C443.722 585.981 446.164 583.023 447.051 579.169C450.949 567.749 444.811 565.077 444.813 555.368Z" fill="white"/>
<path d="M509.432 453.205C514.675 440.787 520.981 429.428 526.947 417.439C528.02 415.301 529.833 411.061 526.441 410.219C524.477 410.034 522.316 411.102 521.691 413.193C517.163 422.076 512.537 430.913 508.187 439.883C503.324 451.436 494.43 465.601 506.357 476.253C486.53 498.715 460.173 515.765 433.197 528.846C428.68 518.303 429.668 505.993 430.599 494.811C435.377 462.433 436.685 428.754 452.082 399.17C454.978 392.632 458.418 386.298 461.14 379.7C461.756 377.41 461.147 376.288 458.852 375.567C453.9 374.012 448.907 372.586 443.966 370.998C436.237 368.379 428.148 366.165 420.799 362.649C421.148 349.866 437.447 294.876 443.569 285.789C460.364 299.386 476.57 313.814 496.503 323.117C496.544 326.297 495.318 328.675 492.912 330.747C477.489 341.96 459.661 379.985 488.848 384.525C512.26 385.513 532.822 366.817 546.409 349.475C550.145 343.231 556.177 336.306 554.383 328.403C558.972 330.166 563.122 331.668 566.209 334.7C604.042 366.311 615.535 423.689 594.299 467.001C563.854 473.82 536.479 465.698 509.432 453.205Z" fill="#8B51FF"/>
<path d="M468.677 190.543C474.557 199.81 481.802 206.711 490.499 212.43C487.226 215.029 484.463 213.617 481.56 212.116C474.39 210.338 478.947 222.99 490.284 219.585C496.298 216.359 501.414 217.983 506.728 221.622C514.478 226.643 523.072 228.853 532.063 231.46C529.707 232.032 527.448 233.312 527.185 235.74C527.21 238.582 530.71 237.966 532.677 237.793C536.867 237.785 541.058 237.751 545.245 237.859C550.411 238.736 550.276 236.172 549.876 231.605C556.93 229.734 564.175 227.211 569.987 222.547C571.316 221.528 572.532 221.573 573.891 222.187C583.237 226.384 582.389 244.232 571.757 245.74C567.647 245.907 567.395 246.046 568.174 249.841C566.572 263.494 561.213 276.825 554.206 288.681C537.672 315.785 504.543 320.432 484.89 293.716C462.311 265.266 455.78 224.593 468.677 190.543ZM501.946 282.872C501.862 290.843 519.569 290.34 524.773 288.265C527.715 287.31 532.027 283.821 530.196 280.47C529.792 280.07 528.292 280.22 527.68 280.671C519.577 286.93 511.067 284.611 501.946 282.872ZM497.991 227.275C495.382 228.456 487.195 227.767 487.835 232.34C488.206 234.011 489.534 234.562 491.056 234.242C495.506 233.306 499.903 233.417 504.363 234.268C508.609 235.254 509.399 228.964 505.535 228.457C503.223 227.983 500.866 227.714 497.991 227.275ZM517.711 260.12C514.656 261.952 511.919 261.511 508.719 260.501C506.642 260.14 505.648 262.1 506.251 263.816C508.54 269.465 519.719 267.182 517.711 260.12ZM576.208 236.613C579.319 233.308 578.939 228.251 575.581 226.383C573.104 225.069 570.245 228.065 573.343 229.601C576.405 230.997 575.437 233.897 576.208 236.613ZM519.664 293.583C519.126 293.142 518.46 292.245 517.594 291.964C516.049 291.462 513.367 292.714 513.433 293.878C513.765 297.741 518.622 296.973 519.664 293.583Z" fill="white"/>
<path d="M472.471 539.95C496.071 523.96 523.951 512.563 541.626 489.493C551.255 490.968 552.744 491.51 553.138 493.892C556.62 493.514 560.313 492.255 563.544 493C581.755 495.716 594.801 481.69 601.692 466.32C603.003 475.826 602.095 484.976 602.779 494.487C603.115 510.994 608.349 526.864 609.715 543.197C609.213 585.147 496.921 544.89 472.471 539.95Z" fill="#8B51FF"/>
<path d="M418.136 282.551C415.099 289.663 412.135 296.603 409.114 303.678C397.239 296.828 387.342 287.13 378.606 276.537C359.589 254.956 374.616 227.212 379.462 203.035C390.798 163.012 394.773 121.805 400.712 80.7969C404.034 87.4159 401.716 93.5929 402.712 100.414C402.88 106.131 406.662 116.832 413.435 110.073C417.98 105.112 419.454 98.4859 422.71 92.6349C421.889 98.6899 415.663 115.375 427.953 111.036C434.879 107.217 438.035 99.9889 444.379 95.2879C443.669 102.708 438.08 107.429 436.595 114.518C433.881 130.975 455.69 122.826 464.875 127.1C448.189 133.285 422.883 128.546 414.809 148.292C396.906 191.005 358.123 255.572 418.136 282.551Z" fill="white"/>
<path d="M511.716 480.125C519.37 482.704 526.932 485.252 534.991 487.967C495.955 529.802 409.338 551.503 384.954 596.943C381.388 603.207 378.137 609.502 372.521 614.284C370.672 612.545 370.814 610.839 371.305 609.285C373.211 603.298 375.242 597.295 377.612 591.496C378.32 588.407 375.751 586.09 372.864 587.361C370.848 588.249 369.18 589.896 367.255 591.032C361.758 593.862 358.055 597.608 351.415 598.016C354.634 590.995 360.005 587.773 364.099 581.829C365.281 579.067 363.654 575.196 360.17 576.229C352.814 578.82 346.101 582.779 337.965 580.292C346.05 570.858 367.324 569.054 362.511 552.871C361.209 548.079 358.048 543.374 359.992 538.249C372.928 538.652 371.287 559.014 390.988 553.341C435.791 538.375 479.448 515.112 511.716 480.125Z" fill="white"/>
<path d="M620.814 681.26C632.536 677.544 646.449 665.597 658.533 674.717C684.791 694.98 692.62 729.485 705.322 758.561C713.122 779.361 674.845 752.964 669.316 750.007C657.288 742.192 645.441 734.124 630.921 731.212C627.548 714.54 624.221 698.094 620.814 681.26Z" fill="#8B51FF"/>
<path d="M506.365 316.398C516.138 318.419 524.949 317.499 533.608 314.5C534.459 318.646 540.137 327.927 537.694 330.79C528.477 343.819 516.194 355.843 500.09 359.275C488.709 362.322 504.848 321.546 506.365 316.398Z" fill="white"/>
<path d="M437.81 281.267C428.54 306.718 420.834 332.278 414.52 358.538C408.035 356.604 404.227 350.587 405.688 343.667C409.639 324.957 415.098 306.725 423.316 289.402C426.056 283.478 431.171 272.902 437.81 281.267Z" fill="white"/>
<path d="M489.545 341.403C492.509 344.027 488.515 352.363 489.319 356.607C489.248 367.721 501.222 368.401 509.064 364.413C522.939 358.771 533.536 348.858 542.424 336.977C544.065 338.175 544.255 339.321 545.385 341.074C533.27 358.501 515.963 375.772 494.061 378.853C470.031 381.324 479.151 352.081 489.545 341.403Z" fill="white"/>
<path d="M588.575 476.304C573.771 495.936 547.175 483.871 527.769 478.957C519.261 475.142 504.333 473.732 507.535 460.453C532.969 471.341 560.211 480.068 588.283 475.313C588.38 475.643 588.477 475.974 588.575 476.304Z" fill="white"/>
<path d="M523.041 151.343C505.813 151.787 489.617 161.182 479.565 175.107C478.743 176.321 477.742 177.511 476.16 176.577C473.428 174.877 476.105 171.891 477.352 170.111C488.351 157.267 505.604 145.395 523.068 150.549C523.059 150.814 523.05 151.079 523.041 151.343Z" fill="white"/>
<path d="M545.281 323.883C547.604 325.059 549.926 326.234 552.144 327.357C550.965 328.906 549.836 330.389 548.564 332.059C546.612 330.044 545.862 327.174 545.281 323.883Z" fill="white"/>
<path d="M203.787 139.707C202.585 145.453 201.486 151.224 200.129 156.934C198.431 161.513 203.153 165.131 207.076 161.14C228.84 132.969 270.698 153.551 261.424 187.496C256.785 204.36 243.039 217.979 225.237 219.305C222.693 219.493 221.027 220.493 219.728 222.525C204.657 253.297 171.044 237.962 168.963 210.051C168.668 204.882 162.414 202.786 159.727 208.273C157.477 212.907 155.497 217.804 152.618 222.099C139.33 241.078 105.03 236.759 106.375 213.784C107.384 208.383 103.412 204.197 98.1769 207.282C84.3219 220.228 64.8469 223.104 52.1939 206.785C39.4079 190.413 54.3429 162.603 74.5269 161.74C79.4549 161.565 81.2239 159.217 80.4939 154.248C70.7569 125.522 107.815 103.044 128.587 128.849C131.404 132.144 133.585 135.993 136.151 139.486C142.61 147.225 146.85 138.74 148.136 132.283C149.704 127.293 151.786 122.544 154.928 118.329C175.012 94.133 204.83 115.158 203.787 139.707Z" fill="white"/>
<path d="M863.7 534.108C856.387 533.993 850.245 531.287 845.129 526.214C835.375 514.618 829.741 543.519 809.509 539.716C799.039 537.93 792.249 526.958 795.498 516.888C797.059 512.567 803.37 501.111 793.93 502.391C789.279 504.25 785.917 508.588 781.613 511.052C769.511 520.236 747.078 512.974 752.903 495.344C753.796 492.403 755.156 489.602 756.325 486.746C761.752 476.757 753.703 476.176 746.06 478.667C738.171 480.502 731.037 479.16 724.693 473.947C705.755 457.657 740.893 435.054 757.378 437.157C771.513 435.628 755.773 415.32 779.011 407.245C791.466 403.089 804.917 408.416 810.949 420.081C816.407 430.19 816.488 453.28 830.088 433.294C838.005 422.948 853.753 417.438 865.343 424.833C877.725 432.354 885.785 449.541 877.744 462.925C875.163 469.092 861.63 478.406 870.118 484.377C899.13 494.466 895.824 532.925 863.7 534.108Z" fill="white"/>
<path d="M807.788 90.3087C807.743 98.6997 799.25 110.103 790.901 111.33C789.834 111.386 788.617 112.842 787.88 113.933C782.271 127.513 768.387 136.291 753.916 130.506C746.243 128.079 744.225 120.368 743.93 113.136C743.696 111.325 743.554 109.498 743.231 107.704C742.802 103.451 736.974 102.022 734.682 105.637C730.431 111.744 726.729 118.417 720.09 122.264C702.219 133.019 688.017 116.812 703.043 99.8927C706.554 96.2047 710.141 90.3007 703.361 87.8517C696.174 86.6857 688.347 85.2387 690.682 75.9097C693.944 60.6467 712.246 54.2787 725.307 62.0057C736.686 68.2657 737.666 59.3587 744.448 52.4907C758.983 40.2317 773.08 60.1547 774.586 73.8957C776.224 79.9707 780.916 80.6857 785.47 76.7777C794.547 67.2937 807.834 77.6277 807.788 90.3087Z" fill="white"/>
<path d="M501.947 282.872C511.065 284.612 519.581 286.929 527.682 280.671C528.294 280.22 529.793 280.07 530.196 280.47C532.029 283.824 527.712 287.307 524.774 288.265C519.573 290.337 501.877 290.851 501.947 282.872Z" fill="#8B51FF"/>
<path d="M497.992 227.273C500.867 227.712 503.223 227.981 505.537 228.455C509.398 228.962 508.614 235.252 504.365 234.266C499.904 233.415 495.508 233.304 491.058 234.24C489.536 234.56 488.208 234.008 487.837 232.338C487.187 227.769 495.39 228.453 497.992 227.273Z" fill="#8B51FF"/>
<path d="M517.712 260.121C519.719 267.184 508.54 269.466 506.251 263.816C505.653 262.1 506.638 260.14 508.72 260.503C511.919 261.513 514.659 261.952 517.712 260.121Z" fill="#8B51FF"/>
<path d="M576.21 236.614C575.439 233.899 576.407 230.996 573.345 229.602C570.248 228.07 573.105 225.067 575.583 226.385C578.941 228.252 579.321 233.309 576.21 236.614Z" fill="#8B51FF"/>
<path d="M519.666 293.584C518.623 296.975 513.767 297.742 513.435 293.879C513.369 292.715 516.051 291.464 517.596 291.965C518.462 292.246 519.128 293.143 519.666 293.584Z" fill="#8B51FF"/>
</svg>
