<svg width="960" height="960" viewBox="0 0 960 960" fill="none" xmlns="http://www.w3.org/2000/svg">
<path d="M308.78 130.101C315.092 121.718 327.005 120.041 335.387 126.353L539.746 280.256C548.128 286.569 549.806 298.481 543.494 306.864L333.288 585.985C332.623 586.867 331.369 587.044 330.487 586.379L137.311 440.899C115.253 424.286 110.837 392.937 127.45 370.879L308.78 130.101Z" fill="white"/>
<path d="M722.608 919.5C706 917.559 687.822 915.065 675.713 902.36C673.627 900.064 671.418 899.495 668.486 899.486C630.624 899.322 592.95 903.246 555.241 906.088C548.191 907.24 537.568 905.69 541.661 896.057C555.522 861.954 612.73 869.986 643.123 862.806C614.558 847.543 572.237 848.447 545.102 866.605C522.934 883.445 503.432 891.689 475.465 893.181C475.465 895.308 475.411 897.068 475.476 898.824C476.719 905.36 466.004 905.288 461.704 905.434C423.696 904.765 385.809 906.651 347.877 908.769C306.689 911.334 265.45 913.027 224.2 914.209C217.195 913.928 209.618 914.77 203.05 911.936C198.662 909.747 197.841 905.424 200.986 901.643C207.731 893.767 219.138 893.643 228.548 891.334C228.924 885.449 232.384 882.307 237.45 880.646C246.108 878.393 262.672 874.06 267.242 884.613C269.781 884.197 272.194 883.802 274.839 883.368C274.428 872.329 290.576 872.195 298.349 869.878C306.22 868.481 308.79 870.051 311.888 877.317C314.233 876.978 316.646 876.628 319.136 876.268C319.5 870.816 322.385 865.243 328.119 864.419C335.571 863.231 343.099 862.493 350.611 861.717C356.218 861.956 359.207 862.696 360.975 870.015C362.739 869.735 364.567 869.446 366.423 869.152C367.961 858.148 379.268 858.318 387.835 857.032C394.503 856.468 402.183 855.58 403.814 864.063C408.289 863.431 412.837 862.788 417.295 862.159C414.58 848.705 430.78 844.437 441.186 846.576C448.032 847.741 449.921 851.664 450.288 858.208C472.377 858.379 474.113 864.07 474.945 884.822C542.065 884.931 538.701 828.519 630.067 849.145C670.999 863.554 636.428 864.559 690.754 860.654C712.296 859.199 733.821 857.399 755.282 855.026C767.266 854.251 773.59 843.705 779.077 834.342C734.23 809.717 733.441 764.771 760.202 725.618C728.599 681.474 756.639 616.415 717.469 576.292C712.07 582.633 711.703 582.79 705.427 581.364C697.046 640.525 685.174 699.08 675.195 757.984C673.415 766.814 674.71 777.31 666.36 783.124C658.675 788.794 641.23 804.808 635.896 788.958C636.838 726.859 657.372 666.425 666.465 605.076C599.251 607.422 523.164 588.777 481.3 532.423C473.672 521.276 471.826 510.783 480.687 499.572C465.011 486.043 445.679 475.073 436.354 455.945C404.883 501.015 374.13 546.571 340.45 590.131C336.422 595.564 333.821 596.595 327.845 593.444C257.589 549.416 199.155 488.831 135.722 435.825C129.724 430.564 123.994 424.997 117.968 419.769C113.348 415.761 112.17 410.809 113.638 405.238C117.345 391.966 124.339 379.887 132 368.522C189.193 282.626 250.79 199.862 311.851 116.707C319.596 104.896 330.75 115.79 338.741 121.196C413.305 173.39 484.094 230.462 551.34 291.784C558.742 297.437 553.227 305.034 549.117 310.939C538.036 328.332 524.134 343.492 515.866 362.699C529.614 380.789 527.153 399.058 516.471 417.948C515.595 420.091 515.029 422.388 514.568 424.665C513.603 430.243 520.062 432.359 523.455 435.894C535.844 420.999 542.906 426.303 554.864 437.824C592.034 465.708 636.749 490.909 684.653 488.296C700.497 408.478 714.226 328.216 720.964 247.057C722.497 237.528 722.703 205.049 737.915 211.026C770.633 225.709 755.564 248.354 752.066 275.299C748.532 295.47 745.131 315.666 741.88 335.885C742.632 357.044 744.458 378.687 753.681 398.125C772.196 440.882 797.335 480.638 810.387 525.718C825.296 580.219 825.282 637.712 824.295 693.833C864.233 697.537 853.586 754.019 820.113 758.708C818.388 784.697 816.424 810.699 811.358 836.092C832.342 842.5 862.874 842.531 872.451 865.396C874.025 869.207 876.383 870.853 880.342 871.309C897.228 874.552 915.527 871.831 920.786 892.263C921.873 898.493 917.794 903.832 911.402 903.98C900.231 904.576 889.236 906.066 878.019 904.995C873.996 913.03 864.887 916.847 856.3 916.849C843.659 917.015 830.997 917.455 818.378 916.937C791.679 916.091 764.744 915.158 738.298 919.499C733.067 919.5 727.837 919.5 722.608 919.5ZM546.631 299.156C474.829 235.276 400.986 172.8 320.494 120.309C258.817 203.102 197.702 286.303 140.256 372.108C133.016 382.799 126.339 393.993 122.424 406.364C121.471 409.207 122.077 411.598 124.497 413.729C130.172 418.728 135.559 424.054 141.234 429.055C204.655 481.809 262.207 543.327 332.572 586.865C369.653 541.129 400.597 490.039 435.991 444.666C445.012 431.403 455.756 418.969 459.664 403.038C464.427 388.845 455.027 379.336 446.74 369.09C434.957 354.096 415.587 317.465 444.819 310.833C467.458 310.613 492.674 340.415 508.784 354.637C521.382 336.168 533.905 317.812 546.631 299.156ZM683.011 495.787C639.504 497.784 600.684 476.992 564.671 454.969C556.831 465.014 510.466 542.501 508.111 549.435C541.767 579.767 615.673 602.357 667.209 596.17C672.519 562.438 677.727 529.35 683.011 495.787ZM734.461 217.789C728.032 236.277 728.666 256.457 726.2 275.723C716.313 379.447 692.024 480.875 677.245 583.884C668.465 650.302 650.028 714.922 642.313 781.523C641.985 783.838 641.888 786.129 643.623 788.659C653.312 785.982 660.595 778.393 667.985 771.919C691.446 631.974 714.499 491.915 733.415 351.236C736.496 330.855 739.576 310.469 743.041 290.152C745.72 274.442 749.046 258.844 751.988 243.178C754.143 231.703 746.523 220.517 734.461 217.789ZM813.112 750.794C821.517 645.691 823.065 537.567 767.653 443.857C754.84 420.155 743.845 395.475 736.728 369.659C731.514 407.494 726.396 444.626 721.385 480.991C806.165 545.374 794.495 651.716 797.84 746.561C801.975 748.975 806.306 750.208 813.112 750.794ZM720.052 490.596C716.533 511.414 713.155 531.396 709.788 551.317C717.535 554.966 722.832 559.502 719.627 568.65C764.597 606.158 735.466 673.728 765.174 718.882C772.417 711.266 778.529 702.674 788.732 699.719C788.571 625.308 785.15 539.51 720.052 490.596ZM519.349 441.444C507.795 433.061 504.129 431.898 508.576 416.815C520.079 393.091 523.102 381.729 503.568 360.961C494.448 352.062 442.153 296.944 437.841 328.635C438.616 342.18 446.156 354.314 454.123 364.908C461.374 374.039 470.431 383.365 469.016 395.951C459.076 461.49 408.653 432.564 485.402 492.155C496.753 475.197 507.958 458.458 519.349 441.444ZM797.726 755.5C795.203 790.362 798.656 858.627 752.092 863.275C722.087 865.593 692.647 868.298 662.542 870.347C666.941 877.203 670.751 883.117 674.924 889.882C677.585 894.123 683.489 891.073 687.603 891.719C749.398 890.482 811.085 891.666 872.701 896.876C873.659 889.714 872.212 883.26 869.539 876.82C850.652 872.445 832.213 866.548 813.957 860.103C803.373 856.787 801.118 850.226 803.188 839.82C808.281 813.129 811.099 786.056 812.526 758.945C807.536 757.783 802.885 756.7 797.726 755.5ZM208.518 905.648C295.304 906.438 382.411 896.887 469.003 896.76C467.014 856.635 469.049 864.627 424.655 868.015C355.659 877.676 286.608 887.319 218.179 900.512C214.692 901.181 211.31 902.333 208.518 905.648ZM559.841 451.452C553.308 446.373 547.351 441.741 541.393 437.111C537.953 434.438 536.677 434.342 533.681 437.607C530.72 440.834 527.915 444.265 525.474 447.897C512.521 467.164 499.838 486.613 486.765 505.798C482.485 512.079 482.417 517.863 486.208 524.176C490.974 531.363 495.674 539.206 502.776 544.193C520.343 512.423 539.399 481.77 559.841 451.452ZM781.159 825.917C785.765 818.981 794.438 753.41 787.46 750.31C779.031 745.815 772.193 739.351 765.58 732.586C742.395 764.089 743.866 806.148 781.159 825.917ZM548.7 899.125C588.271 895.584 627.458 892.783 667.134 891.828C663.41 885.995 659.901 880.764 656.678 875.362C654.413 871.567 651.425 870.468 647.088 870.954C621.372 876.548 557.629 870.495 548.7 899.125ZM869.406 904.954C869.24 904.67 869.075 904.385 868.909 904.101C807.563 898.107 746.083 897.877 684.434 899.727C709.851 918.699 743.74 909.38 773.033 909.101C794.881 906.871 856.08 915.804 869.406 904.954ZM820.66 750.252C844.528 748.786 853.463 700.728 823.473 702.381C822.539 718.266 821.603 734.207 820.66 750.252ZM913.08 896.163C913.357 889.664 908.555 883.477 902.529 882.393C894.658 881.015 886.644 880.091 878.761 878.831C879.461 885.276 880.118 891.321 880.815 897.735C891.621 898.709 902.413 898.09 913.08 896.163ZM810.701 843.587C809.563 849.074 810.319 850.879 815.609 852.59C832.109 857.304 848.367 864.103 865.113 867.317C862.278 860.185 856.089 855.856 849.161 853.581C836.54 849.564 823.683 846.24 810.701 843.587ZM790.06 743.063C790.041 730.528 790.397 719.009 789.206 706.793C781.272 712.102 775.556 718.568 770.044 725.662C775.578 732.534 781.854 738.079 790.06 743.063ZM423.407 861.238C430.361 860.449 436.911 859.705 443.45 858.963C442.987 854.119 442.667 853.572 438.767 853.342C432.491 853.293 424.497 852.879 423.407 861.238ZM326.49 875.084C331.449 874.325 336.049 873.769 340.584 872.886C344.977 872.031 349.611 872.19 353.823 869.904C348.632 866.778 337.343 870.671 331.039 871.014C329.167 871.309 327.376 872.177 326.49 875.084ZM282.261 881.665C289.949 880.773 297.629 879.961 305.281 878.052C304.362 872.035 285.504 879.282 282.261 881.665ZM236.602 889.53C241.372 889.634 257.177 886.521 258.789 885.16C250.214 883.548 239.643 885.63 236.602 889.53ZM376.008 867.557C381.764 867.901 395.251 865.702 397.265 864.091C392.962 862.661 379.307 864.887 376.008 867.557Z" fill="#8B51FF"/>
<path d="M260.193 40.5C262.121 41.622 263.58 43.062 264.565 45.185C271.535 61.928 281.885 77.735 286.48 95.271C286.563 99.904 279.791 99.095 278.825 95.404C271.518 80.163 264.226 64.915 256.932 49.668C254.848 45.369 254.54 43.493 258.541 40.501C259.092 40.5 259.643 40.5 260.193 40.5Z" fill="#8B51FF"/>
<path d="M443.928 662.12C441.669 669.78 435.949 663.903 433.5 659.888C420.535 637.088 406.019 615.084 394.646 591.432C393.411 588.777 391.985 584.621 395.437 583.033C397.247 582.171 398.966 582.588 400.292 584.086C413.1 611.021 432.163 634.717 443.928 662.12Z" fill="#8B51FF"/>
<path d="M247.205 606.163C246.426 617.025 245.421 629.486 244.677 641.964C244.203 649.916 244.154 657.893 243.825 665.855C243.645 668.89 243.107 673.431 239.157 673.336C235.83 673.445 234.594 669.892 234.739 667.083C235.224 655.832 235.619 644.573 236.328 633.335C237.78 616.55 237.941 599.489 240.437 582.861C241.484 578.887 247.812 579.401 248.071 583.57C248.236 591.025 247.482 597.286 247.205 606.163Z" fill="#8B51FF"/>
<path d="M118.737 142.801C127.042 148.168 133.972 156.751 141.571 163.22C150.686 171.784 160.35 179.798 169.273 188.552C173.437 194.152 166.334 197.15 162.439 192.579C146.814 179.735 131.57 166.462 116.888 152.545C112.914 149.522 111.18 142.759 118.737 142.801Z" fill="#8B51FF"/>
<path d="M44.1142 318.945C51.8512 321.228 104.717 344.023 100.726 351.792C97.6102 358.4 82.4082 345.438 77.6422 343.78C65.9582 336.752 52.9732 332.287 40.8902 326.222C37.2432 323.755 39.3372 318.724 44.1142 318.945Z" fill="#8B51FF"/>
<path d="M76.119 503.858C69.223 503.682 70.876 497.205 75.002 494.892C88.074 486.493 101.201 478.178 114.32 469.852C116.37 468.494 119.306 467.87 120.994 470.168C123.352 473.171 119.887 476.454 117.228 477.977C103.521 486.305 90.416 496.791 76.119 503.858Z" fill="#8B51FF"/>
<path d="M381.454 117.494C386.473 99.9361 394.211 83.5891 401.535 66.9471C403.017 63.6451 405.362 62.4781 407.605 63.4981C409.837 64.5121 410.375 66.9991 408.954 70.3341C402.393 85.7341 395.807 101.123 389.209 116.507C387.535 121.248 383.81 122.548 381.454 117.494Z" fill="#8B51FF"/>
<path d="M549.19 249.25C556.167 236.699 568.013 227.064 576.991 215.851C578.855 213.959 582.11 211.621 584.428 214.175C585.599 215.404 585.786 216.922 584.947 218.351C577.862 228.066 568.935 236.385 561.174 245.577C559.17 247.827 557.407 250.291 555.417 252.554C553.021 255.478 548.255 253.28 549.19 249.25Z" fill="#8B51FF"/>
<path d="M586.215 324.545C591.68 325.221 624.418 328.469 610.15 337.44C601.402 336.465 592.437 333.725 583.671 332.178C578.448 330.365 581.18 323.758 586.215 324.545Z" fill="#8B51FF"/>
<path d="M683.011 495.788C677.727 529.351 672.519 562.44 667.209 596.17C615.725 602.372 541.713 579.749 508.111 549.435C510.466 542.502 556.831 465.015 564.671 454.969C600.682 476.992 639.508 497.786 683.011 495.788Z" fill="#8B51FF"/>
<path d="M734.461 217.789C746.523 220.517 754.144 231.703 751.989 243.178C749.047 258.844 745.721 274.443 743.042 290.152C739.576 310.47 736.497 330.855 733.418 351.237C714.5 491.916 691.447 631.975 667.986 771.92C660.596 778.393 653.312 785.983 643.624 788.66C641.889 786.13 641.985 783.838 642.313 781.524C650.029 714.921 668.466 650.303 677.247 583.885C692.025 480.877 716.314 379.447 726.2 275.724C728.666 256.453 728.031 236.278 734.461 217.789Z" fill="white"/>
<path d="M813.112 750.795C806.306 750.208 801.975 748.976 797.841 746.562C794.431 651.457 806.282 545.638 721.386 480.992C726.398 444.628 731.515 407.495 736.729 369.66C743.847 395.481 754.84 420.151 767.658 443.857C823.068 537.573 821.517 645.698 813.112 750.795Z" fill="white"/>
<path d="M519.349 441.442C507.959 458.457 496.753 475.195 485.401 492.154C408.631 432.532 459.087 461.502 469.017 395.95C470.432 383.364 461.374 374.038 454.123 364.907C446.155 354.312 438.616 342.178 437.841 328.634C442.143 296.909 494.479 352.114 503.568 360.959C523.1 381.747 520.087 393.063 508.575 416.813C504.106 431.974 507.848 433.065 519.349 441.442Z" fill="white"/>
<path d="M797.726 755.5C802.884 756.7 807.536 757.783 812.527 758.945C811.1 786.056 808.282 813.128 803.188 839.82C801.124 850.225 803.369 856.787 813.958 860.103C832.214 866.548 850.653 872.446 869.54 876.82C872.213 883.26 873.66 889.715 872.702 896.876C811.086 891.666 749.398 890.482 687.604 891.72C683.466 891.074 677.609 894.122 674.925 889.883C670.753 883.115 666.95 877.208 662.543 870.348C692.642 868.3 722.091 865.593 752.091 863.275C798.666 858.604 795.192 790.42 797.726 755.5Z" fill="white"/>
<path d="M208.518 905.648C211.309 902.333 214.692 901.182 218.18 900.511C286.609 887.318 355.66 877.675 424.656 868.015C469.017 864.639 467.018 856.607 469.003 896.76C382.409 896.886 295.306 906.438 208.518 905.648Z" fill="white"/>
<path d="M559.841 451.452C539.399 481.77 520.343 512.423 502.776 544.193C495.672 539.213 490.977 531.357 486.208 524.177C482.418 517.863 482.485 512.08 486.766 505.798C499.839 486.614 512.522 467.164 525.475 447.897C527.916 444.265 530.722 440.834 533.682 437.607C536.678 434.341 537.954 434.437 541.394 437.111C547.351 441.741 553.308 446.373 559.841 451.452Z" fill="white"/>
<path d="M548.7 899.124C557.707 870.452 621.337 876.569 647.088 870.951C651.425 870.467 654.413 871.565 656.678 875.361C659.901 880.763 663.41 885.994 667.134 891.827C627.456 892.782 588.273 895.582 548.7 899.124Z" fill="white"/>
<path d="M913.08 896.164C902.413 898.091 891.621 898.71 880.815 897.736C880.118 891.322 879.461 885.276 878.761 878.832C886.644 880.092 894.658 881.016 902.529 882.394C908.555 883.478 913.357 889.665 913.08 896.164Z" fill="white"/>
<path d="M423.407 861.238C424.497 852.879 432.491 853.293 438.767 853.342C442.667 853.573 442.987 854.119 443.45 858.963C436.911 859.705 430.361 860.448 423.407 861.238Z" fill="white"/>
<path d="M326.49 875.083C327.376 872.176 329.166 871.308 331.04 871.014C337.378 870.67 348.583 866.775 353.824 869.903C349.612 872.189 344.978 872.03 340.585 872.885C336.049 873.768 331.45 874.325 326.49 875.083Z" fill="white"/>
<path d="M282.261 881.664C285.43 879.314 304.377 872.022 305.281 878.051C297.629 879.96 289.949 880.772 282.261 881.664Z" fill="white"/>
<path d="M236.602 889.528C239.643 885.628 250.214 883.546 258.789 885.158C257.177 886.52 241.372 889.632 236.602 889.528Z" fill="white"/>
<path d="M376.008 867.558C379.307 864.888 392.962 862.662 397.265 864.092C395.251 865.703 381.764 867.902 376.008 867.558Z" fill="white"/>
<path d="M403.049 232.41C404.405 230.887 405.368 229.524 406.621 228.526C408.558 227.351 410.197 228.845 409.587 230.966C408.971 233.028 407.266 233.412 403.049 232.41Z" fill="white"/>
<path d="M227.092 393.805C227.365 394.367 227.419 394.971 227.254 395.615C227.089 396.26 226.969 396.861 226.893 397.419C226.52 397.904 226.114 398.275 225.674 398.532C225.287 398.807 224.89 399.152 224.483 399.566C224.325 399.687 224.191 399.904 224.083 400.217C223.784 400.318 223.444 400.332 223.06 400.258C222.694 400.218 222.353 400.232 222.038 400.298C221.583 400.345 221.031 400.505 220.381 400.777C219.767 401.032 219.242 401.07 218.807 400.89C218.077 400.637 217.339 400.192 216.595 399.554C215.887 398.9 215.205 398.167 214.55 397.355C213.931 396.527 213.355 395.699 212.823 394.872C212.309 393.993 211.89 393.219 211.566 392.552C211.02 391.427 210.544 390.269 210.139 389.076C209.733 387.883 209.415 386.692 209.184 385.501L209.056 385.238C208.971 385.062 208.902 384.921 208.851 384.816C208.818 384.658 208.759 384.492 208.673 384.316C208.622 384.21 208.554 384.114 208.467 384.025C208.416 383.92 208.321 383.858 208.181 383.839C208.075 382.457 207.828 381.1 207.442 379.768C207.055 378.436 206.616 377.129 206.124 375.848C205.651 374.515 205.185 373.199 204.729 371.901C204.29 370.551 203.939 369.202 203.675 367.854C203.537 367.66 203.391 367.448 203.236 367.22C203.117 366.974 203.006 366.745 202.904 366.534C202.596 365.902 202.368 365.253 202.218 364.587C202.052 363.887 201.824 363.194 201.535 362.509C201.468 362.281 201.365 362.07 201.228 361.877C201.073 361.648 200.936 361.41 200.817 361.164C200.066 359.618 199.402 358.073 198.826 356.529C198.285 354.968 197.648 353.432 196.914 351.921C196.521 351.113 196.075 350.374 195.577 349.704C195.096 348.983 194.668 348.235 194.292 347.462C194.121 347.111 193.977 346.768 193.858 346.435C193.723 346.067 193.675 345.699 193.714 345.333C194.231 344.43 195.017 343.723 196.071 343.211C196.844 342.836 197.614 342.722 198.381 342.871C198.38 342.958 198.413 343.072 198.482 343.213C198.567 343.388 198.661 343.538 198.765 343.662C198.868 343.785 198.962 343.935 199.048 344.11L199.15 344.321C199.184 344.391 199.201 344.47 199.2 344.558C199.651 344.86 200.031 345.24 200.34 345.698C200.667 346.103 200.95 346.552 201.189 347.044C201.411 347.501 201.615 347.966 201.802 348.44C201.972 348.878 202.167 349.326 202.389 349.783C202.696 350.415 203.003 351.048 203.311 351.68C203.653 352.296 203.978 352.92 204.285 353.552C205.104 355.239 205.827 356.951 206.453 358.687C207.098 360.372 207.794 362.075 208.543 363.795C209.173 365.27 209.662 366.769 210.011 368.293C210.396 369.8 210.877 371.282 211.454 372.739C211.555 373.037 211.674 373.327 211.811 373.608C211.965 373.837 212.119 374.109 212.273 374.425C212.665 375.234 212.9 376.119 212.976 377.08C213.035 378.007 213.278 378.909 213.705 379.788C213.91 380.21 214.159 380.544 214.453 380.792C214.515 381.457 214.646 382.218 214.846 383.077C215.081 383.918 215.333 384.794 215.602 385.706C215.889 386.565 216.194 387.416 216.516 388.259C216.821 389.066 217.119 389.768 217.409 390.365C217.818 391.209 218.342 392.018 218.979 392.794C219.6 393.535 220.327 394.138 221.16 394.601C221.562 394.536 222.01 394.384 222.502 394.145C222.994 393.906 223.494 393.685 224.003 393.481C224.512 393.277 225.011 393.143 225.501 393.079C225.991 393.015 226.444 393.142 226.86 393.462C226.929 393.515 226.981 393.577 227.015 393.647L227.092 393.805ZM280.924 322.779L280.713 322.882C280.626 322.881 280.556 322.915 280.503 322.984C280.449 323.053 280.44 323.123 280.474 323.193C280.681 323.44 280.81 323.617 280.861 323.722C281.066 324.144 281.104 324.581 280.977 325.034C280.867 325.434 280.864 325.74 280.966 325.951C281.018 326.056 281.113 326.118 281.252 326.137C281.427 326.139 281.558 326.141 281.646 326.142C281.572 326.438 281.525 326.743 281.504 327.057C281.483 327.372 281.427 327.659 281.337 327.92C282.004 329.116 282.734 330.26 283.525 331.352C284.334 332.392 285.028 333.51 285.609 334.704C285.899 335.302 286.119 335.933 286.268 336.599C286.436 337.212 286.594 337.852 286.744 338.517C286.876 339.148 287.018 339.796 287.167 340.461C287.335 341.075 287.564 341.68 287.854 342.278C287.841 343.413 287.775 344.53 287.658 345.63C287.523 346.694 287.572 347.777 287.804 348.881C287.235 349.765 286.83 350.721 286.591 351.749C286.371 352.725 286.15 353.701 285.929 354.677C284.904 355.696 284.052 356.804 283.375 358.002C283.216 358.122 283.066 358.217 282.926 358.285L282.504 358.49C281.169 359.138 279.908 359.447 278.72 359.416C277.532 359.384 276.399 359.153 275.321 358.721C274.261 358.237 273.238 357.605 272.251 356.825C271.264 356.045 270.295 355.213 269.345 354.328C268.827 355.318 268.421 356.362 268.129 357.459C267.855 358.504 267.563 359.558 267.254 360.62C267.18 361.003 267.079 361.465 266.95 362.005C266.84 362.493 266.686 362.893 266.491 363.205C266.384 363.344 266.26 363.491 266.119 363.647C265.995 363.75 265.863 363.88 265.721 364.035C265.01 365.075 264.604 366.206 264.503 367.428C263.937 368.05 263.405 368.699 262.908 369.375C262.446 370.033 262.01 370.701 261.601 371.378C260.95 371.737 260.308 372.114 259.675 372.509C259.059 372.851 258.435 373.176 257.803 373.483C256.819 373.961 256.091 374.249 255.618 374.349C255.163 374.396 254.77 374.391 254.439 374.335C254.126 374.227 253.778 374.092 253.395 373.93C253.048 373.751 252.481 373.657 251.695 373.648C251.298 373.277 250.9 372.905 250.503 372.534C250.14 372.145 249.725 371.826 249.256 371.576L248.897 370.838C248.744 370.522 248.581 370.232 248.409 369.968C248.273 369.687 248.101 369.466 247.893 369.307C247.668 369.112 247.416 369.039 247.136 369.088C246.504 367.788 246.039 366.429 245.741 365.01C245.443 363.592 245.084 362.181 244.663 360.779C244.48 359.956 244.219 359.149 243.879 358.359C243.828 358.166 243.752 357.964 243.65 357.753C243.547 357.543 243.48 357.315 243.448 357.07C243.416 356.825 243.454 356.589 243.561 356.364C243.668 356.138 243.689 355.867 243.623 355.552C243.56 354.975 243.4 354.379 243.145 353.764C242.89 353.15 242.67 352.562 242.484 352.001C242.148 350.862 241.829 349.714 241.528 348.557C241.262 347.383 241.04 346.21 240.861 345.038C240.741 344.879 240.646 344.73 240.578 344.589L240.322 344.062C239.674 342.727 239.13 341.384 238.692 340.034C238.288 338.666 237.762 337.315 237.114 335.98C236.806 335.347 236.429 334.705 235.983 334.054C235.988 333.617 236.027 333.207 236.102 332.823C236.194 332.388 236.391 331.988 236.692 331.625C237.618 331.653 238.543 331.725 239.467 331.84C240.41 331.904 241.343 332.037 242.267 332.239L242.881 333.504C243.376 334.523 243.87 335.63 244.363 336.823C244.874 337.965 245.323 339.158 245.71 340.403C246.133 341.631 246.486 342.849 246.769 344.058C247.052 345.266 247.205 346.43 247.227 347.548L248.046 349.235C247.959 350.666 248.109 352.048 248.496 353.381C248.882 354.713 249.234 356.062 249.55 357.428C249.667 357.849 249.749 358.374 249.794 359.004C249.839 359.633 249.955 360.141 250.143 360.527C250.228 360.703 250.331 360.87 250.452 361.029C250.607 361.171 250.745 361.321 250.866 361.479C250.892 362.248 251.067 363.01 251.39 363.765C251.731 364.468 251.985 365.213 252.15 366.001C252.653 366.322 253.138 366.694 253.605 367.119C254.09 367.491 254.601 367.873 255.138 368.263L255.639 367.955C255.955 367.801 256.306 367.674 256.692 367.574C257.06 367.438 257.403 367.294 257.719 367.14C257.895 367.055 258.07 366.969 258.246 366.884C258.405 366.764 258.563 366.643 258.722 366.523C258.745 366.034 258.881 365.599 259.13 365.217C259.362 364.8 259.611 364.419 259.877 364.073C260.178 363.709 260.436 363.345 260.649 362.981C260.898 362.599 261.034 362.164 261.058 361.675L261.795 361.317C261.815 361.177 261.869 360.977 261.96 360.716C262.085 360.438 262.193 360.168 262.283 359.907C262.374 359.646 262.429 359.403 262.449 359.176C262.504 358.932 262.489 358.766 262.402 358.677C262.739 358.297 262.979 357.898 263.124 357.48C263.286 357.01 263.431 356.549 263.559 356.096C263.669 355.608 263.788 355.138 263.916 354.685C264.043 354.232 264.249 353.807 264.533 353.408C264.464 353.355 264.404 353.276 264.353 353.17C264.199 352.854 264.167 352.565 264.258 352.304C264.383 352.026 264.282 351.684 263.955 351.279L264.139 351.255C264.315 351.169 264.412 351.057 264.431 350.917C264.45 350.778 264.443 350.629 264.41 350.472C264.412 350.297 264.423 350.14 264.442 350C264.479 349.809 264.577 349.653 264.735 349.532L264.684 349.427C264.377 348.794 264.21 348.137 264.183 347.455C264.191 346.757 264.041 346.091 263.734 345.459C263.649 345.283 263.554 345.133 263.451 345.01C263.33 344.851 263.192 344.701 263.037 344.56C263.182 344.055 263.179 343.557 263.028 343.066C262.911 342.558 262.734 342.058 262.495 341.566C262.291 341.057 262.087 340.548 261.883 340.039C261.68 339.53 261.59 338.987 261.614 338.411C261.443 338.06 261.201 337.873 260.887 337.852L261.11 336.702C261.184 336.318 261.319 335.971 261.515 335.658L261.62 335.607C262.007 335.419 262.392 335.363 262.775 335.437C263.177 335.459 263.56 335.533 263.926 335.66C264.309 335.734 264.701 335.826 265.102 335.936C265.485 336.01 265.878 336.014 266.281 335.949L266.844 337.109C267.264 337.079 267.647 337.197 267.993 337.463C268.419 338.428 268.844 339.394 269.27 340.36C269.731 341.309 270.183 342.24 270.626 343.153C271.309 344.559 272.027 345.947 272.78 347.319C273.516 348.655 274.357 349.94 275.303 351.174C275.878 351.373 276.452 351.571 277.026 351.77C277.636 351.952 278.165 352.238 278.615 352.627L279.247 352.32C280.477 351.723 281.238 350.875 281.53 349.778C281.805 348.646 281.828 347.484 281.597 346.294C282.004 345.792 282.229 345.27 282.27 344.729C282.329 344.136 282.301 343.541 282.186 342.946C282.105 342.334 281.99 341.738 281.839 341.16C281.707 340.53 281.679 339.935 281.755 339.377C281.585 338.938 281.398 338.508 281.193 338.086L280.553 336.769C279.564 334.731 278.477 332.762 277.293 330.861C276.128 328.909 275.041 326.939 274.033 324.954C273.756 324.741 273.489 324.458 273.231 324.106L272.509 323.023C272.287 322.654 272.028 322.345 271.734 322.097C271.458 321.797 271.163 321.636 270.849 321.615C270.783 321.212 270.631 320.765 270.392 320.273C270.17 319.816 269.896 319.385 269.569 318.98C269.277 318.557 268.967 318.143 268.64 317.737C268.801 317.355 268.91 316.998 268.966 316.667C269.023 316.335 269.262 316.067 269.683 315.862C269.929 315.743 270.174 315.711 270.418 315.766C270.697 315.804 270.967 315.868 271.228 315.959C271.489 316.049 271.742 316.122 271.986 316.177C272.265 316.215 272.545 316.166 272.826 316.03C272.896 315.996 272.966 315.961 273.037 315.927C273.125 315.841 273.222 315.772 273.327 315.721C273.849 315.902 274.344 316.204 274.811 316.629C275.313 317.037 275.796 317.497 276.262 318.009C276.746 318.468 277.23 318.928 277.714 319.388C278.233 319.831 278.779 320.195 279.352 320.481C279.403 320.587 279.437 320.701 279.453 320.823C279.487 320.893 279.53 320.981 279.581 321.087C279.735 321.403 279.941 321.694 280.2 321.959C280.459 322.224 280.7 322.497 280.924 322.779ZM336.366 332.721C336.499 333.265 336.467 333.78 336.269 334.266C336.09 334.701 335.814 335.117 335.443 335.515C335.071 335.912 334.656 336.266 334.199 336.575C333.759 336.832 333.346 337.054 332.959 337.242C332.784 337.327 332.608 337.413 332.432 337.498C332.275 337.531 332.108 337.59 331.932 337.676C331.757 337.761 331.711 337.891 331.797 338.067C331.882 338.243 331.854 338.408 331.712 338.564C331.503 338.579 331.301 338.612 331.109 338.662C330.916 338.712 330.732 338.78 330.556 338.865C330.31 338.985 330.072 339.122 329.844 339.276C329.65 339.414 329.447 339.534 329.237 339.636C328.956 339.773 328.728 339.84 328.553 339.838C328.413 339.819 328.274 339.8 328.134 339.781C328.013 339.709 327.874 339.647 327.717 339.592C327.596 339.521 327.43 339.493 327.22 339.508C326.923 339.522 326.704 339.607 326.562 339.763C326.456 339.901 326.176 339.907 325.723 339.779C325.131 339.632 324.557 339.39 324.002 339.052C323.465 338.661 322.92 338.253 322.365 337.827C321.811 337.402 321.24 336.985 320.65 336.576C320.061 336.167 319.453 335.855 318.827 335.638L318.405 335.842C317.773 336.15 317.461 336.626 317.471 337.273C317.244 337.253 317.009 337.215 316.765 337.16C316.504 337.07 316.243 337.023 315.981 337.02C315.292 337.658 314.551 338.279 313.758 338.881C312.965 339.483 312.129 339.998 311.25 340.425L310.513 340.783C310.302 340.885 310.056 340.961 309.776 341.01C309.493 341.322 309.262 341.651 309.083 341.998C308.888 342.31 308.614 342.552 308.263 342.722C308.052 342.825 307.772 342.874 307.422 342.87C307.212 342.972 307.149 343.111 307.234 343.287C307.355 343.446 307.292 343.585 307.046 343.704L306.572 343.935C306.08 344.174 305.596 344.43 305.121 344.704C304.682 344.961 304.216 345.209 303.724 345.448C303.056 345.772 302.329 346.017 301.54 346.183C301.416 346.373 301.248 346.52 301.037 346.622C300.931 346.761 300.885 346.935 300.9 347.145C300.898 347.32 300.896 347.494 300.894 347.669C300.875 347.809 300.821 347.965 300.732 348.139C300.66 348.26 300.511 348.355 300.283 348.422C300.417 348.878 300.404 349.297 300.242 349.679C300.081 350.062 300.119 350.499 300.358 350.991C300.074 351.389 299.886 351.807 299.793 352.242C299.701 352.678 299.617 353.131 299.542 353.602C299.467 354.073 299.365 354.535 299.238 354.987C299.145 355.423 298.949 355.823 298.647 356.186C298.574 356.482 298.683 356.842 298.976 357.264C298.743 357.768 298.405 358.28 297.962 358.799C297.519 359.318 297.052 359.697 296.56 359.936C295.541 360.431 294.574 360.227 293.658 359.326C293.488 358.974 293.344 358.588 293.226 358.168C293.056 357.729 292.939 357.308 292.874 356.906C292.791 356.468 292.787 356.057 292.862 355.674C292.919 355.255 293.107 354.882 293.425 354.554C293.271 354.237 293.064 354.078 292.802 354.075C292.523 354.037 292.324 353.851 292.205 353.518C292.932 352.6 293.468 351.602 293.812 350.522C294.157 349.443 294.414 348.363 294.583 347.282C294.771 346.148 294.959 345.015 295.147 343.882C295.334 342.748 295.635 341.668 296.049 340.642L295.511 339.536C296.019 337.899 296.09 336.302 295.724 334.742C296.076 334.484 296.237 334.189 296.206 333.857C296.21 333.508 296.118 333.14 295.93 332.753C296.106 332.668 296.177 332.546 296.144 332.389C296.129 332.179 296.261 332.049 296.541 332C296.448 331.003 296.424 330.06 296.469 329.169C296.514 328.279 296.56 327.388 296.605 326.498C296.633 325.572 296.6 324.655 296.506 323.745C296.446 322.818 296.257 321.847 295.936 320.83C296.411 320.556 296.564 320.199 296.394 319.761C296.243 319.27 296.117 318.831 296.016 318.446C296.304 317.698 296.409 316.93 296.331 316.143C296.288 315.339 296.201 314.535 296.071 313.729C295.923 312.889 295.802 312.058 295.706 311.236C295.629 310.361 295.7 309.524 295.919 308.722L295.842 308.564C295.757 308.389 295.635 308.317 295.478 308.35C295.303 308.348 295.173 308.26 295.088 308.084C295.106 308.032 295.106 307.988 295.089 307.953C295.425 307.572 295.605 307.138 295.628 306.649C295.634 306.125 295.805 305.673 296.142 305.292C297.17 305.531 297.999 305.584 298.629 305.452C299.243 305.284 300.023 305.014 300.971 304.64C301.667 304.91 302.203 305.388 302.579 306.074C302.974 306.707 303.421 307.315 303.921 307.897C304.748 308.885 305.584 309.847 306.43 310.783C307.293 311.666 308.086 312.628 308.807 313.667C309.237 314.283 309.737 314.822 310.309 315.283C310.88 315.743 311.372 316.264 311.784 316.846C312.094 317.303 312.367 317.866 312.603 318.532C312.823 319.164 313.15 319.657 313.582 320.011L314.361 320.675C314.724 320.976 315.061 321.312 315.371 321.683C315.717 322.036 316.044 322.398 316.354 322.768C317.148 323.686 317.948 324.709 318.756 325.836C319.582 326.911 320.48 327.821 321.45 328.566C321.797 328.832 322.18 328.95 322.599 328.92C323.054 328.873 323.527 328.774 324.018 328.622C324.492 328.435 324.939 328.24 325.361 328.035C325.801 327.778 326.179 327.572 326.495 327.419L327.022 327.163C327.233 327.061 327.461 326.993 327.706 326.961C327.983 327.174 328.172 327.386 328.275 327.597C328.48 328.018 328.501 328.42 328.34 328.803C328.178 329.185 328.174 329.535 328.327 329.851C328.413 330.027 328.577 330.186 328.82 330.328C328.662 330.361 328.443 330.446 328.162 330.583C327.354 330.975 326.631 331.5 325.995 332.156C326.566 332.617 327.182 332.947 327.844 333.147C328.524 333.295 329.212 333.416 329.91 333.512C330.125 333.06 330.426 332.74 330.812 332.553C331.234 332.348 331.671 332.265 332.125 332.306C332.597 332.294 333.044 332.185 333.465 331.98C333.782 331.827 333.984 331.663 334.074 331.489C334.508 331.669 334.899 331.892 335.245 332.158C335.575 332.389 335.948 332.577 336.366 332.721ZM315.773 332.301C315.413 331.737 315.085 331.375 314.79 331.215C314.513 331.002 314.227 330.728 313.934 330.393C313.555 329.969 313.193 329.493 312.85 328.965C312.542 328.42 312.207 327.909 311.846 327.433C311.02 326.358 310.158 325.3 309.262 324.259C308.4 323.201 307.468 322.22 306.465 321.318C306.504 321.039 306.48 320.811 306.395 320.636L306.318 320.478C305.831 320.28 305.398 319.969 305.018 319.545C304.622 319.087 304.234 318.645 303.854 318.222C303.493 317.746 303.104 317.348 302.689 317.029C302.291 316.658 301.813 316.434 301.255 316.357C301.252 316.619 301.319 316.891 301.456 317.172C301.575 317.418 301.704 317.638 301.841 317.832C302.014 318.008 302.16 318.22 302.279 318.466C302.013 318.812 301.886 319.221 301.898 319.693C301.928 320.113 301.819 320.513 301.57 320.895C301.835 322.156 301.951 323.423 301.919 324.698C301.87 325.938 301.786 327.195 301.666 328.469C301.582 329.726 301.523 330.992 301.491 332.267C301.442 333.507 301.524 334.748 301.737 335.991C301.433 336.529 301.313 337.087 301.377 337.664C301.475 338.224 301.644 338.75 301.883 339.242C302.284 339.264 302.687 339.199 303.09 339.046C303.512 338.842 303.916 338.645 304.302 338.458C304.689 338.27 305.075 338.126 305.46 338.026C305.846 337.925 306.248 337.947 306.665 338.092C307.054 337.729 307.503 337.403 308.013 337.112C308.541 336.768 308.921 336.388 309.153 335.972C309.975 335.876 310.79 335.632 311.599 335.24C312.02 335.035 312.407 334.804 312.76 334.546C313.147 334.271 313.509 333.987 313.844 333.693C314.194 333.61 314.5 333.614 314.761 333.704C315.005 333.759 315.294 333.684 315.628 333.478C315.736 333.252 315.773 333.061 315.74 332.903C315.69 332.71 315.701 332.509 315.773 332.301ZM355.676 285.302C355.81 285.758 355.884 286.178 355.897 286.562C355.928 286.895 356.098 287.29 356.407 287.748C356.073 287.953 355.852 288.213 355.743 288.526C355.653 288.787 355.597 289.075 355.576 289.389C355.59 289.686 355.595 290.009 355.591 290.359C355.605 290.656 355.575 290.953 355.502 291.249C356.398 292.377 357.179 293.583 357.845 294.866C358.512 296.149 359.223 297.389 359.977 298.586C360.938 300.117 361.978 301.587 363.097 302.998C364.235 304.356 365.196 305.844 365.981 307.46C366.22 307.952 366.424 308.417 366.594 308.856C366.799 309.277 367.012 309.717 367.234 310.173C367.37 310.455 367.515 310.753 367.669 311.069C367.841 311.334 367.995 311.606 368.131 311.887C368.626 312.906 368.981 313.993 369.194 315.149C369.443 316.287 369.745 317.4 370.099 318.487C369.865 319.079 369.701 319.68 369.607 320.29C369.548 320.883 369.454 321.45 369.325 321.99C369.197 322.53 368.99 323.043 368.705 323.529C368.437 324.05 368.012 324.517 367.431 324.93C367.496 325.332 367.413 325.698 367.182 326.027C366.986 326.339 366.86 326.705 366.803 327.124L366.697 327.175C365.819 327.601 365.004 327.845 364.252 327.907C363.5 327.968 362.766 327.977 362.05 327.934C361.369 327.873 360.663 327.804 359.93 327.726C359.197 327.647 358.41 327.682 357.57 327.829C356.194 327.499 354.871 327.056 353.602 326.5C352.316 325.908 350.976 325.474 349.581 325.195C348.994 324.612 348.379 324.195 347.735 323.943C347.127 323.673 346.484 323.334 345.808 322.924C345.513 322.764 345.261 322.604 345.053 322.444C344.881 322.267 344.656 322.073 344.379 321.86C344.137 321.63 343.867 321.522 343.57 321.536C343.308 321.533 343.055 321.504 342.811 321.449C342.001 320.496 341.111 319.691 340.14 319.033C339.169 318.376 338.128 317.796 337.015 317.294C336.992 317.783 337.021 318.29 337.103 318.815C337.202 319.288 337.31 319.778 337.426 320.286C337.526 320.759 337.598 321.266 337.645 321.808C337.709 322.298 337.703 322.779 337.628 323.249L337.705 323.408C337.79 323.583 337.912 323.655 338.069 323.621C338.227 323.588 338.348 323.66 338.434 323.835C338.451 323.87 338.45 323.914 338.432 323.966C338.449 324.001 338.466 324.037 338.483 324.072C338.376 324.298 338.321 324.542 338.318 324.804C338.35 325.049 338.234 325.257 337.97 325.428C338.09 325.587 338.193 325.754 338.278 325.93L338.509 326.404C339.004 327.423 339.376 328.502 339.625 329.64C339.909 330.762 340.307 331.85 340.819 332.904L341.151 333.589C341.271 333.835 341.399 334.055 341.537 334.249C341.709 334.425 341.917 334.585 342.16 334.727C342.403 334.87 342.567 335.029 342.653 335.205C342.772 335.451 342.778 335.73 342.669 336.044C343 336.1 343.375 336.157 343.794 336.214C344.213 336.271 344.605 336.363 344.97 336.489C345.388 336.634 345.753 336.804 346.065 337C346.394 337.231 346.644 337.522 346.815 337.873C347.105 338.471 347.116 338.986 346.849 339.42C346.582 339.854 346.202 340.277 345.708 340.691C345.249 341.087 344.747 341.483 344.2 341.879C343.707 342.292 343.343 342.751 343.11 343.255L342.952 343.332C342.53 343.537 342.154 343.567 341.824 343.424C341.494 343.28 341.118 343.311 340.696 343.516C339.5 342.751 338.446 341.743 337.534 340.492C336.64 339.276 335.894 338.053 335.296 336.823C334.563 335.312 333.969 333.733 333.517 332.086C333.029 330.455 332.62 328.808 332.289 327.145C331.924 325.499 331.602 323.853 331.324 322.207C331.064 320.51 330.769 318.829 330.439 317.166L330.415 316.982C330.33 316.806 330.217 316.709 330.078 316.69C329.973 316.654 329.887 316.565 329.819 316.425C329.785 316.354 329.785 316.311 329.82 316.294C329.755 315.891 329.698 315.506 329.65 315.139C329.637 314.754 329.572 314.352 329.454 313.931C329.187 312.845 328.842 311.775 328.417 310.722C328.01 309.616 327.56 308.554 327.065 307.535C326.605 306.499 326.145 305.463 325.685 304.427C325.244 303.339 324.863 302.243 324.544 301.138C324.689 300.721 324.807 300.294 324.9 299.858C324.992 299.423 325.172 298.988 325.439 298.554C326.159 298.248 326.912 298.012 327.701 297.847C328.489 297.681 329.293 297.638 330.113 297.717C331.268 299.023 332.283 300.398 333.158 301.84C334.067 303.266 335.082 304.64 336.202 305.964L336.279 306.122C336.365 306.297 336.495 306.343 336.671 306.257C336.865 306.12 337.048 306.096 337.222 306.185C337.203 306.324 337.21 306.473 337.243 306.631C337.311 306.771 337.38 306.912 337.448 307.052L337.883 307.948C338.09 308.195 338.323 308.451 338.582 308.716C338.841 308.981 339.163 309.064 339.548 308.963C340.27 310.002 341.037 310.911 341.849 311.689C342.661 312.467 343.509 313.184 344.393 313.841C345.276 314.498 346.195 315.137 347.148 315.76C348.085 316.347 349.065 316.978 350.088 317.654C351.29 317.895 352.421 318.301 353.48 318.872C354.522 319.409 355.556 319.927 356.581 320.428C357.624 320.877 358.695 321.204 359.793 321.409C360.926 321.596 362.195 321.436 363.598 320.928C363.706 320.702 363.735 320.449 363.686 320.169L363.591 319.303C363.577 319.006 363.58 318.744 363.6 318.517C363.638 318.238 363.755 317.986 363.949 317.761C363.542 316.743 363.126 315.708 362.701 314.655C362.312 313.585 362.071 312.507 361.978 311.423C361.649 311.192 361.373 310.848 361.152 310.392C360.981 310.04 360.836 309.698 360.718 309.365C360.635 309.014 360.516 308.681 360.363 308.365C360.038 307.697 359.633 307.221 359.147 306.936C359.028 306.69 358.926 306.435 358.842 306.172C358.74 305.874 358.718 305.559 358.774 305.228C358.152 304.662 357.565 304.035 357.014 303.347C356.498 302.642 356.043 301.886 355.651 301.078C355.429 300.621 355.251 300.121 355.118 299.578C354.651 299.153 354.212 298.606 353.8 297.938L352.54 295.879C352.111 295.175 351.673 294.541 351.225 293.977C350.778 293.413 350.267 293.032 349.692 292.833C349.75 292.414 349.676 291.994 349.471 291.572C349.13 290.87 348.7 290.253 348.182 289.723C347.664 289.193 347.235 288.577 346.893 287.874C346.654 287.382 346.521 286.839 346.493 286.244C347.283 285.904 348.081 285.625 348.887 285.407C349.711 285.137 350.492 284.823 351.23 284.465C351.578 284.643 351.935 284.752 352.301 284.791C352.667 284.831 353.051 284.861 353.453 284.883C353.837 284.87 354.213 284.883 354.579 284.923C354.981 284.945 355.346 285.071 355.676 285.302ZM406.685 261.44C406.766 261.965 406.742 262.498 406.614 263.038L406.256 264.58C406.145 265.068 406.087 265.574 406.081 266.098C406.093 266.57 406.262 267.052 406.588 267.545C406.518 267.579 406.43 267.622 406.325 267.673C406.202 267.689 406.106 267.714 406.036 267.748C405.473 268.021 405.102 268.375 404.923 268.81C404.761 269.192 404.477 269.591 404.07 270.006C403.898 269.829 403.716 269.678 403.525 269.554C403.317 269.394 403.091 269.33 402.846 269.362C402.088 269.948 401.313 270.498 400.521 271.013C399.712 271.493 398.92 272.008 398.145 272.558C397.792 272.816 397.457 273.109 397.139 273.437C396.803 273.73 396.45 274.032 396.08 274.342C395.903 274.515 395.692 274.661 395.446 274.78C395.183 274.865 394.937 274.984 394.708 275.139C393.882 275.583 393.002 276.097 392.07 276.681C391.12 277.229 390.37 277.919 389.818 278.751C389.433 278.852 389.038 278.978 388.635 279.131C388.231 279.283 387.836 279.453 387.45 279.641C386.606 280.051 385.718 280.591 384.784 281.261C383.869 281.88 383.135 282.605 382.584 283.437C382.374 283.452 382.155 283.493 381.928 283.561C381.735 283.611 381.515 283.696 381.269 283.815C381.199 283.849 381.155 283.892 381.137 283.945C381.102 283.962 381.049 283.987 380.979 284.021C381.097 284.355 381.286 284.654 381.545 284.919C381.822 285.132 382.161 285.249 382.563 285.271C382.61 285.726 382.745 286.182 382.966 286.639C383.257 287.236 383.582 287.816 383.942 288.38C384.338 288.926 384.681 289.497 384.971 290.095C385.295 290.762 385.463 291.332 385.475 291.804C386.338 292.687 387.06 293.726 387.64 294.921C387.845 295.343 388.015 295.782 388.149 296.237C388.302 296.641 388.489 297.071 388.711 297.528C388.899 297.914 389.193 298.162 389.593 298.272C389.977 298.346 390.263 298.576 390.45 298.963C390.519 299.104 390.552 299.261 390.55 299.436C390.99 299.092 391.396 298.721 391.768 298.323C392.122 297.89 392.545 297.555 393.037 297.316C393.318 297.179 393.608 297.104 393.905 297.09C394.237 297.059 394.551 297.08 394.847 297.153C394.898 297.346 394.956 297.556 395.024 297.784C395.126 297.995 395.228 298.206 395.331 298.417C395.519 298.803 395.698 299.172 395.868 299.523C396.057 299.823 396.263 300.157 396.486 300.526C396.444 301.155 396.323 301.756 396.124 302.33C395.961 302.887 395.954 303.499 396.103 304.164C395.576 304.42 395.161 304.774 394.859 305.225C394.575 305.623 394.326 306.048 394.111 306.5C393.879 306.917 393.647 307.333 393.415 307.75C393.166 308.131 392.831 308.424 392.409 308.629C391.882 308.885 391.479 308.994 391.2 308.956C390.904 308.883 390.66 308.784 390.47 308.659C390.279 308.535 390.097 308.428 389.923 308.339C389.784 308.232 389.583 308.265 389.319 308.436C389.027 308.014 388.682 307.66 388.283 307.376C387.867 307.057 387.443 306.764 387.009 306.497C386.611 306.213 386.194 305.937 385.761 305.67C385.345 305.351 384.982 305.006 384.672 304.635C384.018 303.824 383.469 302.918 383.026 301.917C382.584 300.916 381.965 300.044 381.17 299.302C381.001 298.775 380.815 298.258 380.611 297.749C380.39 297.205 380.16 296.687 379.921 296.195C379.443 295.211 378.939 294.262 378.408 293.347C377.895 292.38 377.373 291.396 376.843 290.394C376.444 290.197 376.115 289.923 375.857 289.57C375.617 289.166 375.386 288.779 375.163 288.409C375.006 288.355 374.832 288.309 374.64 288.272C374.484 288.218 374.345 288.112 374.225 287.953C373.91 288.019 373.682 288.087 373.541 288.155C373.049 288.394 372.687 288.721 372.455 289.138C372.242 289.503 371.994 289.753 371.713 289.889C371.432 290.026 371.151 290.119 370.871 290.168C370.591 290.217 370.328 290.302 370.082 290.421C369.871 290.523 369.774 290.636 369.79 290.758C369.824 290.829 369.788 290.933 369.682 291.072C369.61 291.193 369.398 291.383 369.046 291.641C368.694 291.899 368.289 292.182 367.831 292.492C367.391 292.749 366.951 293.005 366.512 293.262C366.107 293.502 365.834 293.656 365.694 293.725C365.132 293.998 364.659 294.097 364.275 294.023C363.84 293.93 363.343 293.846 362.785 293.77C362.752 293.525 362.719 293.367 362.685 293.297C362.514 292.946 362.273 292.716 361.959 292.607C361.629 292.464 361.421 292.304 361.336 292.128C361.148 291.742 361.161 291.366 361.375 291.002C361.554 290.655 361.55 290.244 361.363 289.77C362.001 289.026 362.698 288.362 363.456 287.776C364.214 287.191 365.007 286.633 365.834 286.101C366.661 285.568 367.463 285.027 368.238 284.477C369.048 283.91 369.798 283.264 370.487 282.538C370.75 282.453 370.996 282.378 371.224 282.31C371.47 282.191 371.716 282.072 371.962 281.952C373.016 281.44 374.001 280.831 374.918 280.126C375.852 279.368 376.864 278.724 377.954 278.195C378.235 278.059 378.524 277.94 378.823 277.838C379.121 277.737 379.427 277.653 379.743 277.587C381.046 276.693 382.323 275.791 383.574 274.879C384.86 273.951 386.198 273.04 387.588 272.148C388.257 271.736 388.917 271.351 389.567 270.991C390.236 270.58 390.896 270.151 391.547 269.704C391.776 269.549 391.926 269.411 391.998 269.29C392.087 269.116 392.064 268.889 391.927 268.608C392.312 268.595 392.697 268.494 393.084 268.307C393.681 268.016 394.209 267.629 394.669 267.146C395.129 266.662 395.658 266.275 396.255 265.985C396.396 265.916 396.527 265.874 396.65 265.858C396.755 265.807 396.86 265.756 396.966 265.705C397.212 265.585 397.284 265.42 397.181 265.209C397.097 264.946 397.196 264.703 397.478 264.479C397.69 264.289 398.015 264.066 398.455 263.809C398.895 263.552 399.352 263.286 399.827 263.012C400.32 262.686 400.76 262.385 401.148 262.11C401.553 261.783 401.819 261.48 401.944 261.202L402.032 260.443C402.681 260.171 403.275 260.23 403.812 260.621C404.367 260.959 404.807 261.419 405.132 261.999C405.341 262.071 405.568 262.048 405.814 261.928C406.078 261.756 406.316 261.619 406.527 261.517L406.685 261.44ZM299.067 397.488C299.221 397.805 299.208 398.137 299.03 398.484C298.886 398.814 298.84 399.032 298.891 399.137C298.994 399.348 299.106 399.489 299.227 399.561C299.331 399.597 299.409 399.668 299.46 399.773L299.588 400.036C299.408 400.558 299.332 401.073 299.361 401.58C299.373 402.052 299.437 402.542 299.554 403.05C299.653 403.523 299.761 404.013 299.877 404.521C300.029 405.012 300.137 405.502 300.201 405.992C300.23 406.499 300.181 406.979 300.053 407.432C299.909 407.849 299.843 408.294 299.855 408.766C299.881 409.535 299.986 410.287 300.169 411.023C300.353 411.759 300.353 412.519 300.169 413.303L300.297 413.567C300.382 413.83 300.554 414.006 300.815 414.097C300.574 415.3 300.559 416.61 300.77 418.027C300.964 419.41 301.262 420.828 301.664 422.283C302.05 423.702 302.479 425.122 302.952 426.543C303.407 427.928 303.768 429.208 304.034 430.381C304.585 431.069 305.207 431.679 305.9 432.211C306.611 432.691 307.321 433.215 308.031 433.782C308.819 433.616 309.606 433.538 310.392 433.547C311.213 433.539 311.935 433.818 312.557 434.384C312.828 435.121 312.865 435.777 312.666 436.351C312.467 436.925 312.189 437.56 311.831 438.254C311.377 438.302 311.001 438.332 310.703 438.346C310.423 438.395 310.054 438.575 309.597 438.884C308.673 438.681 307.836 438.566 307.085 438.54C306.369 438.497 305.595 438.2 304.763 437.649C304.641 437.578 304.51 437.576 304.37 437.644L303.895 437.875C303.515 437.538 303.091 437.202 302.623 436.864C302.138 436.492 301.653 436.119 301.168 435.747C300.666 435.339 300.208 434.932 299.794 434.525C299.362 434.084 299.044 433.652 298.839 433.23C297.969 431.438 297.265 429.587 296.728 427.677C296.209 425.714 295.506 423.819 294.618 421.992L294.362 421.465C293.745 421.982 293.162 422.569 292.612 423.227C292.098 423.867 291.533 424.446 290.915 424.963C290.703 425.153 290.623 425.344 290.673 425.537C290.723 425.729 290.686 425.921 290.561 426.112C290.227 426.318 289.91 426.515 289.611 426.704C289.295 426.857 288.996 427.002 288.715 427.139C288.118 427.429 287.477 427.719 286.792 428.008C286.125 428.245 285.433 428.429 284.715 428.56C283.998 428.692 283.281 428.736 282.565 428.693C281.884 428.632 281.214 428.459 280.553 428.172C280.5 428.241 280.429 428.319 280.341 428.405C280.253 428.491 280.156 428.56 280.05 428.611C279.945 428.662 279.831 428.696 279.708 428.712C279.586 428.728 279.481 428.736 279.394 428.735C278.925 428.485 278.492 428.174 278.094 427.803L276.902 426.688C276.504 426.317 276.097 425.971 275.682 425.652C275.266 425.333 274.797 425.083 274.275 424.902C273.863 424.321 273.511 423.732 273.221 423.134C272.914 422.502 272.668 421.861 272.483 421.213C272.264 420.581 272.097 419.924 271.982 419.241C271.637 418.888 271.336 418.491 271.079 418.052C270.786 417.629 270.53 417.189 270.308 416.733C270.052 416.206 269.84 415.635 269.672 415.022C269.505 414.409 269.433 413.814 269.457 413.237C269.464 412.626 269.619 412.051 269.922 411.513C270.19 410.992 270.641 410.578 271.273 410.271C271.976 409.93 272.72 409.807 273.505 409.904C274.273 409.965 275.032 410.052 275.782 410.166C276.057 410.553 276.314 410.949 276.554 411.354C276.777 411.723 276.999 412.136 277.221 412.593C277.631 413.436 277.996 414.323 278.317 415.253C278.657 416.13 279.04 417.008 279.466 417.886C279.91 418.8 280.434 419.61 281.037 420.315C281.658 420.969 282.438 421.502 283.377 421.915L283.588 421.812C283.852 421.641 284.123 421.574 284.402 421.612C284.682 421.65 284.962 421.601 285.243 421.465C285.489 421.345 285.639 421.163 285.695 420.919C285.733 420.64 285.857 420.45 286.068 420.347C286.279 420.245 286.454 420.203 286.594 420.222C286.733 420.241 286.838 420.234 286.908 420.2C287.295 420.012 287.666 419.658 288.021 419.138C288.377 418.618 288.539 418.148 288.509 417.729C288.701 417.766 288.902 417.733 289.113 417.631C289.394 417.494 289.615 417.278 289.776 416.983C289.936 416.688 290.21 416.447 290.596 416.259C290.807 416.157 290.818 415.999 290.628 415.788C290.456 415.524 290.441 415.314 290.583 415.158C290.919 414.778 291.256 414.31 291.595 413.755C291.951 413.147 292.27 412.732 292.553 412.508C292.506 411.966 292.512 411.442 292.571 410.936C292.647 410.378 292.74 409.855 292.851 409.367C292.564 408.507 292.399 407.632 292.357 406.74C292.315 405.849 292.29 404.949 292.283 404.04C292.276 403.132 292.252 402.232 292.21 401.34C292.167 400.449 292.003 399.573 291.716 398.714C291.915 398.14 292.008 397.573 291.997 397.014C292.022 396.438 292.01 395.878 291.964 395.336C292.265 395.06 292.678 394.794 293.205 394.538C293.715 394.247 294.163 394.008 294.55 393.82L295.446 393.385C295.654 393.545 295.888 393.67 296.149 393.76L296.932 394.031C296.855 394.676 296.936 395.245 297.175 395.737C297.362 396.124 297.638 396.467 298.001 396.769C298.348 397.035 298.703 397.275 299.067 397.488ZM336.17 386.569C336.112 386.988 336.16 387.399 336.313 387.802C336.465 388.206 336.618 388.566 336.772 388.882C336.977 389.304 337.181 389.725 337.386 390.147C337.609 390.517 337.814 390.895 338.002 391.281L338.386 392.072C338.435 392.352 338.449 392.649 338.428 392.963C338.407 393.277 338.421 393.575 338.47 393.855C338.61 395.394 338.995 396.813 339.627 398.113L339.678 398.219C339.707 398.726 339.719 399.198 339.714 399.634C339.744 400.054 339.774 400.473 339.804 400.893C339.817 401.278 339.883 401.68 340 402.101C340.1 402.486 340.288 402.917 340.562 403.391C340.667 404.86 340.563 406.3 340.25 407.712C339.919 409.088 339.624 410.491 339.363 411.921C338.761 412.56 338.255 413.262 337.845 414.026C337.469 414.773 337.137 415.564 336.848 416.399C335.929 417.279 335.054 418.204 334.221 419.173C333.389 420.141 332.739 421.217 332.271 422.4C331.638 422.794 331.021 423.224 330.422 423.689C329.823 424.154 329.275 424.68 328.779 425.268L328.146 425.575C327.83 425.729 327.568 425.77 327.359 425.697C327.022 426.165 326.633 426.571 326.192 426.916C325.734 427.225 325.259 427.499 324.767 427.738C324.135 428.045 323.485 428.317 322.819 428.554C322.17 428.739 321.504 428.932 320.82 429.134C320.23 428.812 319.559 428.682 318.807 428.744C318.038 428.77 317.348 428.779 316.736 428.772C315.035 427.861 313.64 426.867 312.552 425.789C311.446 424.675 310.247 423.412 308.953 422C308.784 421.474 308.677 420.94 308.63 420.398C308.567 419.82 308.382 419.259 308.073 418.714C307.818 416.58 307.842 414.527 308.144 412.557C308.465 410.534 308.96 408.513 309.629 406.494C309.527 406.283 309.477 406.09 309.479 405.916C309.516 405.724 309.431 405.505 309.224 405.258C309.277 405.276 309.355 405.259 309.461 405.208C309.742 405.071 309.883 404.916 309.885 404.741C309.87 404.531 309.794 404.33 309.657 404.136C310.529 402.713 311.219 401.227 311.726 399.678C312.268 398.112 313.036 396.654 314.03 395.302C313.982 394.935 314.029 394.586 314.173 394.256C314.317 393.926 314.39 393.586 314.394 393.236C315.365 392.374 316.154 391.405 316.76 390.329C317.367 389.252 318.06 388.221 318.84 387.234C319.249 386.645 319.673 386.178 320.114 385.834C320.573 385.437 321.067 385.024 321.596 384.593C321.772 384.42 321.94 384.274 322.099 384.153C322.257 384.033 322.442 383.921 322.653 383.819C323.285 383.512 323.96 383.336 324.677 383.292C325.377 383.213 326.043 383.019 326.675 382.712C326.851 382.627 326.991 382.559 327.097 382.507C327.22 382.404 327.344 382.301 327.467 382.197C328.423 382.645 329.451 382.84 330.553 382.783C331.02 383.208 331.487 383.545 331.956 383.795C332.46 384.028 332.964 384.261 333.468 384.494C333.955 384.692 334.432 384.959 334.9 385.297C335.386 385.582 335.809 386.006 336.17 386.569ZM332.23 391.87C332.145 391.694 332.05 391.544 331.947 391.421C331.544 391.486 331.142 391.508 330.741 391.486C330.339 391.464 329.945 391.546 329.559 391.734C329.313 391.854 329.092 392.026 328.897 392.251C328.743 392.022 328.552 391.897 328.325 391.877C328.134 391.84 327.915 391.837 327.67 391.87C327.443 391.849 327.216 391.873 326.988 391.94C326.778 391.955 326.569 391.927 326.36 391.854C326.118 391.625 325.859 391.403 325.582 391.19C325.323 390.925 325.001 390.799 324.616 390.812C324.454 391.282 324.213 391.725 323.893 392.14C323.557 392.521 323.203 392.91 322.832 393.307C322.495 393.688 322.176 394.104 321.874 394.554C321.607 394.988 321.418 395.449 321.308 395.937L320.359 396.397C320.336 396.886 320.182 397.33 319.898 397.729C319.597 398.092 319.391 398.518 319.281 399.006C318.855 399.56 318.499 400.167 318.212 400.828C317.942 401.436 317.69 402.08 317.455 402.758C317.203 403.402 316.96 404.063 316.725 404.741C316.525 405.403 316.273 406.046 315.969 406.672C315.99 407.878 315.899 408.986 315.695 409.997C315.509 410.956 315.349 411.923 315.216 412.9C315.118 413.86 315.106 414.864 315.181 415.913C315.275 416.91 315.628 418.041 316.243 419.306L316.499 419.833C316.584 420.009 316.687 420.176 316.807 420.335C317.503 420.605 318.128 420.953 318.682 421.378C319.271 421.787 319.977 421.944 320.799 421.848C321.639 421.788 322.436 421.553 323.192 421.142C323.983 420.714 324.799 420.427 325.639 420.279C327.172 419.144 328.541 417.849 329.746 416.396C330.969 414.89 332.036 413.286 332.946 411.585C333.072 411.307 333.232 411.011 333.428 410.699C333.607 410.352 333.733 410.03 333.806 409.734C333.896 409.473 333.943 409.211 333.946 408.949C333.984 408.67 334.031 408.409 334.086 408.165C334.145 407.571 334.24 406.961 334.369 406.334C334.499 405.706 334.663 405.105 334.862 404.531C334.662 403.673 334.532 402.824 334.472 401.985C334.395 401.11 334.326 400.253 334.266 399.414C334.205 398.575 334.084 397.744 333.901 396.92C333.754 396.08 333.484 395.256 333.091 394.448C333.006 394.272 332.894 394.087 332.757 393.894C332.655 393.683 332.543 393.498 332.423 393.339C332.516 392.816 332.452 392.326 332.23 391.87ZM383.317 390.834C383.432 391.429 383.417 391.979 383.272 392.484C383.126 392.989 382.911 393.485 382.625 393.971C382.375 394.439 382.082 394.908 381.744 395.375C381.39 395.808 381.07 396.267 380.785 396.753L380.1 397.086C378.624 397.803 377.312 398.006 376.162 397.696C375.031 397.333 373.998 396.727 373.065 395.878C372.114 394.994 371.235 393.988 370.426 392.86C369.653 391.716 368.879 390.702 368.103 389.82C367.852 390.376 367.705 390.968 367.663 391.597C367.604 392.19 367.527 392.792 367.433 393.402C367.373 393.996 367.244 394.579 367.046 395.154C366.882 395.711 366.536 396.205 366.007 396.635C366.021 396.933 366.017 397.238 365.996 397.552C366.01 397.85 366.068 398.147 366.169 398.445C365.601 399.243 365.137 400.076 364.778 400.945C364.418 401.815 364.067 402.701 363.725 403.606C363.383 404.511 363.014 405.406 362.62 406.292C362.243 407.127 361.736 407.916 361.099 408.66C361.046 408.642 360.968 408.658 360.862 408.709C360.44 408.914 360.105 409.207 359.856 409.589C359.59 409.935 359.246 410.211 358.825 410.415C358.543 410.552 358.254 410.627 357.957 410.641C357.695 410.638 357.407 410.626 357.093 410.605C356.814 410.567 356.534 410.572 356.254 410.622C355.974 410.671 355.702 410.781 355.438 410.953C354.779 410.491 354.023 410.142 353.17 409.905C352.335 409.616 351.676 409.154 351.194 408.519C350.971 408.237 350.764 407.946 350.576 407.647C350.405 407.296 350.199 406.962 349.958 406.644C349.597 406.169 349.2 405.71 348.769 405.268C348.32 404.791 347.906 404.297 347.528 403.786C347.243 402.752 346.915 401.63 346.545 400.42C346.122 399.193 345.743 397.965 345.408 396.739C345.091 395.46 344.878 394.217 344.769 393.01C344.679 391.751 344.771 390.599 345.045 389.554L344.813 389.211C344.54 388.649 344.39 388.07 344.361 387.476C344.333 386.882 344.331 386.296 344.355 385.72C344.38 385.144 344.369 384.585 344.322 384.043C344.276 383.5 344.064 382.974 343.685 382.463C344.005 382.047 344.359 381.658 344.747 381.296C345.136 380.933 345.576 380.633 346.068 380.394C346.525 380.172 346.98 380.038 347.435 379.99C347.501 380.306 347.71 380.422 348.06 380.338L348.137 380.496C348.495 381.234 348.757 381.997 348.923 382.785C349.089 383.573 349.219 384.379 349.314 385.201C349.393 385.988 349.479 386.792 349.575 387.615C349.688 388.385 349.863 389.147 350.099 389.901C349.975 390.004 349.904 390.125 349.885 390.265C349.901 390.387 349.917 390.51 349.933 390.632C349.949 390.755 349.939 390.868 349.903 390.973C349.867 391.077 349.778 391.164 349.638 391.232C350.024 392.564 350.393 393.905 350.745 395.254C351.114 396.551 351.597 397.814 352.195 399.044C352.553 399.782 352.99 400.504 353.506 401.208C354.022 401.913 354.644 402.523 355.372 403.038L355.557 402.883C355.944 402.695 356.285 402.638 356.581 402.711C356.912 402.767 357.314 402.79 357.786 402.778C358.033 402.571 358.254 402.355 358.448 402.13C358.626 401.87 358.621 401.59 358.432 401.291C358.872 401.034 359.207 400.741 359.438 400.412C359.652 400.047 359.822 399.683 359.948 399.317L360.381 398.195C360.542 397.813 360.791 397.475 361.126 397.182C361.024 396.971 361 396.787 361.054 396.631L361.216 396.161C361.271 396.004 361.29 395.865 361.274 395.742C361.276 395.568 361.199 395.366 361.045 395.137C361.449 394.897 361.714 394.638 361.84 394.36C362.001 394.065 362.117 393.769 362.191 393.473C362.282 393.125 362.356 392.785 362.412 392.453C362.468 392.122 362.594 391.8 362.79 391.488C362.78 390.842 362.773 389.977 362.768 388.894C362.798 387.793 362.793 386.666 362.754 385.513C362.75 384.342 362.702 383.259 362.608 382.262C362.533 381.213 362.384 380.46 362.163 380.003C362.077 379.827 361.948 379.695 361.774 379.605C361.636 379.499 361.541 379.349 361.491 379.157L361.414 378.998C361.525 378.511 361.583 378.005 361.589 377.481C361.63 376.939 361.68 376.416 361.738 375.91C361.831 375.387 361.959 374.89 362.122 374.421C362.285 373.951 362.569 373.509 362.976 373.094C363.624 372.997 364.245 372.847 364.842 372.644C365.473 372.424 366.104 372.291 366.733 372.246C367.195 373.108 367.778 374.084 368.481 375.175C369.185 376.267 369.909 377.131 370.653 377.768C370.875 378.225 371.07 378.673 371.24 379.112C371.445 379.533 371.65 379.955 371.854 380.377C372.196 381.079 372.563 381.791 372.957 382.512C373.385 383.216 373.841 383.841 374.324 384.388C374.334 385.035 374.484 385.657 374.774 386.254C375.167 387.062 375.665 387.776 376.269 388.394C376.857 388.977 377.399 389.647 377.897 390.404C378.661 390.815 379.412 390.841 380.15 390.483C380.326 390.398 380.458 390.312 380.546 390.225C380.669 390.122 380.784 390.001 380.891 389.862C381.326 390.042 381.725 390.239 382.089 390.453C382.472 390.614 382.881 390.741 383.317 390.834ZM380.928 347.96C381.287 348.698 381.601 349.479 381.871 350.303C382.124 351.092 382.421 351.838 382.762 352.541L383.121 353.279C383.223 353.49 383.361 353.683 383.533 353.86C383.847 355.401 384.258 356.917 384.765 358.408C385.255 359.864 385.709 361.38 386.128 362.957C386.413 363.991 386.663 365.042 386.877 366.111C386.927 366.391 386.958 366.679 386.972 366.976C387.021 367.256 387.071 367.537 387.12 367.817C387.186 368.132 387.261 368.465 387.344 368.815C387.463 369.148 387.555 369.473 387.621 369.788C387.736 370.471 387.85 371.153 387.965 371.836C388.062 372.483 388.168 373.149 388.282 373.831C388.478 375.039 388.638 376.264 388.764 377.506C388.925 378.73 389.103 379.947 389.298 381.154C389.494 382.362 389.751 383.562 390.069 384.753C390.387 385.945 390.811 387.085 391.34 388.175C391.425 388.35 391.599 388.483 391.86 388.574C392.139 388.612 392.435 388.642 392.75 388.663C393.064 388.684 393.378 388.705 393.692 388.726C394.025 388.695 394.269 388.706 394.426 388.761L394.656 389.235C394.912 389.762 395.011 390.235 394.954 390.653C394.88 391.037 394.753 391.402 394.575 391.75C394.396 392.097 394.2 392.453 393.986 392.817C393.807 393.165 393.715 393.557 393.71 393.993C393.588 394.01 393.448 394.034 393.29 394.067C393.132 394.1 392.983 394.151 392.843 394.219C392.491 394.39 392.183 394.648 391.917 394.995C391.686 395.324 391.377 395.583 390.991 395.77C390.604 395.958 390.211 395.954 389.811 395.757C389.395 395.525 388.968 395.406 388.531 395.401C388.053 394.505 387.468 393.703 386.777 392.996C386.105 392.237 385.546 391.401 385.103 390.488C384.744 389.75 384.541 389.197 384.493 388.83C384.48 388.445 384.478 387.86 384.487 387.074C384.436 386.968 384.367 386.871 384.281 386.783C384.229 386.678 384.178 386.572 384.127 386.467C383.871 385.94 383.702 385.414 383.621 384.889C383.558 384.311 383.381 383.768 383.09 383.258C383.136 382.28 383.069 381.292 382.888 380.294C382.742 379.279 382.579 378.273 382.399 377.275C382.201 376.242 382.038 375.235 381.909 374.256C381.764 373.241 381.758 372.245 381.891 371.268C381.653 370.689 381.503 370.11 381.44 369.533C381.376 368.956 381.217 368.404 380.961 367.877C380.807 367.56 380.609 367.287 380.368 367.057C380.532 366.413 380.47 365.705 380.182 364.933C379.894 364.161 379.588 363.485 379.262 362.904C379.25 362.432 379.186 361.986 379.068 361.566C378.969 361.093 378.887 360.611 378.823 360.121C378.754 359.981 378.669 359.849 378.565 359.725C378.497 359.585 378.429 359.444 378.36 359.304C377.968 358.496 377.672 357.662 377.472 356.804C377.307 355.928 377.029 355.087 376.636 354.279C376.124 353.224 375.416 352.526 374.512 352.184C374.408 352.06 374.322 351.928 374.254 351.788L374.024 351.313C373.717 350.681 373.532 350.032 373.47 349.368C373.426 348.651 373.232 347.985 372.89 347.369C373.156 347.023 373.413 346.703 373.661 346.409C373.944 346.098 374.279 345.848 374.666 345.66C375.509 345.251 376.392 345.191 377.314 345.481C378.237 345.771 379.09 346.052 379.873 346.323C380.269 346.782 380.621 347.328 380.928 347.96ZM405.969 408.102C406.054 408.278 406.114 408.445 406.147 408.602C406.197 408.795 406.23 408.996 406.245 409.206C405.838 409.621 405.406 409.983 404.948 410.292C404.542 410.619 404.128 410.973 403.704 411.352C403.577 411.805 403.475 412.267 403.4 412.737C403.377 413.226 403.127 413.651 402.651 414.013C401.794 414.125 400.975 413.959 400.194 413.513C399.448 413.05 398.879 412.414 398.486 411.606C398.145 410.904 398.003 410.299 398.062 409.793C398.137 409.322 398.273 408.887 398.47 408.488C398.684 408.123 398.854 407.758 398.98 407.393C399.107 407.027 399.068 406.634 398.863 406.212C399.022 406.092 399.224 405.972 399.47 405.852C399.962 405.614 400.434 405.601 400.885 405.816C401.354 406.066 401.823 406.273 402.293 406.435C402.606 406.544 402.929 406.626 403.26 406.682C403.644 406.757 403.992 406.848 404.305 406.956C404.671 407.083 405.001 407.226 405.296 407.387C405.591 407.548 405.815 407.786 405.969 408.102Z" fill="#8B51FF"/>
</svg>
