<svg width="654" height="84" viewBox="0 0 654 84" fill="none" xmlns="http://www.w3.org/2000/svg">
<path d="M57.1289 54.6172C56.9336 55.2422 56.875 55.8672 56.9531 56.4922C56.8359 56.6484 56.6992 56.7461 56.543 56.7852C56.3867 56.8242 56.2305 56.8828 56.0742 56.9609C55.918 57 55.7812 57.0781 55.6641 57.1953C55.5859 57.2734 55.5859 57.4492 55.6641 57.7227C54.375 57.8008 53.1445 58.0742 51.9727 58.543C50.8008 59.0117 49.6484 59.5195 48.5156 60.0664C47.9297 59.8711 47.4219 59.6367 46.9922 59.3633C46.5625 59.0898 46.0156 58.9141 45.3516 58.8359C44.6875 57.5078 44.0625 56.1211 43.4766 54.6758C42.9297 53.1914 42.6562 51.707 42.6562 50.2227C42.6562 49.1289 42.8516 48.1328 43.2422 47.2344C43.2422 46.0625 43.3398 44.9102 43.5352 43.7773C43.7305 42.6445 43.9453 41.5312 44.1797 40.4375C44.4531 39.3047 44.6875 38.1719 44.8828 37.0391C45.0781 35.9062 45.1758 34.7539 45.1758 33.582V32.293C45.0977 32.293 45 32.3906 44.8828 32.5859C44.7656 32.7422 44.6484 32.9375 44.5312 33.1719C44.4531 33.3672 44.375 33.5625 44.2969 33.7578C44.2188 33.9531 44.1602 34.0703 44.1211 34.1094C43.457 34.6172 42.9297 35.2617 42.5391 36.043C42.1875 36.7852 41.7969 37.4883 41.3672 38.1523C40.8203 38.9727 40.2344 39.7734 39.6094 40.5547C39.0234 41.3359 38.2812 41.9414 37.3828 42.3711V42.4883C37.3828 42.6836 37.3242 42.8203 37.207 42.8984C37.0898 42.9766 37.0703 43.1719 37.1484 43.4844C36.1719 43.7969 35.2539 44.2461 34.3945 44.832C33.5742 45.418 32.8906 46.1602 32.3438 47.0586C31.5625 47.2539 30.8203 47.5273 30.1172 47.8789C29.4531 48.1914 28.7695 48.543 28.0664 48.9336C27.7539 49.0898 27.4219 49.2852 27.0703 49.5195C26.7188 49.7539 26.3672 49.9102 26.0156 49.9883C25.7031 50.1055 25.2734 50.1836 24.7266 50.2227C24.2188 50.2617 23.6719 50.3008 23.0859 50.3398C22.5391 50.3789 21.9922 50.3984 21.4453 50.3984H20.1562C19.9609 50.3984 19.707 50.3008 19.3945 50.1055C19.082 49.9102 18.7305 49.6953 18.3398 49.4609C17.9883 49.2266 17.6172 49.0117 17.2266 48.8164C16.8359 48.582 16.4648 48.4258 16.1133 48.3477C15.8008 47.332 15.3516 46.4336 14.7656 45.6523C14.2188 44.832 13.6328 44.0117 13.0078 43.1914C12.8125 42.2539 12.5391 41.2773 12.1875 40.2617C11.875 39.2461 11.3086 38.4062 10.4883 37.7422C10.6836 37.4688 10.7812 37.1562 10.7812 36.8047C10.7812 36.375 10.6836 35.9648 10.4883 35.5742C10.293 35.1836 10.1953 34.7539 10.1953 34.2852C10.1953 33.9727 10.2148 33.7383 10.2539 33.582C9.82422 34.0508 9.51172 34.6562 9.31641 35.3984C9.16016 36.1016 9.08203 36.7461 9.08203 37.332C9.08203 37.8008 9.14062 38.2305 9.25781 38.6211C8.86719 39.168 8.61328 39.8516 8.49609 40.6719C8.41797 41.4922 8.37891 42.2148 8.37891 42.8398C8.37891 43.6211 8.4375 44.3828 8.55469 45.125C7.92969 45.75 7.61719 46.5117 7.61719 47.4102C7.61719 47.918 7.73438 48.3672 7.96875 48.7578C7.96875 48.9141 7.92969 49.0312 7.85156 49.1094C7.77344 49.1875 7.67578 49.2461 7.55859 49.2852C7.48047 49.3242 7.38281 49.3828 7.26562 49.4609C7.1875 49.5 7.14844 49.5977 7.14844 49.7539C7.14844 49.9492 7.14844 50.1641 7.14844 50.3984C7.1875 50.6328 7.20703 50.8672 7.20703 51.1016C7.20703 51.6484 7.1875 52.2148 7.14844 52.8008C7.10938 53.3867 7.08984 53.9531 7.08984 54.5C7.08984 55.6328 7.1875 56.4531 7.38281 56.9609C7.61719 57.4297 7.89062 57.7812 8.20312 58.0156C8.55469 58.25 8.92578 58.4844 9.31641 58.7188C9.70703 58.9531 10.0977 59.4023 10.4883 60.0664C10.3711 60.418 10.1562 60.7109 9.84375 60.9453C9.57031 61.1406 9.29688 61.3555 9.02344 61.5898C8.78906 61.7852 8.57422 62.0195 8.37891 62.293C8.18359 62.5664 8.10547 62.957 8.14453 63.4648H7.85156C7.34375 63.4648 6.85547 63.543 6.38672 63.6992C5.91797 63.8555 5.42969 63.9336 4.92188 63.9336C4.80469 63.9336 4.6875 63.9141 4.57031 63.875C4.45312 63.875 4.33594 63.875 4.21875 63.875L3.63281 63.5234C3.4375 63.4062 3.24219 63.3477 3.04688 63.3477C2.85156 63.3477 2.59766 63.3867 2.28516 63.4648C1.73828 61.707 1.30859 59.8906 0.996094 58.0156C0.722656 56.1406 0.585938 54.3047 0.585938 52.5078C0.585938 52.3125 0.625 52.1172 0.703125 51.9219C0.820312 51.6875 0.976562 51.6094 1.17188 51.6875V50.5742C1.17188 49.3633 1.26953 48.1914 1.46484 47.0586C1.69922 45.8867 1.81641 44.6758 1.81641 43.4258C1.81641 43.0742 1.79688 42.7227 1.75781 42.3711C1.75781 42.0195 1.73828 41.6875 1.69922 41.375C1.89453 40.7109 2.08984 40.0469 2.28516 39.3828C2.51953 38.6797 2.63672 37.957 2.63672 37.2148C2.63672 36.9023 2.57812 36.5312 2.46094 36.1016C2.77344 35.8672 3.00781 35.5742 3.16406 35.2227C3.32031 34.832 3.4375 34.4219 3.51562 33.9922C3.59375 33.5234 3.65234 33.0742 3.69141 32.6445C3.73047 32.2148 3.76953 31.8242 3.80859 31.4727C4.19922 30.6914 4.41406 29.8516 4.45312 28.9531C4.49219 28.0547 4.6875 27.2148 5.03906 26.4336C5 26.2773 4.98047 26.0039 4.98047 25.6133C4.98047 24.832 5.09766 24.0508 5.33203 23.2695C5.60547 22.4492 6.13281 21.8242 6.91406 21.3945C7.61719 21.668 8.4375 21.8047 9.375 21.8047C10.2734 21.8047 11.1328 21.668 11.9531 21.3945C12.1875 21.4727 12.4023 21.5703 12.5977 21.6875C12.793 21.7656 12.9883 21.8633 13.1836 21.9805C13.418 22.0586 13.6523 22.1367 13.8867 22.2148C14.1211 22.2539 14.3945 22.2539 14.707 22.2148C15.0977 23.3477 15.4297 24.5 15.7031 25.6719C16.0156 26.8438 16.25 28.0352 16.4062 29.2461C16.4844 29.7539 16.5039 30.3008 16.4648 30.8867C16.4648 31.4727 16.5039 32.0195 16.582 32.5273C16.6211 32.8398 16.7188 33.1328 16.875 33.4062C17.0312 33.6406 17.1875 33.9141 17.3438 34.2266C17.5 34.5391 17.6172 34.8906 17.6953 35.2812C17.8125 35.6719 17.8516 36.1602 17.8125 36.7461C18.2422 37.7617 18.7109 38.7383 19.2188 39.6758C19.7656 40.5742 20.3516 41.4727 20.9766 42.3711C21.3281 42.4883 21.6406 42.6445 21.9141 42.8398C22.1875 42.9961 22.3633 43.2695 22.4414 43.6602C22.793 43.6602 23.1055 43.7188 23.3789 43.8359L24.375 44.1289C25.8594 43.6602 27.2266 43.0352 28.4766 42.2539C29.7656 41.4727 31.1133 40.8086 32.5195 40.2617C34.2383 38.582 35.7227 36.7266 36.9727 34.6953C38.2227 32.625 39.4727 30.5742 40.7227 28.543V27.2539C40.957 27.1367 41.1523 27 41.3086 26.8438C41.5039 26.6484 41.7383 26.5117 42.0117 26.4336C42.0508 25.9648 42.1484 25.5156 42.3047 25.0859C42.5 24.6172 42.6953 24.1875 42.8906 23.7969C43.125 23.3672 43.3203 22.957 43.4766 22.5664C43.6328 22.1367 43.7109 21.6875 43.7109 21.2188C43.7109 20.9453 43.6914 20.7109 43.6523 20.5156C44.2383 19.9297 44.9414 19.6367 45.7617 19.6367C46.543 19.6367 47.3242 19.832 48.1055 20.2227C48.9258 20.5742 49.6875 20.9062 50.3906 21.2188C50.8203 22.1562 51.1328 23.1523 51.3281 24.207C51.5625 25.2227 51.7188 26.2773 51.7969 27.3711C51.875 28.4648 51.9141 29.5586 51.9141 30.6523V34.8125C51.875 35.125 51.7578 35.3594 51.5625 35.5156C51.4062 35.6328 51.2891 35.8281 51.2109 36.1016V36.6875C51.2109 36.8828 51.1914 37.0781 51.1523 37.2734C51.1523 38.0938 51.0547 38.9531 50.8594 39.8516C50.6641 40.9844 50.4102 42.1367 50.0977 43.3086C49.8242 44.4414 49.6875 45.5938 49.6875 46.7656C49.6875 47.1953 49.707 47.625 49.7461 48.0547C49.7852 48.4844 49.8633 48.9141 49.9805 49.3438C49.7852 49.6953 49.6875 50.1445 49.6875 50.6914C49.6875 51.3164 49.7852 51.9023 49.9805 52.4492C50.2148 52.957 50.4883 53.4648 50.8008 53.9727C51.3477 53.9727 51.8945 53.9531 52.4414 53.9141C52.9883 53.875 53.5547 53.8555 54.1406 53.8555C54.6875 53.8555 55.1953 53.9141 55.6641 54.0312C56.1328 54.1094 56.6211 54.3047 57.1289 54.6172ZM102.656 57.7227C102.539 58.2695 102.285 58.7188 101.895 59.0703C101.543 59.3828 101.113 59.6367 100.605 59.832C100.098 60.0273 99.5703 60.1641 99.0234 60.2422C98.5156 60.2812 98.0469 60.3008 97.6172 60.3008C97.4219 60.3008 97.2266 60.3008 97.0312 60.3008C96.875 60.2617 96.6992 60.2422 96.5039 60.2422C96.3086 60.2422 96.2109 60.3398 96.2109 60.5352C96.2109 60.7305 96.1133 60.8672 95.918 60.9453C95.7227 60.8672 95.5273 60.8086 95.332 60.7695C95.1367 60.7305 94.9414 60.7109 94.7461 60.7109C94.4727 60.7109 94.1992 60.7305 93.9258 60.7695C93.6914 60.8086 93.457 60.8281 93.2227 60.8281C92.9102 60.8281 92.6758 60.7891 92.5195 60.7109C92.4023 60.6328 92.2852 60.5547 92.168 60.4766C92.0898 60.3594 91.9922 60.2422 91.875 60.125C91.7969 60.0078 91.6602 59.9102 91.4648 59.832C91.1914 59.7148 90.957 59.6953 90.7617 59.7734C90.6055 59.8516 90.3516 59.7344 90 59.4219C89.5312 59.0312 89.1211 58.5625 88.7695 58.0156C88.457 57.4297 88.1445 56.8242 87.832 56.1992C87.5195 55.5742 87.1875 54.9492 86.8359 54.3242C86.4844 53.6992 86.0742 53.1523 85.6055 52.6836H85.1367C84.4336 52.6836 83.9453 52.9766 83.6719 53.5625C83.4766 53.4453 83.2812 53.3086 83.0859 53.1523C82.8906 52.957 82.6758 52.8008 82.4414 52.6836C81.543 52.957 80.6055 53.1914 79.6289 53.3867C78.6523 53.582 77.6758 53.6797 76.6992 53.6797H75.8789C75.6445 53.6797 75.3906 53.6406 75.1172 53.5625C74.7266 53.7188 74.375 53.9141 74.0625 54.1484C73.75 54.3438 73.3984 54.4414 73.0078 54.4414C72.7734 54.4414 72.5 54.3633 72.1875 54.207C71.9531 54.207 71.8359 54.3047 71.8359 54.5C71.875 54.6953 71.7578 54.793 71.4844 54.793H70.957C70.4102 54.793 69.8633 54.8125 69.3164 54.8516C68.8086 54.8906 68.2812 54.9102 67.7344 54.9102C66.9922 54.9102 66.2305 54.8125 65.4492 54.6172C65.2539 54.7344 65.0391 54.793 64.8047 54.793C64.6484 54.8711 64.5312 55.0078 64.4531 55.2031C64.375 55.3594 64.2969 55.5156 64.2188 55.6719C64.1406 55.7891 64.0234 55.9062 63.8672 56.0234C63.75 56.1016 63.5742 56.1211 63.3398 56.082C63.2617 56.5508 63.0664 56.9219 62.7539 57.1953C62.4414 57.4688 62.2852 57.8789 62.2852 58.4258C61.8555 58.6602 61.5039 58.9531 61.2305 59.3047C60.957 59.6562 60.6836 60.0273 60.4102 60.418C60.1367 60.8086 59.8438 61.1797 59.5312 61.5312C59.2578 61.8828 58.9062 62.1562 58.4766 62.3516C58.2812 62.5859 58.2227 62.957 58.3008 63.4648C57.8711 63.8164 57.3438 64.1289 56.7188 64.4023C56.0938 64.6758 55.5078 64.8125 54.9609 64.8125C53.8281 64.8125 53.0469 64.207 52.6172 62.9961C52.6172 62.6055 52.6562 62.1953 52.7344 61.7656C52.7734 61.2969 52.8516 60.8672 52.9688 60.4766C53.0859 60.0469 53.2617 59.6758 53.4961 59.3633C53.7305 59.0117 54.0625 58.7578 54.4922 58.6016C54.4922 58.25 54.375 58.0156 54.1406 57.8984C53.9062 57.7422 53.8086 57.4883 53.8477 57.1367C54.9023 56.6289 55.8203 55.9648 56.6016 55.1445C57.3828 54.3242 58.0859 53.4648 58.7109 52.5664C59.375 51.6289 60.0391 50.6914 60.7031 49.7539C61.3672 48.8164 62.1094 47.9766 62.9297 47.2344V46.0039C64.1016 44.7539 64.8633 43.3477 65.2148 41.7852C65.6445 41.707 65.918 41.5117 66.0352 41.1992C66.1914 40.8867 66.2695 40.5156 66.2695 40.0859C66.4648 40.0859 66.582 40.0078 66.6211 39.8516C66.6992 39.6562 66.875 39.5977 67.1484 39.6758C67.5 38.7383 67.8906 37.8789 68.3203 37.0977C68.75 36.3164 69.1797 35.5352 69.6094 34.7539C70.0391 33.9336 70.4102 33.0938 70.7227 32.2344C71.0742 31.375 71.3281 30.418 71.4844 29.3633C72.0312 29.3242 72.3242 29.0703 72.3633 28.6016C72.4414 28.0938 72.5195 27.6445 72.5977 27.2539C73.1836 26.707 73.6133 26.0625 73.8867 25.3203C74.1992 24.5781 74.4727 23.8164 74.707 23.0352C74.9414 22.2148 75.1953 21.4141 75.4688 20.6328C75.7812 19.8125 76.2109 19.0898 76.7578 18.4648V18.2891C76.7578 18.0937 76.6797 17.9766 76.5234 17.9375C76.3672 17.8594 76.2891 17.7227 76.2891 17.5273C76.3281 17.4883 76.3477 17.4492 76.3477 17.4102C76.8164 17.2148 77.168 16.9023 77.4023 16.4727C77.6367 16.0039 77.9883 15.6719 78.457 15.4766C79.2773 16.1406 80 16.5508 80.625 16.707C81.25 16.8242 82.0703 16.9219 83.0859 17C83.5938 17.5469 83.8672 18.2109 83.9062 18.9922C83.9844 19.7344 84.1211 20.4766 84.3164 21.2188C84.6289 22.4688 84.9609 23.6992 85.3125 24.9102C85.7031 26.082 85.9961 27.293 86.1914 28.543C86.3086 29.2852 86.5234 29.9883 86.8359 30.6523C87.1484 31.3164 87.3633 32 87.4805 32.7031C87.5586 33.25 87.5586 33.875 87.4805 34.5781C87.4023 35.2422 87.4805 35.8281 87.7148 36.3359L88.125 37.2734C88.3203 37.7031 88.4766 38.1523 88.5938 38.6211C88.75 39.0898 88.8867 39.5586 89.0039 40.0273C89.3164 41.1992 89.5898 42.4688 89.8242 43.8359C90.0977 45.1641 90.5078 46.375 91.0547 47.4688C91.25 47.8594 91.543 48.1328 91.9336 48.2891C92.3633 48.4453 92.832 48.5625 93.3398 48.6406C93.8477 48.6797 94.3359 48.6992 94.8047 48.6992C95.3125 48.6602 95.7422 48.6406 96.0938 48.6406H96.6797C96.9141 48.6406 97.1484 48.6797 97.3828 48.7578C97.5391 49.0703 97.6172 49.3438 97.6172 49.5781C97.6172 50.0469 97.4609 50.418 97.1484 50.6914C96.8359 50.9648 96.6797 51.2773 96.6797 51.6289C96.6797 51.8242 96.7578 52.0391 96.9141 52.2734C96.7578 52.2344 96.5234 52.2148 96.2109 52.2148C95.3125 52.2148 94.4336 52.3711 93.5742 52.6836C93.8867 53.3477 94.2969 53.9141 94.8047 54.3828C95.3516 54.8125 95.918 55.2227 96.5039 55.6133C96.8945 55.3008 97.3047 55.1445 97.7344 55.1445C98.2031 55.1445 98.6328 55.2617 99.0234 55.4961C99.4531 55.6914 99.9023 55.7891 100.371 55.7891C100.723 55.7891 100.977 55.7305 101.133 55.6133C101.445 55.9648 101.699 56.3359 101.895 56.7266C102.09 57.0781 102.344 57.4102 102.656 57.7227ZM84.3164 48.3477C84.2383 47.6836 84.1016 47.2148 83.9062 46.9414C83.75 46.6289 83.6133 46.2578 83.4961 45.8281C83.3398 45.2812 83.2227 44.6953 83.1445 44.0703C83.1055 43.4453 83.0273 42.8398 82.9102 42.2539C82.6367 40.9258 82.3242 39.5977 81.9727 38.2695C81.6602 36.9414 81.25 35.6523 80.7422 34.4023C80.8984 34.168 80.9766 33.9531 80.9766 33.7578V33.582C80.625 33.1914 80.3711 32.7227 80.2148 32.1758C80.0586 31.5898 79.9023 31.0234 79.7461 30.4766C79.6289 29.8906 79.4531 29.3633 79.2188 28.8945C79.0234 28.3867 78.6914 27.9766 78.2227 27.6641C78.1055 27.8984 78.0469 28.1719 78.0469 28.4844C78.0469 28.7578 78.0664 29.0117 78.1055 29.2461C78.1836 29.4805 78.2227 29.7344 78.2227 30.0078C77.832 30.2031 77.5391 30.5156 77.3438 30.9453C77.1875 31.3359 76.9141 31.6484 76.5234 31.8828C76.2109 33.1328 75.7617 34.3242 75.1758 35.457C74.5898 36.5508 73.9648 37.6445 73.3008 38.7383C72.6758 39.832 72.0703 40.9453 71.4844 42.0781C70.8984 43.1719 70.4297 44.3242 70.0781 45.5352C69.5703 45.8867 69.2188 46.3359 69.0234 46.8828C68.8672 47.4297 68.7891 47.9766 68.7891 48.5234C69.1406 48.7188 69.5312 48.8359 69.9609 48.875C70.4297 48.875 70.8789 48.875 71.3086 48.875C71.7383 48.875 72.1484 48.9141 72.5391 48.9922C72.9297 49.0703 73.2812 49.2656 73.5938 49.5781C74.1016 49.4219 74.6484 49.3242 75.2344 49.2852C75.8594 49.207 76.3672 49.0312 76.7578 48.7578C77.5391 49.0312 78.3789 49.168 79.2773 49.168C79.7461 49.168 80.1953 49.1289 80.625 49.0508C81.0938 48.9727 81.543 48.875 81.9727 48.7578C82.3242 48.8359 82.5977 48.9727 82.793 49.168C82.9883 49.3242 83.2812 49.3828 83.6719 49.3438C83.8672 49.1875 83.9844 49.0312 84.0234 48.875C84.0625 48.6797 84.1602 48.5039 84.3164 48.3477ZM175.957 51.8047C175.879 52.3906 175.664 52.8398 175.312 53.1523C175 53.4648 174.629 53.7578 174.199 54.0312C174.004 53.9922 173.809 53.9727 173.613 53.9727C173.457 53.9336 173.281 53.9141 173.086 53.9141C171.875 53.875 170.723 54.0312 169.629 54.3828C168.574 54.7344 167.48 54.9883 166.348 55.1445C165.957 55.2227 165.586 55.2617 165.234 55.2617C164.922 55.2227 164.59 55.2422 164.238 55.3203C162.988 55.5156 161.66 55.6719 160.254 55.7891C158.848 55.9062 157.441 56.0625 156.035 56.2578C154.629 56.4141 153.242 56.6289 151.875 56.9023C150.547 57.1367 149.297 57.4883 148.125 57.957C148.008 57.8789 147.891 57.8008 147.773 57.7227C147.656 57.6055 147.52 57.5469 147.363 57.5469C146.973 57.5469 146.602 57.6055 146.25 57.7227C145.898 57.8398 145.547 57.8789 145.195 57.8398C144.805 58.0742 144.375 58.25 143.906 58.3672C143.477 58.4453 143.027 58.5234 142.559 58.6016C142.129 58.6406 141.699 58.7188 141.27 58.8359C140.84 58.9531 140.43 59.168 140.039 59.4805C139.727 59.3242 139.336 59.2461 138.867 59.2461C138.438 59.207 138.145 59.0508 137.988 58.7773C137.09 59.207 136.133 59.4805 135.117 59.5977C134.141 59.7148 133.145 59.7539 132.129 59.7148C131.465 59.6758 130.703 59.5781 129.844 59.4219C128.984 59.2656 128.125 59.0508 127.266 58.7773C126.406 58.4648 125.605 58.1133 124.863 57.7227C124.121 57.293 123.555 56.7852 123.164 56.1992C122.891 55.8086 122.695 55.3789 122.578 54.9102C122.461 54.4414 122.188 54.0898 121.758 53.8555C121.875 52.957 122.012 52.0781 122.168 51.2188C122.324 50.3594 122.48 49.4805 122.637 48.582C123.418 47.918 124.16 47.2148 124.863 46.4727C125.566 45.7305 126.23 44.9492 126.855 44.1289C127.598 43.7773 128.281 43.3477 128.906 42.8398C129.57 42.332 130.215 41.8242 130.84 41.3164C131.504 40.7695 132.148 40.2422 132.773 39.7344C133.438 39.2266 134.141 38.7773 134.883 38.3867C135 38.1133 135.156 37.8984 135.352 37.7422C135.586 37.5469 135.82 37.3711 136.055 37.2148C136.289 37.0195 136.504 36.8242 136.699 36.6289C136.895 36.3945 137.031 36.1211 137.109 35.8086C138.477 34.9883 139.668 33.9531 140.684 32.7031C141.699 31.4531 142.363 30.0469 142.676 28.4844C142.012 27.9375 141.25 27.5859 140.391 27.4297C139.57 27.2344 138.711 27.0977 137.812 27.0195C137.031 26.9805 136.211 26.9805 135.352 27.0195C134.531 27.0586 133.691 27.0391 132.832 26.9609C131.973 27.2344 131.074 27.4102 130.137 27.4883C129.238 27.5664 128.34 27.6445 127.441 27.7227C126.543 27.7617 125.645 27.8789 124.746 28.0742C123.887 28.2305 123.047 28.543 122.227 29.0117C122.07 29.0117 121.914 28.9922 121.758 28.9531C121.641 28.9141 121.504 28.8945 121.348 28.8945C120.098 28.8555 118.926 29.1094 117.832 29.6562C116.738 30.1641 115.664 30.6719 114.609 31.1797C114.531 31.3359 114.492 31.4531 114.492 31.5312C114.492 31.7656 114.531 32 114.609 32.2344C114.727 32.4297 114.785 32.6445 114.785 32.8789C114.746 32.918 114.727 32.957 114.727 32.9961C114.727 33.0352 114.707 33.0742 114.668 33.1133C114.629 33.3086 114.57 33.4844 114.492 33.6406C114.453 33.7969 114.395 33.9727 114.316 34.168C113.887 35.418 113.652 36.6484 113.613 37.8594C113.574 38.875 113.574 39.8711 113.613 40.8477C113.652 41.8242 113.652 42.8203 113.613 43.8359C113.535 45.0859 113.34 46.2578 113.027 47.3516C113.223 48.2891 113.398 49.2852 113.555 50.3398C113.711 51.3555 113.906 52.3711 114.141 53.3867C114.375 54.4023 114.648 55.3984 114.961 56.375C115.312 57.3125 115.762 58.2109 116.309 59.0703C116.27 59.1484 116.289 59.207 116.367 59.2461C116.445 59.2852 116.523 59.3047 116.602 59.3047H117.07C117.266 59.3047 117.344 59.3828 117.305 59.5391C117.383 59.6562 117.441 59.7734 117.48 59.8906C117.52 59.9688 117.598 60.0469 117.715 60.125C117.793 60.2422 117.793 60.3984 117.715 60.5938C117.676 61.375 117.48 62.0977 117.129 62.7617C116.777 63.4258 116.562 64.1484 116.484 64.9297C116.016 65.0469 115.586 65.1055 115.195 65.1055C114.531 65.0664 113.945 64.8711 113.438 64.5195C112.93 64.207 112.461 63.8164 112.031 63.3477C111.602 62.8789 111.191 62.4102 110.801 61.9414C110.41 61.4336 109.98 61.0039 109.512 60.6523C109.238 59.5586 108.965 58.3477 108.691 57.0195C108.457 55.6914 108.047 54.5586 107.461 53.6211C107.617 53.2695 107.695 52.8398 107.695 52.332C107.734 51.5508 107.656 50.7891 107.461 50.0469C107.305 49.2656 107.266 48.4844 107.344 47.7031C107.344 47.2734 107.383 46.8438 107.461 46.4141C107.578 45.9844 107.656 45.5547 107.695 45.125C107.734 44.4609 107.656 43.8164 107.461 43.1914C107.305 42.5664 107.246 41.9219 107.285 41.2578C107.324 40.9453 107.383 40.6523 107.461 40.3789C107.578 40.0664 107.734 39.793 107.93 39.5586C107.734 39.0898 107.676 38.6406 107.754 38.2109C107.793 37.5469 107.871 36.9219 107.988 36.3359C108.105 35.75 108.184 35.1641 108.223 34.5781C108.223 34.2656 108.203 33.9727 108.164 33.6992C108.125 33.3867 108.066 33.0938 107.988 32.8203L107.461 32.6445C107.227 32.6445 106.992 32.7031 106.758 32.8203C106.562 32.9375 106.387 33.0742 106.23 33.2305C106.074 33.3867 105.938 33.5234 105.82 33.6406C105.703 33.7188 105.586 33.7578 105.469 33.7578C105.391 33.7578 105.293 33.7578 105.176 33.7578C105.098 33.7188 105.02 33.6992 104.941 33.6992C104.863 33.6992 104.707 33.7773 104.473 33.9336C104.277 34.0898 104.023 34.2656 103.711 34.4609C103.438 34.6172 103.164 34.793 102.891 34.9883C102.617 35.1445 102.402 35.2422 102.246 35.2812C101.816 35.2031 101.465 35.0664 101.191 34.8711C100.957 34.6367 100.723 34.4219 100.488 34.2266C100.293 33.9922 100.078 33.7969 99.8438 33.6406C99.6094 33.4453 99.3164 33.3672 98.9648 33.4062C98.8477 33.1719 98.7891 32.918 98.7891 32.6445C98.75 32.3711 98.75 32.0977 98.7891 31.8242V30.8867C99.0625 30.3789 99.4336 29.9688 99.9023 29.6562C100.332 29.3047 100.801 29.0117 101.309 28.7773L102.832 28.0742C103.34 27.8398 103.809 27.5469 104.238 27.1953H104.766C105.469 27.2344 106.074 27.0977 106.582 26.7852C107.129 26.4727 107.637 26.1211 108.105 25.7305C108.574 25.3008 109.043 24.8711 109.512 24.4414C110.02 24.0117 110.566 23.6797 111.152 23.4453C111.582 23.6406 112.031 23.8164 112.5 23.9727C112.969 24.0898 113.457 24.168 113.965 24.207C114.473 24.207 115 24.1289 115.547 23.9727C116.094 23.8164 116.523 23.5234 116.836 23.0938C117.031 23.1719 117.188 23.2305 117.305 23.2695C117.461 23.2695 117.637 23.2695 117.832 23.2695C118.418 23.3086 119.004 23.2305 119.59 23.0352C120.176 22.8008 120.742 22.5273 121.289 22.2148C122.07 22.2539 122.832 22.2148 123.574 22.0977C124.355 21.9414 125.117 21.7852 125.859 21.6289C126.641 21.4727 127.402 21.3359 128.145 21.2188C128.926 21.0625 129.707 21.0039 130.488 21.043C131.777 21.082 133.047 20.9648 134.297 20.6914C135.547 20.418 136.816 20.3203 138.105 20.3984C139.004 20.4375 139.883 20.5156 140.742 20.6328C141.641 20.7109 142.539 20.7305 143.438 20.6914C143.945 20.9258 144.395 21.1406 144.785 21.3359C145.215 21.4922 145.742 21.5313 146.367 21.4531C147.617 22.5078 148.75 23.7383 149.766 25.1445V26.1406C149.727 27.0391 149.57 27.918 149.297 28.7773C149.023 29.6367 148.691 30.4961 148.301 31.3555C147.949 32.1758 147.559 32.9961 147.129 33.8164C146.699 34.5977 146.289 35.3789 145.898 36.1602C143.359 38.4648 140.82 40.75 138.281 43.0156C135.742 45.2812 133.125 47.4688 130.43 49.5781C130.352 49.9688 130.234 50.3203 130.078 50.6328C129.961 50.9453 129.883 51.2773 129.844 51.6289C129.844 51.8242 129.863 51.9805 129.902 52.0977C130.176 52.1758 130.41 52.332 130.605 52.5664C130.84 52.7617 130.918 53.0352 130.84 53.3867H131.367C131.562 53.3867 131.66 53.4648 131.66 53.6211L132.598 53.6797C134.082 53.7578 135.566 53.7188 137.051 53.5625C138.535 53.4062 140.02 53.2305 141.504 53.0352C143.027 52.8398 144.531 52.6641 146.016 52.5078C147.5 52.3125 148.984 52.1953 150.469 52.1562C150.82 52.0391 151.191 51.9414 151.582 51.8633C151.973 51.7852 152.324 51.6289 152.637 51.3945H152.812C153.086 51.3945 153.281 51.4727 153.398 51.6289C153.555 51.7852 153.77 51.8828 154.043 51.9219C154.238 51.9219 154.434 51.8828 154.629 51.8047C154.863 51.7266 155.098 51.668 155.332 51.6289C155.879 51.4727 156.445 51.375 157.031 51.3359C157.656 51.2969 158.262 51.2383 158.848 51.1602C161.113 50.9648 163.359 50.8477 165.586 50.8086C167.812 50.7305 170.039 50.4375 172.266 49.9297C172.461 50.2031 172.734 50.3984 173.086 50.5156C173.438 50.5938 173.809 50.6914 174.199 50.8086C174.59 50.8867 174.941 50.9844 175.254 51.1016C175.605 51.2188 175.84 51.4531 175.957 51.8047ZM190.312 21.6875C190.312 22.0391 190.156 22.332 189.844 22.5664C189.57 22.8008 189.434 22.9766 189.434 23.0938C189.434 23.3281 189.473 23.5039 189.551 23.6211C189.629 23.6992 189.668 23.7969 189.668 23.9141V24.207C189.277 24.5977 188.984 25.0273 188.789 25.4961C188.594 25.9258 188.438 26.3945 188.32 26.9023C188.203 27.3711 188.086 27.8594 187.969 28.3672C187.891 28.875 187.773 29.3633 187.617 29.832C187.422 30.3008 187.168 30.7109 186.855 31.0625C186.543 31.375 186.289 31.7461 186.094 32.1758C185.781 32.8789 185.547 33.6016 185.391 34.3438C185.234 35.0859 184.902 35.7695 184.395 36.3945V36.6875C184.355 36.9609 184.434 37.1953 184.629 37.3906C183.887 38.3672 183.301 39.5391 182.871 40.9062C182.441 42.2344 182.09 43.6406 181.816 45.125C181.543 46.5703 181.309 48.0352 181.113 49.5195C180.918 50.9648 180.684 52.2734 180.41 53.4453C180.605 54.3047 180.898 55.125 181.289 55.9062C181.719 56.6484 182.129 57.4297 182.52 58.25C183.301 58.4453 184.043 58.7188 184.746 59.0703C185.488 59.4219 186.016 59.9883 186.328 60.7695C186.25 61.5508 185.996 62.1562 185.566 62.5859C185.137 63.0156 184.609 63.4648 183.984 63.9336C183.555 63.7773 183.203 63.6406 182.93 63.5234C182.656 63.4453 182.246 63.4453 181.699 63.5234C180.957 62.9375 180.254 62.4688 179.59 62.1172C178.965 61.7656 178.398 61.1602 177.891 60.3008C177.812 60.1836 177.695 60.125 177.539 60.125H177.012C176.816 59.6562 176.582 59.168 176.309 58.6602C176.035 58.1133 175.762 57.5664 175.488 57.0195C175.215 56.4336 174.98 55.8672 174.785 55.3203C174.59 54.7344 174.492 54.207 174.492 53.7383C174.492 51.7461 174.668 49.7734 175.02 47.8203C175.41 45.8281 175.605 43.8164 175.605 41.7852V41.1992C174.824 41.3945 174.043 41.668 173.262 42.0195C172.52 42.3711 171.758 42.6445 170.977 42.8398C170.703 42.918 170.547 43.0547 170.508 43.25C170.469 43.4453 170.352 43.6016 170.156 43.7188C169.766 43.7578 169.395 43.7969 169.043 43.8359C168.691 43.8359 168.359 43.8359 168.047 43.8359C167.383 43.8359 166.68 43.8164 165.938 43.7773C165.234 43.6992 164.531 43.5625 163.828 43.3672C163.125 43.1719 162.461 42.8984 161.836 42.5469C161.25 42.1953 160.723 41.7461 160.254 41.1992C160.176 41.2383 160.078 41.2773 159.961 41.3164C159.844 41.3555 159.727 41.375 159.609 41.375C159.492 41.375 159.375 41.3555 159.258 41.3164C159.141 41.2773 159.043 41.2383 158.965 41.1992C158.652 40.7695 158.398 40.3008 158.203 39.793L157.617 38.2695C157.422 37.7617 157.207 37.2734 156.973 36.8047C156.738 36.3359 156.426 35.9062 156.035 35.5156C155.918 34.8125 155.859 34.1289 155.859 33.4648C155.859 32.7617 155.918 32.0781 156.035 31.4141C156.113 30.75 156.25 30.0859 156.445 29.4219C156.289 28.9531 156.191 28.4648 156.152 27.957C156.074 27.4492 156.035 26.9414 156.035 26.4336C156.035 25.8477 156.094 25.2422 156.211 24.6172C156.328 23.9922 156.523 23.4258 156.797 22.918C157.07 22.3711 157.461 21.9219 157.969 21.5703C158.438 21.2188 159.023 21.043 159.727 21.043C160.508 21.043 161.23 21.2578 161.895 21.6875C162.559 22.0781 163.203 22.4883 163.828 22.918C163.906 23.3867 163.965 23.8555 164.004 24.3242C164.043 24.7539 164.062 25.2227 164.062 25.7305C164.062 26.668 164.004 27.625 163.887 28.6016C163.809 29.5391 163.77 30.4961 163.77 31.4727C163.77 32.4883 163.887 33.4453 164.121 34.3438C164.395 35.2031 164.863 36.0234 165.527 36.8047H165.762C166.074 36.7656 166.348 36.8242 166.582 36.9805C166.816 37.1367 167.09 37.2148 167.402 37.2148C167.676 37.2148 167.891 37.1172 168.047 36.9219C168.203 36.6875 168.398 36.5703 168.633 36.5703C168.867 36.5703 169.043 36.6094 169.16 36.6875C169.277 36.7656 169.375 36.8047 169.453 36.8047C169.883 36.8047 170.371 36.6484 170.918 36.3359C171.465 36.0234 171.816 35.6719 171.973 35.2812C172.129 35.3984 172.324 35.457 172.559 35.457C172.871 35.457 173.164 35.3594 173.438 35.1641C173.711 34.9688 174.062 34.8711 174.492 34.8711C174.727 34.8711 174.805 34.7344 174.727 34.4609C174.688 34.1484 174.766 33.9531 174.961 33.875C175.43 33.6797 175.938 33.4062 176.484 33.0547C177.07 32.6641 177.539 32.4297 177.891 32.3516C178.086 31.8438 178.32 31.375 178.594 30.9453C178.906 30.4766 179.219 30.0469 179.531 29.6562C179.648 28.7578 179.883 27.8984 180.234 27.0781C180.586 26.2578 180.957 25.4375 181.348 24.6172C181.738 23.7969 182.109 22.9766 182.461 22.1562C182.812 21.3359 183.047 20.4766 183.164 19.5781C183.594 19.1484 183.926 18.6797 184.16 18.1719C184.434 17.6641 184.668 17.1562 184.863 16.6484C185.254 16.5312 185.742 16.4727 186.328 16.4727C186.914 16.4336 187.422 16.4141 187.852 16.4141H188.848C188.965 16.6484 189.121 16.8633 189.316 17.0586L189.902 17.6445C189.551 18.1914 189.375 18.7383 189.375 19.2852C189.375 19.7148 189.473 20.1445 189.668 20.5742C189.863 20.9648 190.078 21.3359 190.312 21.6875ZM226.406 2.23438C226.289 4.8125 226.035 7.39062 225.645 9.96875C225.254 12.5078 224.805 15.0469 224.297 17.5859C223.828 20.125 223.359 22.6641 222.891 25.2031C222.422 27.7422 222.051 30.3008 221.777 32.8789C222.09 32.8008 222.305 32.7617 222.422 32.7617C222.852 32.7617 223.379 32.9375 224.004 33.2891C224.629 33.6016 225.156 33.8359 225.586 33.9922V34.5195C225.586 34.7148 225.664 34.8125 225.82 34.8125V34.9883C225.82 35.5352 225.684 35.9844 225.41 36.3359C225.176 36.6484 225.039 37.0586 225 37.5664C224.648 37.8008 224.277 38.0352 223.887 38.2695C223.496 38.4648 223.164 38.7188 222.891 39.0312C222.734 39.2266 222.637 39.4609 222.598 39.7344C222.559 40.0078 222.441 40.2617 222.246 40.4961C222.051 40.8086 221.758 41.0625 221.367 41.2578C221.016 41.4141 220.742 41.6484 220.547 41.9609C220.391 42.2344 220.332 42.5469 220.371 42.8984C220.41 43.25 220.332 43.582 220.137 43.8945C219.98 44.0898 219.785 44.2461 219.551 44.3633C219.355 44.4805 219.199 44.6562 219.082 44.8906C218.887 45.3203 218.77 45.8281 218.73 46.4141C218.691 47 218.594 47.5469 218.438 48.0547C218.359 48.4844 218.242 48.875 218.086 49.2266C217.93 49.5781 217.852 49.9492 217.852 50.3398V50.6914C217.852 50.8867 217.773 51.0039 217.617 51.043C217.461 51.043 217.324 51.043 217.207 51.043C216.973 53.8555 216.699 56.6484 216.387 59.4219C216.074 62.1562 215.918 64.9297 215.918 67.7422V69.8516C215.918 70.0859 216.016 70.2422 216.211 70.3203C216.445 70.3984 216.562 70.5742 216.562 70.8477C216.562 71.0039 216.543 71.1406 216.504 71.2578C216.504 71.4141 216.504 71.5703 216.504 71.7266C216.504 72.3906 216.641 73.0547 216.914 73.7188C217.188 74.3828 217.402 75.0469 217.559 75.7109L217.852 77.293C217.93 77.6445 218.086 77.9766 218.32 78.2891C218.594 78.6406 218.867 78.9922 219.141 79.3438C219.414 79.6953 219.668 80.0859 219.902 80.5156C220.137 80.9844 220.293 81.5117 220.371 82.0977C220.059 82.5664 219.57 82.8789 218.906 83.0352C218.242 83.2305 217.676 83.4844 217.207 83.7969C217.246 83.2891 217.148 82.8984 216.914 82.625C216.719 82.3906 216.465 82.1758 216.152 81.9805C215.879 81.8242 215.586 81.668 215.273 81.5117C214.961 81.3555 214.707 81.1406 214.512 80.8672C213.691 79.6953 213.008 78.3867 212.461 76.9414C211.953 75.5352 211.543 74.0703 211.23 72.5469C210.918 71.0234 210.703 69.5 210.586 67.9766C210.469 66.4531 210.41 65.0078 210.41 63.6406V62C210.41 61.4922 210.43 60.9648 210.469 60.418C210.508 59.793 210.566 59.1875 210.645 58.6016C210.762 57.9766 210.781 57.332 210.703 56.668C211.25 55.2227 211.621 53.6797 211.816 52.0391C212.051 50.3594 212.246 48.7578 212.402 47.2344C211.426 47.4297 210.352 47.8008 209.18 48.3477C208.008 48.8945 207.031 49.5 206.25 50.1641C205.781 49.8906 205.312 49.7539 204.844 49.7539C204.102 49.7539 203.398 49.9102 202.734 50.2227C202.109 50.4961 201.426 50.6328 200.684 50.6328C200.41 50.6328 200.195 50.6133 200.039 50.5742C199.883 50.5352 199.746 50.4766 199.629 50.3984C199.512 50.3203 199.375 50.2422 199.219 50.1641C199.102 50.0859 198.926 50.0078 198.691 49.9297C197.871 49.6562 197.148 49.3633 196.523 49.0508C195.898 48.7383 195.352 48.3672 194.883 47.9375C194.414 47.4688 194.004 46.9219 193.652 46.2969C193.34 45.6719 193.066 44.9102 192.832 44.0117C192.754 43.6211 192.656 43.1914 192.539 42.7227C192.461 42.2539 192.422 41.8047 192.422 41.375C192.422 41.0625 192.5 40.5938 192.656 39.9688C192.812 39.3438 192.891 38.7383 192.891 38.1523C192.891 37.8789 192.852 37.5859 192.773 37.2734C192.734 36.9609 192.617 36.707 192.422 36.5117C192.773 35.8086 193.027 35.0859 193.184 34.3438C193.379 33.5625 193.555 32.7812 193.711 32C193.867 31.1797 194.043 30.3984 194.238 29.6562C194.434 28.875 194.746 28.1328 195.176 27.4297C195.137 25.9844 195.234 24.7344 195.469 23.6797C195.703 22.5859 196.152 21.3945 196.816 20.1055V19.9297C196.816 19.2266 196.895 18.6211 197.051 18.1133C197.207 17.6055 197.402 17.1367 197.637 16.707C197.871 16.2383 198.125 15.7891 198.398 15.3594C198.672 14.9297 198.906 14.4219 199.102 13.8359C199.531 13.5234 199.98 13.3086 200.449 13.1914C200.957 13.0742 201.484 13.0156 202.031 13.0156C202.852 13.0156 203.652 13.1523 204.434 13.4258C204.629 13.7383 204.805 14.0508 204.961 14.3633C205.156 14.6758 205.254 15.0469 205.254 15.4766C205.254 15.8281 205.176 16.1211 205.02 16.3555C204.902 16.5898 204.727 16.8047 204.492 17C204.297 17.1562 204.082 17.332 203.848 17.5273C203.652 17.7227 203.477 17.9375 203.32 18.1719C202.93 18.7578 202.617 19.4219 202.383 20.1641C202.148 20.9062 201.953 21.6875 201.797 22.5078C201.641 23.2891 201.484 24.0703 201.328 24.8516C201.172 25.6328 200.996 26.3555 200.801 27.0195C200.723 27.2539 200.625 27.4687 200.508 27.6641C200.391 27.8594 200.293 28.0742 200.215 28.3086C199.98 28.9727 199.863 29.6953 199.863 30.4766C199.902 31.2578 199.883 32 199.805 32.7031C199.688 33.6797 199.531 34.6562 199.336 35.6328C199.18 36.5703 199.102 37.5469 199.102 38.5625C199.102 39.5781 199.219 40.5547 199.453 41.4922C199.727 42.3906 200.176 43.25 200.801 44.0703C201.035 43.9922 201.211 43.9531 201.328 43.9531C201.562 43.9531 201.797 44.0312 202.031 44.1875C202.266 44.3047 202.5 44.4023 202.734 44.4805C203.438 44.3242 204.102 44.1875 204.727 44.0703C205.352 43.9141 205.938 43.5625 206.484 43.0156C206.562 43.0156 206.66 43.0352 206.777 43.0742C206.934 43.0742 207.051 43.0742 207.129 43.0742C207.598 43.0742 207.988 42.9766 208.301 42.7812C208.652 42.5469 209.004 42.3125 209.355 42.0781C209.707 41.8438 210.078 41.6289 210.469 41.4336C210.898 41.2383 211.406 41.1406 211.992 41.1406C212.305 40.75 212.637 40.4375 212.988 40.2031C213.379 39.9688 213.73 39.6562 214.043 39.2656C214.199 38.25 214.375 37.1172 214.57 35.8672C214.766 34.6172 215.156 33.5625 215.742 32.7031C215.703 32.5078 215.684 32.3125 215.684 32.1172V31.5312C215.684 29.9688 215.859 28.4453 216.211 26.9609C216.602 25.4375 216.777 23.9141 216.738 22.3906C217.051 22.1172 217.285 21.7852 217.441 21.3945C217.637 21.0039 217.793 20.5938 217.91 20.1641C218.027 19.7344 218.145 19.3242 218.262 18.9336C218.418 18.5039 218.613 18.1133 218.848 17.7617C218.77 17.5664 218.73 17.3516 218.73 17.1172C218.73 16.8438 218.633 16.6484 218.438 16.5312C218.516 16.2578 218.672 15.9453 218.906 15.5938C219.141 15.2422 219.258 14.9297 219.258 14.6562C219.258 14.4609 219.238 14.2656 219.199 14.0703C219.199 13.875 219.199 13.6797 219.199 13.4844C219.199 13.0547 219.258 12.6641 219.375 12.3125C219.531 11.9609 219.727 11.6289 219.961 11.3164C219.844 10.9258 219.785 10.5156 219.785 10.0859C219.785 9.14844 219.961 8.25 220.312 7.39062C220.664 6.53125 220.84 5.63281 220.84 4.69531V4.34375C220.84 4.1875 220.82 4.05078 220.781 3.93359C221.055 3.38672 221.27 2.91797 221.426 2.52734C221.582 2.13672 221.641 1.62891 221.602 1.00391C221.875 0.886719 222.148 0.828125 222.422 0.828125C223.047 0.828125 223.691 1.02344 224.355 1.41406C225.059 1.80469 225.742 2.07813 226.406 2.23438ZM291.27 29.5977C291.152 29.9492 290.918 30.2031 290.566 30.3594C290.254 30.4766 289.922 30.5742 289.57 30.6523C289.219 30.7305 288.887 30.8672 288.574 31.0625C288.301 31.2188 288.125 31.4922 288.047 31.8828L287.93 31.9414C287.773 31.9414 287.656 31.9023 287.578 31.8242C287.539 31.707 287.5 31.6094 287.461 31.5312C287.422 31.4141 287.363 31.3164 287.285 31.2383C287.246 31.1211 287.168 31.0625 287.051 31.0625C286.621 31.0625 286.191 31.1016 285.762 31.1797C285.371 31.2578 284.98 31.2969 284.59 31.2969C284.004 31.2969 283.477 31.2188 283.008 31.0625C282.734 31.1406 282.578 31.3164 282.539 31.5898C282.539 31.8633 282.422 32.0391 282.188 32.1172C281.992 32.1953 281.758 32.2344 281.484 32.2344C281.211 32.1953 280.938 32.2148 280.664 32.293L278.789 32.7617C278.164 32.918 277.539 32.9961 276.914 32.9961C276.562 32.9961 276.309 32.9766 276.152 32.9375C275.566 33.4062 274.902 33.7578 274.16 33.9922C273.418 34.1875 272.637 34.3828 271.816 34.5781C271.035 34.7344 270.254 34.9492 269.473 35.2227C268.73 35.4961 268.066 35.9258 267.48 36.5117C267.168 36.4336 266.895 36.3945 266.66 36.3945C266.152 36.3945 265.703 36.5117 265.312 36.7461C264.922 36.9414 264.512 37.1367 264.082 37.332C263.887 37.4102 263.691 37.4492 263.496 37.4492C263.301 37.4492 263.086 37.4883 262.852 37.5664C262.617 37.6445 262.461 37.7812 262.383 37.9766C262.344 38.1328 262.227 38.2891 262.031 38.4453C262.031 39.8516 262.168 41.2578 262.441 42.6641C262.715 44.0312 262.852 45.418 262.852 46.8242V47.0586C262.93 47.7227 263.145 48.3477 263.496 48.9336C263.848 49.4805 264.023 50.0469 264.023 50.6328C264.023 50.8281 263.984 51.043 263.906 51.2773C264.922 51.5117 265.586 52.0391 265.898 52.8594C266.25 53.6406 266.523 54.5 266.719 55.4375C266.953 56.3359 267.246 57.1758 267.598 57.957C267.988 58.7383 268.73 59.2266 269.824 59.4219C269.902 59.8125 269.961 60.2227 270 60.6523C270.039 61.043 270.059 61.4336 270.059 61.8242C270.059 62.3711 270 62.8984 269.883 63.4062C269.766 63.9531 269.531 64.4414 269.18 64.8711C268.594 64.9102 268.164 64.9297 267.891 64.9297C267.617 64.9297 267.207 65.0469 266.66 65.2812C265.879 64.8125 265.176 64.2656 264.551 63.6406C263.965 63.0547 263.398 62.4297 262.852 61.7656C262.344 61.0625 261.836 60.3594 261.328 59.6562C260.82 58.9141 260.273 58.2109 259.688 57.5469C257.656 58.0547 255.566 58.4062 253.418 58.6016C251.309 58.7578 249.199 58.8359 247.09 58.8359C247.012 58.9141 246.895 58.9531 246.738 58.9531C246.582 58.9531 246.426 58.9727 246.27 59.0117C246.152 59.0117 246.035 59.0508 245.918 59.1289C245.84 59.168 245.82 59.2656 245.859 59.4219C245.586 59.2656 245.273 59.168 244.922 59.1289C244.609 59.0508 244.316 59.0117 244.043 59.0117C243.848 59.0117 243.652 59.0312 243.457 59.0703C243.262 59.0703 243.066 59.1289 242.871 59.2461C241.387 58.9727 239.941 58.6016 238.535 58.1328C237.168 57.625 235.762 57.2148 234.316 56.9023C234.316 56.5898 234.238 56.375 234.082 56.2578C233.926 56.1016 233.789 55.8867 233.672 55.6133C232.031 54.5977 230.645 53.3672 229.512 51.9219C228.418 50.4766 227.969 48.7188 228.164 46.6484L227.754 45.8281C227.754 45.2031 227.891 44.7539 228.164 44.4805C228.008 44.207 227.734 43.9336 227.344 43.6602C227.695 43.1133 228.008 42.5469 228.281 41.9609C228.555 41.375 228.75 40.75 228.867 40.0859C228.906 39.8906 228.926 39.7148 228.926 39.5586C228.926 39.4023 228.965 39.2266 229.043 39.0312C229.121 38.7969 229.238 38.543 229.395 38.2695C229.512 37.957 229.629 37.6836 229.746 37.4492C230.371 36.1211 231.055 34.8516 231.797 33.6406C232.578 32.3906 233.555 31.3164 234.727 30.418C234.805 29.7539 235 29.207 235.312 28.7773C235.625 28.3086 235.957 27.8984 236.309 27.5469C236.699 27.1563 237.07 26.7656 237.422 26.375C237.812 25.9844 238.105 25.5156 238.301 24.9688C239.082 24.3047 239.863 23.6602 240.645 23.0352C241.465 22.4102 242.148 21.668 242.695 20.8086C243.398 20.5742 244.062 20.2812 244.688 19.9297C245.312 19.5391 245.84 19.0508 246.27 18.4648C247.207 18.3867 248.125 18.2109 249.023 17.9375C249.961 17.6641 250.938 17.5273 251.953 17.5273C252.383 17.5273 252.891 17.625 253.477 17.8203C254.102 17.9766 254.57 18.2695 254.883 18.6992C254.922 18.7773 254.941 18.875 254.941 18.9922L255 19.2852C255.039 19.3633 255.078 19.4414 255.117 19.5195C255.195 19.5586 255.312 19.5586 255.469 19.5195C255.469 20.3789 255.371 21.2578 255.176 22.1562C254.98 23.0156 254.473 23.6797 253.652 24.1484C253.145 23.9922 252.598 23.9141 252.012 23.9141C251.23 23.9141 250.508 24.0703 249.844 24.3828C249.219 24.6562 248.594 24.9883 247.969 25.3789C247.383 25.7305 246.777 26.1016 246.152 26.4922C245.527 26.8438 244.863 27.0977 244.16 27.2539C244.082 27.5664 244.004 27.8594 243.926 28.1328C243.887 28.3672 243.906 28.6406 243.984 28.9531C243.789 28.9531 243.633 28.9336 243.516 28.8945C243.438 28.8164 243.301 28.7773 243.105 28.7773C242.832 28.7773 242.637 28.9336 242.52 29.2461C242.441 29.5586 242.363 29.8125 242.285 30.0078C241.543 30.3203 240.918 30.7695 240.41 31.3555C239.941 31.9023 239.492 32.5078 239.062 33.1719C238.672 33.7969 238.242 34.4023 237.773 34.9883C237.305 35.5742 236.719 36.0234 236.016 36.3359C235.703 37.5859 235.391 38.8164 235.078 40.0273C234.805 41.2383 234.473 42.4492 234.082 43.6602C234.199 44.1289 234.258 44.6172 234.258 45.125C234.258 45.75 234.199 46.3164 234.082 46.8242C234.277 47.1367 234.473 47.5078 234.668 47.9375L235.371 49.2852C235.605 49.7539 235.84 50.1836 236.074 50.5742C236.348 50.9648 236.602 51.2578 236.836 51.4531C237.266 51.7656 237.93 52.0586 238.828 52.332C239.727 52.5664 240.527 52.9766 241.23 53.5625C241.309 53.5625 241.406 53.5625 241.523 53.5625C241.641 53.5234 241.738 53.5039 241.816 53.5039C242.285 53.5039 242.793 53.6211 243.34 53.8555C243.887 54.0898 244.238 54.207 244.395 54.207C246.582 54.207 248.965 54.0703 251.543 53.7969C254.121 53.4844 256.504 53.1133 258.691 52.6836C258.77 52.293 258.809 51.9609 258.809 51.6875C258.809 51.1797 258.73 50.6914 258.574 50.2227C258.418 49.7148 258.164 49.2852 257.812 48.9336C257.812 48.3477 257.812 47.7617 257.812 47.1758C257.852 46.5898 257.871 46.0039 257.871 45.418C257.871 44.4414 257.832 43.4062 257.754 42.3125C257.676 41.2188 257.48 40.2031 257.168 39.2656H257.051C256.543 39.2656 256.074 39.4023 255.645 39.6758C255.254 39.9102 254.844 40.0273 254.414 40.0273C254.18 40.0273 253.984 39.9688 253.828 39.8516C253.359 40.3984 252.793 40.8086 252.129 41.082C251.465 41.3555 250.762 41.6094 250.02 41.8438C249.277 42.0391 248.535 42.2539 247.793 42.4883C247.09 42.7227 246.445 43.0547 245.859 43.4844C245.547 43.3672 245.254 43.3086 244.98 43.3086C244.707 43.3086 244.434 43.3281 244.16 43.3672C243.926 43.4062 243.652 43.4453 243.34 43.4844C242.52 42.7812 242.109 41.9023 242.109 40.8477C242.109 40.3008 242.188 39.7734 242.344 39.2656C242.539 38.7188 242.793 38.2109 243.105 37.7422C243.301 37.625 243.535 37.5664 243.809 37.5664C244.082 37.5273 244.355 37.4883 244.629 37.4492C244.902 37.3711 245.117 37.2734 245.273 37.1562C245.469 37.0391 245.586 36.8242 245.625 36.5117C245.742 36.6289 245.84 36.6875 245.918 36.6875C245.996 36.6875 246.074 36.668 246.152 36.6289C246.23 36.5898 246.309 36.5703 246.387 36.5703C246.465 36.5703 246.523 36.6094 246.562 36.6875C246.641 36.7656 246.68 36.8438 246.68 36.9219C248.359 36.0234 250.078 35.2617 251.836 34.6367C253.594 34.0117 255.371 33.4453 257.168 32.9375C259.004 32.4297 260.84 31.9609 262.676 31.5312C264.512 31.0625 266.328 30.5547 268.125 30.0078C268.398 29.7734 268.691 29.5977 269.004 29.4805C269.316 29.3633 269.59 29.1875 269.824 28.9531C270.098 29.1094 270.43 29.1875 270.82 29.1875C271.367 29.1875 271.953 29.0898 272.578 28.8945C273.242 28.6602 273.789 28.3867 274.219 28.0742C274.375 28.1133 274.512 28.1328 274.629 28.1328H275.039C275.82 28.1328 276.543 28.0156 277.207 27.7812C277.91 27.5469 278.594 27.2344 279.258 26.8438H279.551C280.762 26.8438 281.953 26.707 283.125 26.4336C284.336 26.1602 285.566 26.0234 286.816 26.0234C288.418 26.0234 289.824 26.4336 291.035 27.2539V27.957C291.035 28.2695 291.035 28.5625 291.035 28.8359C291.074 29.0703 291.152 29.3242 291.27 29.5977ZM306.27 46.9414C306.27 47.3711 306.113 47.7031 305.801 47.9375C305.488 48.1328 305.332 48.4062 305.332 48.7578C305.332 48.9141 305.41 49.1094 305.566 49.3438C305.02 49.3438 304.648 49.5195 304.453 49.8711C304.258 50.2227 304.062 50.6133 303.867 51.043H303.105C302.91 51.043 302.754 51.082 302.637 51.1602C302.52 51.2383 302.402 51.3555 302.285 51.5117C302.207 51.6289 302.09 51.8242 301.934 52.0977C301.191 52.2539 300.469 52.5078 299.766 52.8594C299.102 53.1719 298.438 53.5234 297.773 53.9141C297.148 54.2656 296.504 54.6367 295.84 55.0273C295.176 55.3789 294.492 55.6719 293.789 55.9062C293.438 56.4922 292.93 56.9609 292.266 57.3125H292.09C291.895 57.3516 291.719 57.332 291.562 57.2539C291.445 57.1367 291.289 57.0781 291.094 57.0781C290.977 57.0781 290.898 57.0977 290.859 57.1367C289.688 57.918 288.379 58.3086 286.934 58.3086C286.543 58.3086 286.172 58.2891 285.82 58.25C285.469 58.1719 285.098 58.1328 284.707 58.1328C284.59 58.1328 284.512 58.1719 284.473 58.25L284.355 58.4844C284.316 58.5625 284.258 58.6406 284.18 58.7188C284.141 58.7969 284.004 58.8359 283.77 58.8359C283.34 58.8359 282.91 58.7773 282.48 58.6602C282.051 58.543 281.602 58.5234 281.133 58.6016C280.234 58.0938 279.531 57.6055 279.023 57.1367C278.516 56.668 278.047 55.9648 277.617 55.0273C277.422 54.5977 277.148 54.1875 276.797 53.7969C276.484 53.4062 276.25 52.9766 276.094 52.5078C276.055 52.3516 275.996 52.0781 275.918 51.6875C275.84 51.2578 275.762 50.8086 275.684 50.3398C275.605 49.8711 275.527 49.4219 275.449 48.9922C275.41 48.5625 275.391 48.2695 275.391 48.1133C275.391 47.6445 275.41 47.1953 275.449 46.7656C275.527 46.2969 275.605 45.8281 275.684 45.3594C275.918 43.875 276.074 42.3906 276.152 40.9062C276.27 39.3828 276.602 37.918 277.148 36.5117C277.07 36.082 277.031 35.6719 277.031 35.2812V33.9922C277.031 33.25 276.934 32.625 276.738 32.1172C277.051 31.6094 277.207 31.043 277.207 30.418C277.207 29.7148 276.914 29.3047 276.328 29.1875V29.0117C276.328 28.1914 276.055 27.5469 275.508 27.0781C275.508 25.7109 275.84 24.6953 276.504 24.0312C277.207 23.3281 278.125 22.7227 279.258 22.2148C279.414 21.9805 279.473 21.7852 279.434 21.6289C279.707 21.707 279.961 21.7852 280.195 21.8633C280.43 21.9414 280.664 21.9805 280.898 21.9805C281.289 21.9805 281.641 21.9219 281.953 21.8047C282.07 22.2734 282.363 22.5664 282.832 22.6836C283.34 22.7617 283.75 22.8789 284.062 23.0352V23.7969C284.062 25.0078 284.355 26.1602 284.941 27.2539C284.785 27.5664 284.688 27.8984 284.648 28.25C284.609 28.6016 284.59 28.9336 284.59 29.2461C284.59 29.7148 284.609 30.1836 284.648 30.6523C284.688 31.1211 284.707 31.5703 284.707 32C284.707 32.4688 284.648 32.9375 284.531 33.4062C284.453 33.875 284.238 34.2852 283.887 34.6367C283.848 35.1445 283.809 35.7305 283.77 36.3945C283.77 37.0195 283.73 37.6641 283.652 38.3281C283.613 38.9922 283.516 39.6367 283.359 40.2617C283.203 40.8867 282.969 41.3945 282.656 41.7852C282.617 42.3711 282.578 42.9766 282.539 43.6016C282.539 44.1875 282.539 44.7539 282.539 45.3008C282.539 46.1602 282.578 47.1758 282.656 48.3477C282.773 49.5195 283.047 50.4961 283.477 51.2773C283.672 51.5898 284.043 51.8242 284.59 51.9805C285.176 52.1367 285.645 52.2148 285.996 52.2148C286.426 52.2148 286.855 52.1562 287.285 52.0391C287.754 51.8828 288.086 51.6289 288.281 51.2773C288.516 51.3164 288.672 51.4336 288.75 51.6289C288.828 51.8242 288.965 51.9805 289.16 52.0977C291.387 51.1602 293.613 50.2617 295.84 49.4023C298.066 48.543 300.254 47.5469 302.402 46.4141C302.715 46.5703 303.047 46.6484 303.398 46.6484C303.789 46.6484 304.18 46.6094 304.57 46.5312C304.961 46.4531 305.352 46.4141 305.742 46.4141H306.152C306.23 46.6484 306.27 46.8242 306.27 46.9414ZM342.949 28.0742C342.715 28.4258 342.578 28.8164 342.539 29.2461C342.5 29.6758 342.48 30.0664 342.48 30.418C342.48 30.8867 342.48 31.3555 342.48 31.8242C342.52 32.2539 342.539 32.6836 342.539 33.1133V33.9922C342.461 34.2656 342.344 34.5391 342.188 34.8125C342.031 35.0859 341.914 35.3594 341.836 35.6328C341.289 37.0781 341.016 38.5234 341.016 39.9688V40.0859C340.82 40.5547 340.625 40.9844 340.43 41.375C340.273 41.7656 340.117 42.1562 339.961 42.5469C339.805 42.8984 339.688 43.2891 339.609 43.7188C339.531 44.1094 339.512 44.5781 339.551 45.125C339.004 46.4922 338.281 47.7422 337.383 48.875C336.484 49.9688 335.605 51.1016 334.746 52.2734C333.926 52.5859 333.164 52.9961 332.461 53.5039C331.797 54.0117 331.152 54.5781 330.527 55.2031C329.316 55.5938 328.125 56.043 326.953 56.5508C325.781 57.0586 324.727 57.7422 323.789 58.6016C323.047 58.6797 322.305 58.7969 321.562 58.9531C320.82 59.1094 320.098 59.3438 319.395 59.6562H318.691C318.34 59.6562 318.086 59.5781 317.93 59.4219C317.422 59.6953 316.895 59.8906 316.348 60.0078C315.801 60.0859 315.254 60.125 314.707 60.125C314.004 60.125 313.301 60.0859 312.598 60.0078C311.934 59.8906 311.25 59.7734 310.547 59.6562C310.156 59.1094 309.609 58.6992 308.906 58.4258C308.203 58.1133 307.578 57.8203 307.031 57.5469C305.898 55.9844 305.078 54.4805 304.57 53.0352C304.062 51.5508 303.535 49.8906 302.988 48.0547C303.066 47.5078 303.203 46.9805 303.398 46.4727C303.594 45.9258 303.672 45.3398 303.633 44.7148C304.336 42.6836 305.254 40.8477 306.387 39.207C307.559 37.5273 308.887 35.9258 310.371 34.4023C310.371 34.168 310.41 33.9727 310.488 33.8164C310.605 33.6602 310.625 33.4258 310.547 33.1133C310.586 33.1523 310.664 33.1719 310.781 33.1719C311.094 33.1719 311.289 33.0938 311.367 32.9375C311.445 32.7422 311.465 32.5273 311.426 32.293C312.832 31.3945 314.102 30.3594 315.234 29.1875C316.406 28.0156 317.734 27.0391 319.219 26.2578C319.336 25.9062 319.531 25.6133 319.805 25.3789C320.078 25.1445 320.293 24.8711 320.449 24.5586C321.699 24.207 322.832 23.6797 323.848 22.9766C324.863 22.2734 325.938 21.6484 327.07 21.1016C327.695 20.75 328.281 20.5156 328.828 20.3984C329.414 20.2422 330.039 20.0859 330.703 19.9297C330.938 19.8516 331.152 19.793 331.348 19.7539C331.543 19.7148 331.758 19.6953 331.992 19.6953C332.695 19.6953 333.379 19.832 334.043 20.1055C334.707 20.3398 335.391 20.457 336.094 20.457C336.289 20.457 336.445 20.457 336.562 20.457C336.719 20.418 336.875 20.3789 337.031 20.3398C337.695 21.1602 338.535 21.7852 339.551 22.2148C339.785 22.8008 340.059 23.3086 340.371 23.7383C340.723 24.168 341.074 24.5977 341.426 25.0273C341.777 25.418 342.09 25.8672 342.363 26.375C342.676 26.8438 342.871 27.4102 342.949 28.0742ZM337.09 31.1211C337.09 30.9258 337.07 30.75 337.031 30.5938C336.641 30.4766 336.27 30.3203 335.918 30.125C335.566 29.9297 335.176 29.832 334.746 29.832C334.473 29.832 334.199 29.8906 333.926 30.0078C333.887 29.7344 333.77 29.5391 333.574 29.4219C333.418 29.3047 333.223 29.207 332.988 29.1289C332.793 29.0117 332.578 28.9336 332.344 28.8945C332.148 28.8164 331.973 28.6992 331.816 28.543C331.699 28.2305 331.562 27.918 331.406 27.6055C331.289 27.2539 331.055 27 330.703 26.8438C330.352 27.1953 329.941 27.4883 329.473 27.7227C329.004 27.918 328.516 28.1133 328.008 28.3086C327.539 28.5039 327.07 28.7383 326.602 29.0117C326.172 29.2852 325.801 29.6172 325.488 30.0078H324.434C324.199 30.4375 323.867 30.7695 323.438 31.0039C323.008 31.1992 322.637 31.4922 322.324 31.8828C321.699 32.1953 321.113 32.5859 320.566 33.0547C320.059 33.4844 319.551 33.9531 319.043 34.4609C318.535 34.9297 318.027 35.418 317.52 35.9258C317.051 36.4336 316.543 36.9023 315.996 37.332C315.488 38.4258 314.922 39.3828 314.297 40.2031C313.711 40.9844 313.145 41.7852 312.598 42.6055C312.09 43.4258 311.641 44.3242 311.25 45.3008C310.898 46.2383 310.723 47.4102 310.723 48.8164V49.4023C310.723 49.5977 310.742 49.793 310.781 49.9883C311.289 50.5352 311.699 51.1211 312.012 51.7461C312.363 52.3711 312.93 52.8203 313.711 53.0938C314.492 53.4062 315.312 53.543 316.172 53.5039C317.07 53.4648 317.93 53.5625 318.75 53.7969C320.625 53.4453 322.422 52.8789 324.141 52.0977C325.898 51.2773 327.559 50.3008 329.121 49.168C329.355 48.9727 329.629 48.7773 329.941 48.582C330.254 48.3477 330.508 48.1133 330.703 47.8789C330.898 47.6836 331.055 47.4688 331.172 47.2344C331.328 47 331.484 46.7852 331.641 46.5898C331.953 46.082 332.305 45.5742 332.695 45.0664C333.086 44.5586 333.496 44.0898 333.926 43.6602C334.121 42.8008 334.375 41.9805 334.688 41.1992C335 40.3789 335.312 39.5781 335.625 38.7969C335.938 38.0156 336.191 37.2148 336.387 36.3945C336.621 35.5742 336.738 34.7148 336.738 33.8164C336.738 33.6211 336.719 33.4062 336.68 33.1719C336.68 32.9375 336.66 32.7227 336.621 32.5273C336.934 32.0977 337.09 31.6289 337.09 31.1211ZM390.938 20.6914C390.938 21.043 390.859 21.375 390.703 21.6875L390.293 22.5664C390.176 22.8398 390.059 23.1328 389.941 23.4453C389.824 23.7578 389.785 24.1289 389.824 24.5586C389.277 25.1836 388.73 25.7891 388.184 26.375C387.637 26.9609 387.148 27.625 386.719 28.3672C386.289 28.3281 385.957 28.4258 385.723 28.6602C385.527 28.8945 385.371 29.207 385.254 29.5977C384.434 29.8711 383.711 30.3008 383.086 30.8867C382.461 31.4336 381.914 32.0391 381.445 32.7031C379.375 33.5625 377.441 34.6172 375.645 35.8672C373.848 37.1172 372.207 38.582 370.723 40.2617C371.426 40.2617 372.109 40.3398 372.773 40.4961C373.477 40.6523 374.16 40.8281 374.824 41.0234C375.527 41.1797 376.211 41.3359 376.875 41.4922C377.539 41.6094 378.223 41.6289 378.926 41.5508C379.434 42.0195 380 42.4102 380.625 42.7227C381.289 43.0352 381.934 43.3281 382.559 43.6016C383.223 43.875 383.848 44.1875 384.434 44.5391C385.059 44.8906 385.605 45.3203 386.074 45.8281C386.074 45.9062 386.055 45.9844 386.016 46.0625C386.016 46.1016 386.016 46.1602 386.016 46.2383C386.016 46.5508 386.094 46.8633 386.25 47.1758C386.406 47.4492 386.484 47.7422 386.484 48.0547C386.289 48.3672 386.113 48.6992 385.957 49.0508C385.801 49.4023 385.605 49.7148 385.371 49.9883C385.176 50.2617 384.941 50.4961 384.668 50.6914C384.395 50.8867 384.023 51.0039 383.555 51.043C383.359 51.707 383.047 52.2344 382.617 52.625C382.188 52.9766 381.699 53.3086 381.152 53.6211C380.645 53.8945 380.137 54.1875 379.629 54.5C379.121 54.7734 378.691 55.1445 378.34 55.6133C377.168 55.8867 376.016 56.2773 374.883 56.7852C373.789 57.2539 372.812 57.9375 371.953 58.8359C371.367 58.9141 370.762 59.0117 370.137 59.1289C369.551 59.207 368.965 59.2461 368.379 59.2461C367.559 59.2461 366.895 59.0898 366.387 58.7773C365.879 58.4258 365.586 57.8008 365.508 56.9023C365.625 56.6289 365.801 56.3945 366.035 56.1992L366.797 55.6133C367.07 55.418 367.305 55.2227 367.5 55.0273C367.734 54.793 367.91 54.5195 368.027 54.207C368.105 54.207 368.203 54.2266 368.32 54.2656C368.438 54.2656 368.555 54.2656 368.672 54.2656C369.141 54.2656 369.512 54.168 369.785 53.9727C370.059 53.7773 370.312 53.582 370.547 53.3867C370.82 53.1914 371.113 53.0156 371.426 52.8594C371.738 52.7031 372.148 52.6445 372.656 52.6836C372.93 52.1758 373.34 51.8047 373.887 51.5703C374.434 51.2969 375 51.0625 375.586 50.8672C376.172 50.6328 376.719 50.3789 377.227 50.1055C377.773 49.793 378.145 49.3438 378.34 48.7578C378.145 48.4453 377.891 48.2109 377.578 48.0547C377.266 47.8594 376.914 47.7031 376.523 47.5859L375.41 47.2344C375.059 47.1172 374.746 46.9805 374.473 46.8242C374.043 46.9414 373.633 47 373.242 47C372.422 47 371.621 46.9219 370.84 46.7656C370.059 46.6094 369.258 46.5312 368.438 46.5312C367.695 46.5312 367.051 46.6289 366.504 46.8242C366.309 46.7852 366.094 46.7266 365.859 46.6484C365.664 46.5703 365.469 46.4922 365.273 46.4141C364.375 46.7656 363.438 46.9414 362.461 46.9414H358.652C358.34 46.9414 358.027 46.9805 357.715 47.0586C357.285 47.8398 357.07 48.6797 357.07 49.5781C357.07 50.2422 357.168 50.8867 357.363 51.5117C357.559 52.0977 357.754 52.7227 357.949 53.3867C358.73 54.0898 359.453 54.9297 360.117 55.9062C360.781 56.8438 361.113 57.8789 361.113 59.0117C361.113 59.2852 361.094 59.5 361.055 59.6562C360.664 59.3828 360.156 59.2461 359.531 59.2461C358.984 59.2461 358.457 59.3242 357.949 59.4805C357.48 59.6367 356.973 59.7539 356.426 59.832C355.996 59.6367 355.547 59.4414 355.078 59.2461C354.609 59.0117 354.16 58.7383 353.73 58.4258C353.418 57.7617 353.105 57.1367 352.793 56.5508C352.48 55.9258 352.09 55.3398 351.621 54.793V54.5586C351.621 53.1914 351.504 51.8438 351.27 50.5156C351.074 49.1875 350.977 47.8398 350.977 46.4727C350.977 45.8477 350.996 45.2227 351.035 44.5977C351.113 43.9336 351.309 43.3281 351.621 42.7812C351.504 41.8438 351.445 40.8672 351.445 39.8516C351.445 37.8203 351.562 35.7891 351.797 33.7578C352.031 31.7266 352.148 29.6562 352.148 27.5469C352.148 27.1172 352.129 26.6875 352.09 26.2578C352.09 25.8281 352.07 25.3984 352.031 24.9688H351.797C351.289 24.9688 350.801 25.0469 350.332 25.2031C349.863 25.3203 349.395 25.457 348.926 25.6133C348.457 25.7695 347.969 25.9258 347.461 26.082C346.953 26.1992 346.445 26.2578 345.938 26.2578C345.625 26.4141 345.371 26.5703 345.176 26.7266C344.98 26.8828 344.785 27.0195 344.59 27.1367C344.395 27.2539 344.18 27.3516 343.945 27.4297C343.672 27.5078 343.359 27.5273 343.008 27.4883C342.578 27.7617 342.246 27.9766 342.012 28.1328C341.738 28.25 341.367 28.3867 340.898 28.543C340.664 28.6211 340.469 28.7383 340.312 28.8945L339.844 29.3047C339.688 29.4219 339.512 29.5391 339.316 29.6562C339.121 29.7734 338.867 29.832 338.555 29.832C338.281 29.832 338.086 29.8125 337.969 29.7734C337.734 29.5781 337.539 29.3437 337.383 29.0703C337.188 28.7969 337.012 28.543 336.855 28.3086C336.66 28.0352 336.465 27.8008 336.27 27.6055C336.035 27.3711 335.762 27.1953 335.449 27.0781C335.605 26.8828 335.684 26.7266 335.684 26.6094C335.645 26.4531 335.625 26.2773 335.625 26.082C335.625 25.9648 335.645 25.8867 335.684 25.8477C335.879 25.1445 336.23 24.5977 336.738 24.207C337.246 23.7773 337.812 23.4453 338.438 23.2109C339.062 22.9375 339.707 22.7031 340.371 22.5078C340.996 22.3125 341.582 22.0781 342.129 21.8047C343.652 21.8437 345.039 21.707 346.289 21.3945C347.539 21.043 348.828 20.5547 350.156 19.9297C350.391 20.0469 350.625 20.1055 350.859 20.1055C351.055 20.1055 351.25 20.0859 351.445 20.0469L352.031 19.9297C352.5 19.5391 353.008 19.2852 353.555 19.168C354.102 19.0508 354.648 18.9531 355.195 18.875C355.742 18.7969 356.27 18.7188 356.777 18.6406C357.285 18.5234 357.734 18.3086 358.125 17.9961H358.359C359.297 17.9961 360.234 17.8398 361.172 17.5273C362.148 17.2148 363.086 17.0977 363.984 17.1758C364.766 16.7461 365.488 16.4727 366.152 16.3555C366.816 16.2383 367.578 16.1797 368.438 16.1797C368.633 16.1797 368.867 16.1016 369.141 15.9453C369.414 15.75 369.746 15.6523 370.137 15.6523C370.215 15.6523 370.273 15.6719 370.312 15.7109C370.391 15.7109 370.469 15.7109 370.547 15.7109C370.898 15.7109 371.133 15.5938 371.25 15.3594C371.406 15.125 371.777 15.0078 372.363 15.0078C372.637 15.0078 372.891 15.0273 373.125 15.0664C373.359 15.0664 373.594 15.0664 373.828 15.0664C374.102 15.0664 374.277 14.9688 374.355 14.7734C374.434 14.5391 374.609 14.4414 374.883 14.4805C375 14.6367 375.195 14.7148 375.469 14.7148C375.742 14.6758 375.957 14.6562 376.113 14.6562C376.387 14.6562 376.543 14.7344 376.582 14.8906C377.207 14.5 377.891 14.2461 378.633 14.1289C379.414 14.0117 380.156 13.9531 380.859 13.9531C381.133 13.9531 381.406 13.9727 381.68 14.0117C381.953 14.0117 382.246 14.0313 382.559 14.0703C382.91 13.8359 383.32 13.7188 383.789 13.7188C384.062 13.7188 384.492 13.8359 385.078 14.0703C385.703 14.3047 386.348 14.5781 387.012 14.8906C387.676 15.2031 388.281 15.5352 388.828 15.8867C389.375 16.2383 389.707 16.5312 389.824 16.7656C389.902 16.8438 389.941 17.0195 389.941 17.293C389.98 17.5664 390.039 17.8008 390.117 17.9961C390.312 18.4648 390.488 18.9141 390.645 19.3438C390.84 19.7344 390.938 20.1836 390.938 20.6914ZM384.434 21.3359C384.434 21.2578 384.414 21.1797 384.375 21.1016C384.375 20.9844 384.375 20.8867 384.375 20.8086C384.18 20.5742 383.906 20.3984 383.555 20.2812C383.242 20.1641 382.891 20.0664 382.5 19.9883C382.148 19.9102 381.777 19.8516 381.387 19.8125C381.035 19.7344 380.723 19.6367 380.449 19.5195C379.629 19.793 378.73 19.9297 377.754 19.9297C376.855 19.9297 376.055 19.793 375.352 19.5195C375 19.8711 374.551 20.1445 374.004 20.3398C373.457 20.5352 372.871 20.6914 372.246 20.8086C371.66 20.8867 371.055 20.9453 370.43 20.9844C369.844 20.9844 369.316 20.9844 368.848 20.9844C368.691 20.9844 368.418 21.1016 368.027 21.3359C367.637 21.5703 367.285 21.6875 366.973 21.6875C366.738 21.6875 366.523 21.5898 366.328 21.3945C365.977 21.668 365.488 21.9023 364.863 22.0977C364.238 22.293 363.594 22.4688 362.93 22.625C362.266 22.7422 361.582 22.8789 360.879 23.0352C360.215 23.1914 359.648 23.3477 359.18 23.5039C358.711 24.5195 358.457 25.6328 358.418 26.8438C358.379 28.0156 358.359 29.168 358.359 30.3008C358.359 30.9648 358.32 31.6094 358.242 32.2344C358.164 32.8594 358.125 33.5039 358.125 34.168C358.125 34.4805 358.145 34.8125 358.184 35.1641C358.223 35.4766 358.34 35.7891 358.535 36.1016C358.223 36.3359 358.008 36.6484 357.891 37.0391C357.812 37.3906 357.773 37.7422 357.773 38.0938C357.773 38.5234 357.812 38.9141 357.891 39.2656C357.969 39.6172 358.047 39.9492 358.125 40.2617C359.375 40.1445 360.508 39.9102 361.523 39.5586C362.578 39.207 363.555 38.7773 364.453 38.2695C365.391 37.7617 366.289 37.1758 367.148 36.5117C368.008 35.8477 368.906 35.1445 369.844 34.4023C370.234 34.3242 370.547 34.207 370.781 34.0508C371.055 33.8945 371.387 33.8164 371.777 33.8164C371.934 33.2695 372.227 32.8984 372.656 32.7031C373.086 32.4688 373.418 32.1367 373.652 31.707C374.121 31.5898 374.512 31.4336 374.824 31.2383C375.176 31.0039 375.508 30.7891 375.82 30.5938C376.133 30.3594 376.465 30.1445 376.816 29.9492C377.207 29.7539 377.637 29.6367 378.105 29.5977C378.77 28.8164 379.453 28.0352 380.156 27.2539C380.898 26.4727 381.758 25.8477 382.734 25.3789C382.891 24.9883 383.066 24.6562 383.262 24.3828C383.457 24.0703 383.633 23.7773 383.789 23.5039C383.984 23.1914 384.141 22.8789 384.258 22.5664C384.375 22.2148 384.434 21.8047 384.434 21.3359ZM435.293 57.7227C435.176 58.2695 434.922 58.7188 434.531 59.0703C434.18 59.3828 433.75 59.6367 433.242 59.832C432.734 60.0273 432.207 60.1641 431.66 60.2422C431.152 60.2812 430.684 60.3008 430.254 60.3008C430.059 60.3008 429.863 60.3008 429.668 60.3008C429.512 60.2617 429.336 60.2422 429.141 60.2422C428.945 60.2422 428.848 60.3398 428.848 60.5352C428.848 60.7305 428.75 60.8672 428.555 60.9453C428.359 60.8672 428.164 60.8086 427.969 60.7695C427.773 60.7305 427.578 60.7109 427.383 60.7109C427.109 60.7109 426.836 60.7305 426.562 60.7695C426.328 60.8086 426.094 60.8281 425.859 60.8281C425.547 60.8281 425.312 60.7891 425.156 60.7109C425.039 60.6328 424.922 60.5547 424.805 60.4766C424.727 60.3594 424.629 60.2422 424.512 60.125C424.434 60.0078 424.297 59.9102 424.102 59.832C423.828 59.7148 423.594 59.6953 423.398 59.7734C423.242 59.8516 422.988 59.7344 422.637 59.4219C422.168 59.0312 421.758 58.5625 421.406 58.0156C421.094 57.4297 420.781 56.8242 420.469 56.1992C420.156 55.5742 419.824 54.9492 419.473 54.3242C419.121 53.6992 418.711 53.1523 418.242 52.6836H417.773C417.07 52.6836 416.582 52.9766 416.309 53.5625C416.113 53.4453 415.918 53.3086 415.723 53.1523C415.527 52.957 415.312 52.8008 415.078 52.6836C414.18 52.957 413.242 53.1914 412.266 53.3867C411.289 53.582 410.312 53.6797 409.336 53.6797H408.516C408.281 53.6797 408.027 53.6406 407.754 53.5625C407.363 53.7188 407.012 53.9141 406.699 54.1484C406.387 54.3438 406.035 54.4414 405.645 54.4414C405.41 54.4414 405.137 54.3633 404.824 54.207C404.59 54.207 404.473 54.3047 404.473 54.5C404.512 54.6953 404.395 54.793 404.121 54.793H403.594C403.047 54.793 402.5 54.8125 401.953 54.8516C401.445 54.8906 400.918 54.9102 400.371 54.9102C399.629 54.9102 398.867 54.8125 398.086 54.6172C397.891 54.7344 397.676 54.793 397.441 54.793C397.285 54.8711 397.168 55.0078 397.09 55.2031C397.012 55.3594 396.934 55.5156 396.855 55.6719C396.777 55.7891 396.66 55.9062 396.504 56.0234C396.387 56.1016 396.211 56.1211 395.977 56.082C395.898 56.5508 395.703 56.9219 395.391 57.1953C395.078 57.4688 394.922 57.8789 394.922 58.4258C394.492 58.6602 394.141 58.9531 393.867 59.3047C393.594 59.6562 393.32 60.0273 393.047 60.418C392.773 60.8086 392.48 61.1797 392.168 61.5312C391.895 61.8828 391.543 62.1562 391.113 62.3516C390.918 62.5859 390.859 62.957 390.938 63.4648C390.508 63.8164 389.98 64.1289 389.355 64.4023C388.73 64.6758 388.145 64.8125 387.598 64.8125C386.465 64.8125 385.684 64.207 385.254 62.9961C385.254 62.6055 385.293 62.1953 385.371 61.7656C385.41 61.2969 385.488 60.8672 385.605 60.4766C385.723 60.0469 385.898 59.6758 386.133 59.3633C386.367 59.0117 386.699 58.7578 387.129 58.6016C387.129 58.25 387.012 58.0156 386.777 57.8984C386.543 57.7422 386.445 57.4883 386.484 57.1367C387.539 56.6289 388.457 55.9648 389.238 55.1445C390.02 54.3242 390.723 53.4648 391.348 52.5664C392.012 51.6289 392.676 50.6914 393.34 49.7539C394.004 48.8164 394.746 47.9766 395.566 47.2344V46.0039C396.738 44.7539 397.5 43.3477 397.852 41.7852C398.281 41.707 398.555 41.5117 398.672 41.1992C398.828 40.8867 398.906 40.5156 398.906 40.0859C399.102 40.0859 399.219 40.0078 399.258 39.8516C399.336 39.6562 399.512 39.5977 399.785 39.6758C400.137 38.7383 400.527 37.8789 400.957 37.0977C401.387 36.3164 401.816 35.5352 402.246 34.7539C402.676 33.9336 403.047 33.0938 403.359 32.2344C403.711 31.375 403.965 30.418 404.121 29.3633C404.668 29.3242 404.961 29.0703 405 28.6016C405.078 28.0938 405.156 27.6445 405.234 27.2539C405.82 26.707 406.25 26.0625 406.523 25.3203C406.836 24.5781 407.109 23.8164 407.344 23.0352C407.578 22.2148 407.832 21.4141 408.105 20.6328C408.418 19.8125 408.848 19.0898 409.395 18.4648V18.2891C409.395 18.0937 409.316 17.9766 409.16 17.9375C409.004 17.8594 408.926 17.7227 408.926 17.5273C408.965 17.4883 408.984 17.4492 408.984 17.4102C409.453 17.2148 409.805 16.9023 410.039 16.4727C410.273 16.0039 410.625 15.6719 411.094 15.4766C411.914 16.1406 412.637 16.5508 413.262 16.707C413.887 16.8242 414.707 16.9219 415.723 17C416.23 17.5469 416.504 18.2109 416.543 18.9922C416.621 19.7344 416.758 20.4766 416.953 21.2188C417.266 22.4688 417.598 23.6992 417.949 24.9102C418.34 26.082 418.633 27.293 418.828 28.543C418.945 29.2852 419.16 29.9883 419.473 30.6523C419.785 31.3164 420 32 420.117 32.7031C420.195 33.25 420.195 33.875 420.117 34.5781C420.039 35.2422 420.117 35.8281 420.352 36.3359L420.762 37.2734C420.957 37.7031 421.113 38.1523 421.23 38.6211C421.387 39.0898 421.523 39.5586 421.641 40.0273C421.953 41.1992 422.227 42.4688 422.461 43.8359C422.734 45.1641 423.145 46.375 423.691 47.4688C423.887 47.8594 424.18 48.1328 424.57 48.2891C425 48.4453 425.469 48.5625 425.977 48.6406C426.484 48.6797 426.973 48.6992 427.441 48.6992C427.949 48.6602 428.379 48.6406 428.73 48.6406H429.316C429.551 48.6406 429.785 48.6797 430.02 48.7578C430.176 49.0703 430.254 49.3438 430.254 49.5781C430.254 50.0469 430.098 50.418 429.785 50.6914C429.473 50.9648 429.316 51.2773 429.316 51.6289C429.316 51.8242 429.395 52.0391 429.551 52.2734C429.395 52.2344 429.16 52.2148 428.848 52.2148C427.949 52.2148 427.07 52.3711 426.211 52.6836C426.523 53.3477 426.934 53.9141 427.441 54.3828C427.988 54.8125 428.555 55.2227 429.141 55.6133C429.531 55.3008 429.941 55.1445 430.371 55.1445C430.84 55.1445 431.27 55.2617 431.66 55.4961C432.09 55.6914 432.539 55.7891 433.008 55.7891C433.359 55.7891 433.613 55.7305 433.77 55.6133C434.082 55.9648 434.336 56.3359 434.531 56.7266C434.727 57.0781 434.98 57.4102 435.293 57.7227ZM416.953 48.3477C416.875 47.6836 416.738 47.2148 416.543 46.9414C416.387 46.6289 416.25 46.2578 416.133 45.8281C415.977 45.2812 415.859 44.6953 415.781 44.0703C415.742 43.4453 415.664 42.8398 415.547 42.2539C415.273 40.9258 414.961 39.5977 414.609 38.2695C414.297 36.9414 413.887 35.6523 413.379 34.4023C413.535 34.168 413.613 33.9531 413.613 33.7578V33.582C413.262 33.1914 413.008 32.7227 412.852 32.1758C412.695 31.5898 412.539 31.0234 412.383 30.4766C412.266 29.8906 412.09 29.3633 411.855 28.8945C411.66 28.3867 411.328 27.9766 410.859 27.6641C410.742 27.8984 410.684 28.1719 410.684 28.4844C410.684 28.7578 410.703 29.0117 410.742 29.2461C410.82 29.4805 410.859 29.7344 410.859 30.0078C410.469 30.2031 410.176 30.5156 409.98 30.9453C409.824 31.3359 409.551 31.6484 409.16 31.8828C408.848 33.1328 408.398 34.3242 407.812 35.457C407.227 36.5508 406.602 37.6445 405.938 38.7383C405.312 39.832 404.707 40.9453 404.121 42.0781C403.535 43.1719 403.066 44.3242 402.715 45.5352C402.207 45.8867 401.855 46.3359 401.66 46.8828C401.504 47.4297 401.426 47.9766 401.426 48.5234C401.777 48.7188 402.168 48.8359 402.598 48.875C403.066 48.875 403.516 48.875 403.945 48.875C404.375 48.875 404.785 48.9141 405.176 48.9922C405.566 49.0703 405.918 49.2656 406.23 49.5781C406.738 49.4219 407.285 49.3242 407.871 49.2852C408.496 49.207 409.004 49.0312 409.395 48.7578C410.176 49.0312 411.016 49.168 411.914 49.168C412.383 49.168 412.832 49.1289 413.262 49.0508C413.73 48.9727 414.18 48.875 414.609 48.7578C414.961 48.8359 415.234 48.9727 415.43 49.168C415.625 49.3242 415.918 49.3828 416.309 49.3438C416.504 49.1875 416.621 49.0312 416.66 48.875C416.699 48.6797 416.797 48.5039 416.953 48.3477ZM466.758 46.9414C466.758 47.3711 466.602 47.7031 466.289 47.9375C465.977 48.1328 465.82 48.4062 465.82 48.7578C465.82 48.9141 465.898 49.1094 466.055 49.3438C465.508 49.3438 465.137 49.5195 464.941 49.8711C464.746 50.2227 464.551 50.6133 464.355 51.043H463.594C463.398 51.043 463.242 51.082 463.125 51.1602C463.008 51.2383 462.891 51.3555 462.773 51.5117C462.695 51.6289 462.578 51.8242 462.422 52.0977C461.68 52.2539 460.957 52.5078 460.254 52.8594C459.59 53.1719 458.926 53.5234 458.262 53.9141C457.637 54.2656 456.992 54.6367 456.328 55.0273C455.664 55.3789 454.98 55.6719 454.277 55.9062C453.926 56.4922 453.418 56.9609 452.754 57.3125H452.578C452.383 57.3516 452.207 57.332 452.051 57.2539C451.934 57.1367 451.777 57.0781 451.582 57.0781C451.465 57.0781 451.387 57.0977 451.348 57.1367C450.176 57.918 448.867 58.3086 447.422 58.3086C447.031 58.3086 446.66 58.2891 446.309 58.25C445.957 58.1719 445.586 58.1328 445.195 58.1328C445.078 58.1328 445 58.1719 444.961 58.25L444.844 58.4844C444.805 58.5625 444.746 58.6406 444.668 58.7188C444.629 58.7969 444.492 58.8359 444.258 58.8359C443.828 58.8359 443.398 58.7773 442.969 58.6602C442.539 58.543 442.09 58.5234 441.621 58.6016C440.723 58.0938 440.02 57.6055 439.512 57.1367C439.004 56.668 438.535 55.9648 438.105 55.0273C437.91 54.5977 437.637 54.1875 437.285 53.7969C436.973 53.4062 436.738 52.9766 436.582 52.5078C436.543 52.3516 436.484 52.0781 436.406 51.6875C436.328 51.2578 436.25 50.8086 436.172 50.3398C436.094 49.8711 436.016 49.4219 435.938 48.9922C435.898 48.5625 435.879 48.2695 435.879 48.1133C435.879 47.6445 435.898 47.1953 435.938 46.7656C436.016 46.2969 436.094 45.8281 436.172 45.3594C436.406 43.875 436.562 42.3906 436.641 40.9062C436.758 39.3828 437.09 37.918 437.637 36.5117C437.559 36.082 437.52 35.6719 437.52 35.2812V33.9922C437.52 33.25 437.422 32.625 437.227 32.1172C437.539 31.6094 437.695 31.043 437.695 30.418C437.695 29.7148 437.402 29.3047 436.816 29.1875V29.0117C436.816 28.1914 436.543 27.5469 435.996 27.0781C435.996 25.7109 436.328 24.6953 436.992 24.0312C437.695 23.3281 438.613 22.7227 439.746 22.2148C439.902 21.9805 439.961 21.7852 439.922 21.6289C440.195 21.707 440.449 21.7852 440.684 21.8633C440.918 21.9414 441.152 21.9805 441.387 21.9805C441.777 21.9805 442.129 21.9219 442.441 21.8047C442.559 22.2734 442.852 22.5664 443.32 22.6836C443.828 22.7617 444.238 22.8789 444.551 23.0352V23.7969C444.551 25.0078 444.844 26.1602 445.43 27.2539C445.273 27.5664 445.176 27.8984 445.137 28.25C445.098 28.6016 445.078 28.9336 445.078 29.2461C445.078 29.7148 445.098 30.1836 445.137 30.6523C445.176 31.1211 445.195 31.5703 445.195 32C445.195 32.4688 445.137 32.9375 445.02 33.4062C444.941 33.875 444.727 34.2852 444.375 34.6367C444.336 35.1445 444.297 35.7305 444.258 36.3945C444.258 37.0195 444.219 37.6641 444.141 38.3281C444.102 38.9922 444.004 39.6367 443.848 40.2617C443.691 40.8867 443.457 41.3945 443.145 41.7852C443.105 42.3711 443.066 42.9766 443.027 43.6016C443.027 44.1875 443.027 44.7539 443.027 45.3008C443.027 46.1602 443.066 47.1758 443.145 48.3477C443.262 49.5195 443.535 50.4961 443.965 51.2773C444.16 51.5898 444.531 51.8242 445.078 51.9805C445.664 52.1367 446.133 52.2148 446.484 52.2148C446.914 52.2148 447.344 52.1562 447.773 52.0391C448.242 51.8828 448.574 51.6289 448.77 51.2773C449.004 51.3164 449.16 51.4336 449.238 51.6289C449.316 51.8242 449.453 51.9805 449.648 52.0977C451.875 51.1602 454.102 50.2617 456.328 49.4023C458.555 48.543 460.742 47.5469 462.891 46.4141C463.203 46.5703 463.535 46.6484 463.887 46.6484C464.277 46.6484 464.668 46.6094 465.059 46.5312C465.449 46.4531 465.84 46.4141 466.23 46.4141H466.641C466.719 46.6484 466.758 46.8242 466.758 46.9414ZM527.402 29.5977C527.285 29.9492 527.051 30.2031 526.699 30.3594C526.387 30.4766 526.055 30.5742 525.703 30.6523C525.352 30.7305 525.02 30.8672 524.707 31.0625C524.434 31.2188 524.258 31.4922 524.18 31.8828L524.062 31.9414C523.906 31.9414 523.789 31.9023 523.711 31.8242C523.672 31.707 523.633 31.6094 523.594 31.5312C523.555 31.4141 523.496 31.3164 523.418 31.2383C523.379 31.1211 523.301 31.0625 523.184 31.0625C522.754 31.0625 522.324 31.1016 521.895 31.1797C521.504 31.2578 521.113 31.2969 520.723 31.2969C520.137 31.2969 519.609 31.2188 519.141 31.0625C518.867 31.1406 518.711 31.3164 518.672 31.5898C518.672 31.8633 518.555 32.0391 518.32 32.1172C518.125 32.1953 517.891 32.2344 517.617 32.2344C517.344 32.1953 517.07 32.2148 516.797 32.293L514.922 32.7617C514.297 32.918 513.672 32.9961 513.047 32.9961C512.695 32.9961 512.441 32.9766 512.285 32.9375C511.699 33.4062 511.035 33.7578 510.293 33.9922C509.551 34.1875 508.77 34.3828 507.949 34.5781C507.168 34.7344 506.387 34.9492 505.605 35.2227C504.863 35.4961 504.199 35.9258 503.613 36.5117C503.301 36.4336 503.027 36.3945 502.793 36.3945C502.285 36.3945 501.836 36.5117 501.445 36.7461C501.055 36.9414 500.645 37.1367 500.215 37.332C500.02 37.4102 499.824 37.4492 499.629 37.4492C499.434 37.4492 499.219 37.4883 498.984 37.5664C498.75 37.6445 498.594 37.7812 498.516 37.9766C498.477 38.1328 498.359 38.2891 498.164 38.4453C498.164 39.8516 498.301 41.2578 498.574 42.6641C498.848 44.0312 498.984 45.418 498.984 46.8242V47.0586C499.062 47.7227 499.277 48.3477 499.629 48.9336C499.98 49.4805 500.156 50.0469 500.156 50.6328C500.156 50.8281 500.117 51.043 500.039 51.2773C501.055 51.5117 501.719 52.0391 502.031 52.8594C502.383 53.6406 502.656 54.5 502.852 55.4375C503.086 56.3359 503.379 57.1758 503.73 57.957C504.121 58.7383 504.863 59.2266 505.957 59.4219C506.035 59.8125 506.094 60.2227 506.133 60.6523C506.172 61.043 506.191 61.4336 506.191 61.8242C506.191 62.3711 506.133 62.8984 506.016 63.4062C505.898 63.9531 505.664 64.4414 505.312 64.8711C504.727 64.9102 504.297 64.9297 504.023 64.9297C503.75 64.9297 503.34 65.0469 502.793 65.2812C502.012 64.8125 501.309 64.2656 500.684 63.6406C500.098 63.0547 499.531 62.4297 498.984 61.7656C498.477 61.0625 497.969 60.3594 497.461 59.6562C496.953 58.9141 496.406 58.2109 495.82 57.5469C493.789 58.0547 491.699 58.4062 489.551 58.6016C487.441 58.7578 485.332 58.8359 483.223 58.8359C483.145 58.9141 483.027 58.9531 482.871 58.9531C482.715 58.9531 482.559 58.9727 482.402 59.0117C482.285 59.0117 482.168 59.0508 482.051 59.1289C481.973 59.168 481.953 59.2656 481.992 59.4219C481.719 59.2656 481.406 59.168 481.055 59.1289C480.742 59.0508 480.449 59.0117 480.176 59.0117C479.98 59.0117 479.785 59.0312 479.59 59.0703C479.395 59.0703 479.199 59.1289 479.004 59.2461C477.52 58.9727 476.074 58.6016 474.668 58.1328C473.301 57.625 471.895 57.2148 470.449 56.9023C470.449 56.5898 470.371 56.375 470.215 56.2578C470.059 56.1016 469.922 55.8867 469.805 55.6133C468.164 54.5977 466.777 53.3672 465.645 51.9219C464.551 50.4766 464.102 48.7188 464.297 46.6484L463.887 45.8281C463.887 45.2031 464.023 44.7539 464.297 44.4805C464.141 44.207 463.867 43.9336 463.477 43.6602C463.828 43.1133 464.141 42.5469 464.414 41.9609C464.688 41.375 464.883 40.75 465 40.0859C465.039 39.8906 465.059 39.7148 465.059 39.5586C465.059 39.4023 465.098 39.2266 465.176 39.0312C465.254 38.7969 465.371 38.543 465.527 38.2695C465.645 37.957 465.762 37.6836 465.879 37.4492C466.504 36.1211 467.188 34.8516 467.93 33.6406C468.711 32.3906 469.688 31.3164 470.859 30.418C470.938 29.7539 471.133 29.207 471.445 28.7773C471.758 28.3086 472.09 27.8984 472.441 27.5469C472.832 27.1563 473.203 26.7656 473.555 26.375C473.945 25.9844 474.238 25.5156 474.434 24.9688C475.215 24.3047 475.996 23.6602 476.777 23.0352C477.598 22.4102 478.281 21.668 478.828 20.8086C479.531 20.5742 480.195 20.2812 480.82 19.9297C481.445 19.5391 481.973 19.0508 482.402 18.4648C483.34 18.3867 484.258 18.2109 485.156 17.9375C486.094 17.6641 487.07 17.5273 488.086 17.5273C488.516 17.5273 489.023 17.625 489.609 17.8203C490.234 17.9766 490.703 18.2695 491.016 18.6992C491.055 18.7773 491.074 18.875 491.074 18.9922L491.133 19.2852C491.172 19.3633 491.211 19.4414 491.25 19.5195C491.328 19.5586 491.445 19.5586 491.602 19.5195C491.602 20.3789 491.504 21.2578 491.309 22.1562C491.113 23.0156 490.605 23.6797 489.785 24.1484C489.277 23.9922 488.73 23.9141 488.145 23.9141C487.363 23.9141 486.641 24.0703 485.977 24.3828C485.352 24.6562 484.727 24.9883 484.102 25.3789C483.516 25.7305 482.91 26.1016 482.285 26.4922C481.66 26.8438 480.996 27.0977 480.293 27.2539C480.215 27.5664 480.137 27.8594 480.059 28.1328C480.02 28.3672 480.039 28.6406 480.117 28.9531C479.922 28.9531 479.766 28.9336 479.648 28.8945C479.57 28.8164 479.434 28.7773 479.238 28.7773C478.965 28.7773 478.77 28.9336 478.652 29.2461C478.574 29.5586 478.496 29.8125 478.418 30.0078C477.676 30.3203 477.051 30.7695 476.543 31.3555C476.074 31.9023 475.625 32.5078 475.195 33.1719C474.805 33.7969 474.375 34.4023 473.906 34.9883C473.438 35.5742 472.852 36.0234 472.148 36.3359C471.836 37.5859 471.523 38.8164 471.211 40.0273C470.938 41.2383 470.605 42.4492 470.215 43.6602C470.332 44.1289 470.391 44.6172 470.391 45.125C470.391 45.75 470.332 46.3164 470.215 46.8242C470.41 47.1367 470.605 47.5078 470.801 47.9375L471.504 49.2852C471.738 49.7539 471.973 50.1836 472.207 50.5742C472.48 50.9648 472.734 51.2578 472.969 51.4531C473.398 51.7656 474.062 52.0586 474.961 52.332C475.859 52.5664 476.66 52.9766 477.363 53.5625C477.441 53.5625 477.539 53.5625 477.656 53.5625C477.773 53.5234 477.871 53.5039 477.949 53.5039C478.418 53.5039 478.926 53.6211 479.473 53.8555C480.02 54.0898 480.371 54.207 480.527 54.207C482.715 54.207 485.098 54.0703 487.676 53.7969C490.254 53.4844 492.637 53.1133 494.824 52.6836C494.902 52.293 494.941 51.9609 494.941 51.6875C494.941 51.1797 494.863 50.6914 494.707 50.2227C494.551 49.7148 494.297 49.2852 493.945 48.9336C493.945 48.3477 493.945 47.7617 493.945 47.1758C493.984 46.5898 494.004 46.0039 494.004 45.418C494.004 44.4414 493.965 43.4062 493.887 42.3125C493.809 41.2188 493.613 40.2031 493.301 39.2656H493.184C492.676 39.2656 492.207 39.4023 491.777 39.6758C491.387 39.9102 490.977 40.0273 490.547 40.0273C490.312 40.0273 490.117 39.9688 489.961 39.8516C489.492 40.3984 488.926 40.8086 488.262 41.082C487.598 41.3555 486.895 41.6094 486.152 41.8438C485.41 42.0391 484.668 42.2539 483.926 42.4883C483.223 42.7227 482.578 43.0547 481.992 43.4844C481.68 43.3672 481.387 43.3086 481.113 43.3086C480.84 43.3086 480.566 43.3281 480.293 43.3672C480.059 43.4062 479.785 43.4453 479.473 43.4844C478.652 42.7812 478.242 41.9023 478.242 40.8477C478.242 40.3008 478.32 39.7734 478.477 39.2656C478.672 38.7188 478.926 38.2109 479.238 37.7422C479.434 37.625 479.668 37.5664 479.941 37.5664C480.215 37.5273 480.488 37.4883 480.762 37.4492C481.035 37.3711 481.25 37.2734 481.406 37.1562C481.602 37.0391 481.719 36.8242 481.758 36.5117C481.875 36.6289 481.973 36.6875 482.051 36.6875C482.129 36.6875 482.207 36.668 482.285 36.6289C482.363 36.5898 482.441 36.5703 482.52 36.5703C482.598 36.5703 482.656 36.6094 482.695 36.6875C482.773 36.7656 482.812 36.8438 482.812 36.9219C484.492 36.0234 486.211 35.2617 487.969 34.6367C489.727 34.0117 491.504 33.4453 493.301 32.9375C495.137 32.4297 496.973 31.9609 498.809 31.5312C500.645 31.0625 502.461 30.5547 504.258 30.0078C504.531 29.7734 504.824 29.5977 505.137 29.4805C505.449 29.3633 505.723 29.1875 505.957 28.9531C506.23 29.1094 506.562 29.1875 506.953 29.1875C507.5 29.1875 508.086 29.0898 508.711 28.8945C509.375 28.6602 509.922 28.3867 510.352 28.0742C510.508 28.1133 510.645 28.1328 510.762 28.1328H511.172C511.953 28.1328 512.676 28.0156 513.34 27.7812C514.043 27.5469 514.727 27.2344 515.391 26.8438H515.684C516.895 26.8438 518.086 26.707 519.258 26.4336C520.469 26.1602 521.699 26.0234 522.949 26.0234C524.551 26.0234 525.957 26.4336 527.168 27.2539V27.957C527.168 28.2695 527.168 28.5625 527.168 28.8359C527.207 29.0703 527.285 29.3242 527.402 29.5977ZM547.559 28.0742C547.324 28.4258 547.188 28.8164 547.148 29.2461C547.109 29.6758 547.09 30.0664 547.09 30.418C547.09 30.8867 547.09 31.3555 547.09 31.8242C547.129 32.2539 547.148 32.6836 547.148 33.1133V33.9922C547.07 34.2656 546.953 34.5391 546.797 34.8125C546.641 35.0859 546.523 35.3594 546.445 35.6328C545.898 37.0781 545.625 38.5234 545.625 39.9688V40.0859C545.43 40.5547 545.234 40.9844 545.039 41.375C544.883 41.7656 544.727 42.1562 544.57 42.5469C544.414 42.8984 544.297 43.2891 544.219 43.7188C544.141 44.1094 544.121 44.5781 544.16 45.125C543.613 46.4922 542.891 47.7422 541.992 48.875C541.094 49.9688 540.215 51.1016 539.355 52.2734C538.535 52.5859 537.773 52.9961 537.07 53.5039C536.406 54.0117 535.762 54.5781 535.137 55.2031C533.926 55.5938 532.734 56.043 531.562 56.5508C530.391 57.0586 529.336 57.7422 528.398 58.6016C527.656 58.6797 526.914 58.7969 526.172 58.9531C525.43 59.1094 524.707 59.3438 524.004 59.6562H523.301C522.949 59.6562 522.695 59.5781 522.539 59.4219C522.031 59.6953 521.504 59.8906 520.957 60.0078C520.41 60.0859 519.863 60.125 519.316 60.125C518.613 60.125 517.91 60.0859 517.207 60.0078C516.543 59.8906 515.859 59.7734 515.156 59.6562C514.766 59.1094 514.219 58.6992 513.516 58.4258C512.812 58.1133 512.188 57.8203 511.641 57.5469C510.508 55.9844 509.688 54.4805 509.18 53.0352C508.672 51.5508 508.145 49.8906 507.598 48.0547C507.676 47.5078 507.812 46.9805 508.008 46.4727C508.203 45.9258 508.281 45.3398 508.242 44.7148C508.945 42.6836 509.863 40.8477 510.996 39.207C512.168 37.5273 513.496 35.9258 514.98 34.4023C514.98 34.168 515.02 33.9727 515.098 33.8164C515.215 33.6602 515.234 33.4258 515.156 33.1133C515.195 33.1523 515.273 33.1719 515.391 33.1719C515.703 33.1719 515.898 33.0938 515.977 32.9375C516.055 32.7422 516.074 32.5273 516.035 32.293C517.441 31.3945 518.711 30.3594 519.844 29.1875C521.016 28.0156 522.344 27.0391 523.828 26.2578C523.945 25.9062 524.141 25.6133 524.414 25.3789C524.688 25.1445 524.902 24.8711 525.059 24.5586C526.309 24.207 527.441 23.6797 528.457 22.9766C529.473 22.2734 530.547 21.6484 531.68 21.1016C532.305 20.75 532.891 20.5156 533.438 20.3984C534.023 20.2422 534.648 20.0859 535.312 19.9297C535.547 19.8516 535.762 19.793 535.957 19.7539C536.152 19.7148 536.367 19.6953 536.602 19.6953C537.305 19.6953 537.988 19.832 538.652 20.1055C539.316 20.3398 540 20.457 540.703 20.457C540.898 20.457 541.055 20.457 541.172 20.457C541.328 20.418 541.484 20.3789 541.641 20.3398C542.305 21.1602 543.145 21.7852 544.16 22.2148C544.395 22.8008 544.668 23.3086 544.98 23.7383C545.332 24.168 545.684 24.5977 546.035 25.0273C546.387 25.418 546.699 25.8672 546.973 26.375C547.285 26.8438 547.48 27.4102 547.559 28.0742ZM541.699 31.1211C541.699 30.9258 541.68 30.75 541.641 30.5938C541.25 30.4766 540.879 30.3203 540.527 30.125C540.176 29.9297 539.785 29.832 539.355 29.832C539.082 29.832 538.809 29.8906 538.535 30.0078C538.496 29.7344 538.379 29.5391 538.184 29.4219C538.027 29.3047 537.832 29.207 537.598 29.1289C537.402 29.0117 537.188 28.9336 536.953 28.8945C536.758 28.8164 536.582 28.6992 536.426 28.543C536.309 28.2305 536.172 27.918 536.016 27.6055C535.898 27.2539 535.664 27 535.312 26.8438C534.961 27.1953 534.551 27.4883 534.082 27.7227C533.613 27.918 533.125 28.1133 532.617 28.3086C532.148 28.5039 531.68 28.7383 531.211 29.0117C530.781 29.2852 530.41 29.6172 530.098 30.0078H529.043C528.809 30.4375 528.477 30.7695 528.047 31.0039C527.617 31.1992 527.246 31.4922 526.934 31.8828C526.309 32.1953 525.723 32.5859 525.176 33.0547C524.668 33.4844 524.16 33.9531 523.652 34.4609C523.145 34.9297 522.637 35.418 522.129 35.9258C521.66 36.4336 521.152 36.9023 520.605 37.332C520.098 38.4258 519.531 39.3828 518.906 40.2031C518.32 40.9844 517.754 41.7852 517.207 42.6055C516.699 43.4258 516.25 44.3242 515.859 45.3008C515.508 46.2383 515.332 47.4102 515.332 48.8164V49.4023C515.332 49.5977 515.352 49.793 515.391 49.9883C515.898 50.5352 516.309 51.1211 516.621 51.7461C516.973 52.3711 517.539 52.8203 518.32 53.0938C519.102 53.4062 519.922 53.543 520.781 53.5039C521.68 53.4648 522.539 53.5625 523.359 53.7969C525.234 53.4453 527.031 52.8789 528.75 52.0977C530.508 51.2773 532.168 50.3008 533.73 49.168C533.965 48.9727 534.238 48.7773 534.551 48.582C534.863 48.3477 535.117 48.1133 535.312 47.8789C535.508 47.6836 535.664 47.4688 535.781 47.2344C535.938 47 536.094 46.7852 536.25 46.5898C536.562 46.082 536.914 45.5742 537.305 45.0664C537.695 44.5586 538.105 44.0898 538.535 43.6602C538.73 42.8008 538.984 41.9805 539.297 41.1992C539.609 40.3789 539.922 39.5781 540.234 38.7969C540.547 38.0156 540.801 37.2148 540.996 36.3945C541.23 35.5742 541.348 34.7148 541.348 33.8164C541.348 33.6211 541.328 33.4062 541.289 33.1719C541.289 32.9375 541.27 32.7227 541.23 32.5273C541.543 32.0977 541.699 31.6289 541.699 31.1211ZM590.977 57.7227C590.859 58.2695 590.605 58.7188 590.215 59.0703C589.863 59.3828 589.434 59.6367 588.926 59.832C588.418 60.0273 587.891 60.1641 587.344 60.2422C586.836 60.2812 586.367 60.3008 585.938 60.3008C585.742 60.3008 585.547 60.3008 585.352 60.3008C585.195 60.2617 585.02 60.2422 584.824 60.2422C584.629 60.2422 584.531 60.3398 584.531 60.5352C584.531 60.7305 584.434 60.8672 584.238 60.9453C584.043 60.8672 583.848 60.8086 583.652 60.7695C583.457 60.7305 583.262 60.7109 583.066 60.7109C582.793 60.7109 582.52 60.7305 582.246 60.7695C582.012 60.8086 581.777 60.8281 581.543 60.8281C581.23 60.8281 580.996 60.7891 580.84 60.7109C580.723 60.6328 580.605 60.5547 580.488 60.4766C580.41 60.3594 580.312 60.2422 580.195 60.125C580.117 60.0078 579.98 59.9102 579.785 59.832C579.512 59.7148 579.277 59.6953 579.082 59.7734C578.926 59.8516 578.672 59.7344 578.32 59.4219C577.852 59.0312 577.441 58.5625 577.09 58.0156C576.777 57.4297 576.465 56.8242 576.152 56.1992C575.84 55.5742 575.508 54.9492 575.156 54.3242C574.805 53.6992 574.395 53.1523 573.926 52.6836H573.457C572.754 52.6836 572.266 52.9766 571.992 53.5625C571.797 53.4453 571.602 53.3086 571.406 53.1523C571.211 52.957 570.996 52.8008 570.762 52.6836C569.863 52.957 568.926 53.1914 567.949 53.3867C566.973 53.582 565.996 53.6797 565.02 53.6797H564.199C563.965 53.6797 563.711 53.6406 563.438 53.5625C563.047 53.7188 562.695 53.9141 562.383 54.1484C562.07 54.3438 561.719 54.4414 561.328 54.4414C561.094 54.4414 560.82 54.3633 560.508 54.207C560.273 54.207 560.156 54.3047 560.156 54.5C560.195 54.6953 560.078 54.793 559.805 54.793H559.277C558.73 54.793 558.184 54.8125 557.637 54.8516C557.129 54.8906 556.602 54.9102 556.055 54.9102C555.312 54.9102 554.551 54.8125 553.77 54.6172C553.574 54.7344 553.359 54.793 553.125 54.793C552.969 54.8711 552.852 55.0078 552.773 55.2031C552.695 55.3594 552.617 55.5156 552.539 55.6719C552.461 55.7891 552.344 55.9062 552.188 56.0234C552.07 56.1016 551.895 56.1211 551.66 56.082C551.582 56.5508 551.387 56.9219 551.074 57.1953C550.762 57.4688 550.605 57.8789 550.605 58.4258C550.176 58.6602 549.824 58.9531 549.551 59.3047C549.277 59.6562 549.004 60.0273 548.73 60.418C548.457 60.8086 548.164 61.1797 547.852 61.5312C547.578 61.8828 547.227 62.1562 546.797 62.3516C546.602 62.5859 546.543 62.957 546.621 63.4648C546.191 63.8164 545.664 64.1289 545.039 64.4023C544.414 64.6758 543.828 64.8125 543.281 64.8125C542.148 64.8125 541.367 64.207 540.938 62.9961C540.938 62.6055 540.977 62.1953 541.055 61.7656C541.094 61.2969 541.172 60.8672 541.289 60.4766C541.406 60.0469 541.582 59.6758 541.816 59.3633C542.051 59.0117 542.383 58.7578 542.812 58.6016C542.812 58.25 542.695 58.0156 542.461 57.8984C542.227 57.7422 542.129 57.4883 542.168 57.1367C543.223 56.6289 544.141 55.9648 544.922 55.1445C545.703 54.3242 546.406 53.4648 547.031 52.5664C547.695 51.6289 548.359 50.6914 549.023 49.7539C549.688 48.8164 550.43 47.9766 551.25 47.2344V46.0039C552.422 44.7539 553.184 43.3477 553.535 41.7852C553.965 41.707 554.238 41.5117 554.355 41.1992C554.512 40.8867 554.59 40.5156 554.59 40.0859C554.785 40.0859 554.902 40.0078 554.941 39.8516C555.02 39.6562 555.195 39.5977 555.469 39.6758C555.82 38.7383 556.211 37.8789 556.641 37.0977C557.07 36.3164 557.5 35.5352 557.93 34.7539C558.359 33.9336 558.73 33.0938 559.043 32.2344C559.395 31.375 559.648 30.418 559.805 29.3633C560.352 29.3242 560.645 29.0703 560.684 28.6016C560.762 28.0938 560.84 27.6445 560.918 27.2539C561.504 26.707 561.934 26.0625 562.207 25.3203C562.52 24.5781 562.793 23.8164 563.027 23.0352C563.262 22.2148 563.516 21.4141 563.789 20.6328C564.102 19.8125 564.531 19.0898 565.078 18.4648V18.2891C565.078 18.0937 565 17.9766 564.844 17.9375C564.688 17.8594 564.609 17.7227 564.609 17.5273C564.648 17.4883 564.668 17.4492 564.668 17.4102C565.137 17.2148 565.488 16.9023 565.723 16.4727C565.957 16.0039 566.309 15.6719 566.777 15.4766C567.598 16.1406 568.32 16.5508 568.945 16.707C569.57 16.8242 570.391 16.9219 571.406 17C571.914 17.5469 572.188 18.2109 572.227 18.9922C572.305 19.7344 572.441 20.4766 572.637 21.2188C572.949 22.4688 573.281 23.6992 573.633 24.9102C574.023 26.082 574.316 27.293 574.512 28.543C574.629 29.2852 574.844 29.9883 575.156 30.6523C575.469 31.3164 575.684 32 575.801 32.7031C575.879 33.25 575.879 33.875 575.801 34.5781C575.723 35.2422 575.801 35.8281 576.035 36.3359L576.445 37.2734C576.641 37.7031 576.797 38.1523 576.914 38.6211C577.07 39.0898 577.207 39.5586 577.324 40.0273C577.637 41.1992 577.91 42.4688 578.145 43.8359C578.418 45.1641 578.828 46.375 579.375 47.4688C579.57 47.8594 579.863 48.1328 580.254 48.2891C580.684 48.4453 581.152 48.5625 581.66 48.6406C582.168 48.6797 582.656 48.6992 583.125 48.6992C583.633 48.6602 584.062 48.6406 584.414 48.6406H585C585.234 48.6406 585.469 48.6797 585.703 48.7578C585.859 49.0703 585.938 49.3438 585.938 49.5781C585.938 50.0469 585.781 50.418 585.469 50.6914C585.156 50.9648 585 51.2773 585 51.6289C585 51.8242 585.078 52.0391 585.234 52.2734C585.078 52.2344 584.844 52.2148 584.531 52.2148C583.633 52.2148 582.754 52.3711 581.895 52.6836C582.207 53.3477 582.617 53.9141 583.125 54.3828C583.672 54.8125 584.238 55.2227 584.824 55.6133C585.215 55.3008 585.625 55.1445 586.055 55.1445C586.523 55.1445 586.953 55.2617 587.344 55.4961C587.773 55.6914 588.223 55.7891 588.691 55.7891C589.043 55.7891 589.297 55.7305 589.453 55.6133C589.766 55.9648 590.02 56.3359 590.215 56.7266C590.41 57.0781 590.664 57.4102 590.977 57.7227ZM572.637 48.3477C572.559 47.6836 572.422 47.2148 572.227 46.9414C572.07 46.6289 571.934 46.2578 571.816 45.8281C571.66 45.2812 571.543 44.6953 571.465 44.0703C571.426 43.4453 571.348 42.8398 571.23 42.2539C570.957 40.9258 570.645 39.5977 570.293 38.2695C569.98 36.9414 569.57 35.6523 569.062 34.4023C569.219 34.168 569.297 33.9531 569.297 33.7578V33.582C568.945 33.1914 568.691 32.7227 568.535 32.1758C568.379 31.5898 568.223 31.0234 568.066 30.4766C567.949 29.8906 567.773 29.3633 567.539 28.8945C567.344 28.3867 567.012 27.9766 566.543 27.6641C566.426 27.8984 566.367 28.1719 566.367 28.4844C566.367 28.7578 566.387 29.0117 566.426 29.2461C566.504 29.4805 566.543 29.7344 566.543 30.0078C566.152 30.2031 565.859 30.5156 565.664 30.9453C565.508 31.3359 565.234 31.6484 564.844 31.8828C564.531 33.1328 564.082 34.3242 563.496 35.457C562.91 36.5508 562.285 37.6445 561.621 38.7383C560.996 39.832 560.391 40.9453 559.805 42.0781C559.219 43.1719 558.75 44.3242 558.398 45.5352C557.891 45.8867 557.539 46.3359 557.344 46.8828C557.188 47.4297 557.109 47.9766 557.109 48.5234C557.461 48.7188 557.852 48.8359 558.281 48.875C558.75 48.875 559.199 48.875 559.629 48.875C560.059 48.875 560.469 48.9141 560.859 48.9922C561.25 49.0703 561.602 49.2656 561.914 49.5781C562.422 49.4219 562.969 49.3242 563.555 49.2852C564.18 49.207 564.688 49.0312 565.078 48.7578C565.859 49.0312 566.699 49.168 567.598 49.168C568.066 49.168 568.516 49.1289 568.945 49.0508C569.414 48.9727 569.863 48.875 570.293 48.7578C570.645 48.8359 570.918 48.9727 571.113 49.168C571.309 49.3242 571.602 49.3828 571.992 49.3438C572.188 49.1875 572.305 49.0312 572.344 48.875C572.383 48.6797 572.48 48.5039 572.637 48.3477ZM622.441 46.9414C622.441 47.3711 622.285 47.7031 621.973 47.9375C621.66 48.1328 621.504 48.4062 621.504 48.7578C621.504 48.9141 621.582 49.1094 621.738 49.3438C621.191 49.3438 620.82 49.5195 620.625 49.8711C620.43 50.2227 620.234 50.6133 620.039 51.043H619.277C619.082 51.043 618.926 51.082 618.809 51.1602C618.691 51.2383 618.574 51.3555 618.457 51.5117C618.379 51.6289 618.262 51.8242 618.105 52.0977C617.363 52.2539 616.641 52.5078 615.938 52.8594C615.273 53.1719 614.609 53.5234 613.945 53.9141C613.32 54.2656 612.676 54.6367 612.012 55.0273C611.348 55.3789 610.664 55.6719 609.961 55.9062C609.609 56.4922 609.102 56.9609 608.438 57.3125H608.262C608.066 57.3516 607.891 57.332 607.734 57.2539C607.617 57.1367 607.461 57.0781 607.266 57.0781C607.148 57.0781 607.07 57.0977 607.031 57.1367C605.859 57.918 604.551 58.3086 603.105 58.3086C602.715 58.3086 602.344 58.2891 601.992 58.25C601.641 58.1719 601.27 58.1328 600.879 58.1328C600.762 58.1328 600.684 58.1719 600.645 58.25L600.527 58.4844C600.488 58.5625 600.43 58.6406 600.352 58.7188C600.312 58.7969 600.176 58.8359 599.941 58.8359C599.512 58.8359 599.082 58.7773 598.652 58.6602C598.223 58.543 597.773 58.5234 597.305 58.6016C596.406 58.0938 595.703 57.6055 595.195 57.1367C594.688 56.668 594.219 55.9648 593.789 55.0273C593.594 54.5977 593.32 54.1875 592.969 53.7969C592.656 53.4062 592.422 52.9766 592.266 52.5078C592.227 52.3516 592.168 52.0781 592.09 51.6875C592.012 51.2578 591.934 50.8086 591.855 50.3398C591.777 49.8711 591.699 49.4219 591.621 48.9922C591.582 48.5625 591.562 48.2695 591.562 48.1133C591.562 47.6445 591.582 47.1953 591.621 46.7656C591.699 46.2969 591.777 45.8281 591.855 45.3594C592.09 43.875 592.246 42.3906 592.324 40.9062C592.441 39.3828 592.773 37.918 593.32 36.5117C593.242 36.082 593.203 35.6719 593.203 35.2812V33.9922C593.203 33.25 593.105 32.625 592.91 32.1172C593.223 31.6094 593.379 31.043 593.379 30.418C593.379 29.7148 593.086 29.3047 592.5 29.1875V29.0117C592.5 28.1914 592.227 27.5469 591.68 27.0781C591.68 25.7109 592.012 24.6953 592.676 24.0312C593.379 23.3281 594.297 22.7227 595.43 22.2148C595.586 21.9805 595.645 21.7852 595.605 21.6289C595.879 21.707 596.133 21.7852 596.367 21.8633C596.602 21.9414 596.836 21.9805 597.07 21.9805C597.461 21.9805 597.812 21.9219 598.125 21.8047C598.242 22.2734 598.535 22.5664 599.004 22.6836C599.512 22.7617 599.922 22.8789 600.234 23.0352V23.7969C600.234 25.0078 600.527 26.1602 601.113 27.2539C600.957 27.5664 600.859 27.8984 600.82 28.25C600.781 28.6016 600.762 28.9336 600.762 29.2461C600.762 29.7148 600.781 30.1836 600.82 30.6523C600.859 31.1211 600.879 31.5703 600.879 32C600.879 32.4688 600.82 32.9375 600.703 33.4062C600.625 33.875 600.41 34.2852 600.059 34.6367C600.02 35.1445 599.98 35.7305 599.941 36.3945C599.941 37.0195 599.902 37.6641 599.824 38.3281C599.785 38.9922 599.688 39.6367 599.531 40.2617C599.375 40.8867 599.141 41.3945 598.828 41.7852C598.789 42.3711 598.75 42.9766 598.711 43.6016C598.711 44.1875 598.711 44.7539 598.711 45.3008C598.711 46.1602 598.75 47.1758 598.828 48.3477C598.945 49.5195 599.219 50.4961 599.648 51.2773C599.844 51.5898 600.215 51.8242 600.762 51.9805C601.348 52.1367 601.816 52.2148 602.168 52.2148C602.598 52.2148 603.027 52.1562 603.457 52.0391C603.926 51.8828 604.258 51.6289 604.453 51.2773C604.688 51.3164 604.844 51.4336 604.922 51.6289C605 51.8242 605.137 51.9805 605.332 52.0977C607.559 51.1602 609.785 50.2617 612.012 49.4023C614.238 48.543 616.426 47.5469 618.574 46.4141C618.887 46.5703 619.219 46.6484 619.57 46.6484C619.961 46.6484 620.352 46.6094 620.742 46.5312C621.133 46.4531 621.523 46.4141 621.914 46.4141H622.324C622.402 46.6484 622.441 46.8242 622.441 46.9414ZM653.027 54.6172C653.027 55.2812 652.852 55.8672 652.5 56.375C652.188 56.8438 652.07 57.4297 652.148 58.1328C651.602 58.4453 651.152 58.8555 650.801 59.3633C650.449 59.8711 650.117 60.3984 649.805 60.9453C647.227 62.625 644.453 63.9727 641.484 64.9883C638.555 66.043 635.527 66.5703 632.402 66.5703C632.207 66.5703 632.031 66.4727 631.875 66.2773C631.719 66.1211 631.562 65.9453 631.406 65.75C631.25 65.5547 631.074 65.3594 630.879 65.1641C630.723 65.0078 630.527 64.9297 630.293 64.9297C630.02 64.9297 629.805 64.9883 629.648 65.1055C629.648 65.0273 629.648 64.9492 629.648 64.8711C629.688 64.832 629.707 64.7734 629.707 64.6953C629.707 64.2266 629.648 63.7383 629.531 63.2305C629.414 62.7617 629.355 62.293 629.355 61.8242C629.355 61.2773 629.453 60.8281 629.648 60.4766H630.352C630.742 60.4766 631.113 60.457 631.465 60.418C631.855 60.3398 632.266 60.3008 632.695 60.3008C633.125 60.3008 633.516 60.418 633.867 60.6523C636.016 60.5742 638.047 60.1836 639.961 59.4805C641.914 58.7383 643.887 58.0156 645.879 57.3125C646.191 56.8828 646.367 56.4141 646.406 55.9062C646.484 55.3594 646.641 54.8516 646.875 54.3828C645.859 53.5234 644.824 52.8594 643.77 52.3906C642.754 51.8828 641.562 51.707 640.195 51.8633C639.375 51.3555 638.496 51.0625 637.559 50.9844C636.66 50.9062 635.742 50.7891 634.805 50.6328C634.57 50.5938 634.316 50.5547 634.043 50.5156C633.809 50.4375 633.555 50.3984 633.281 50.3984C633.086 50.3984 632.891 50.457 632.695 50.5742C632.539 50.6523 632.5 50.7891 632.578 50.9844C632.383 50.6719 632.109 50.4961 631.758 50.457C631.445 50.3789 631.172 50.2227 630.938 49.9883C629.688 49.9102 628.594 49.6953 627.656 49.3438C626.719 48.9531 625.684 48.5234 624.551 48.0547C624.238 47.9375 623.926 47.8594 623.613 47.8203C623.34 47.7422 623.066 47.625 622.793 47.4688C622.09 47.1172 621.523 46.6484 621.094 46.0625C620.664 45.4766 620.332 44.832 620.098 44.1289C619.824 43.3867 619.629 42.625 619.512 41.8438C619.395 41.0625 619.277 40.3398 619.16 39.6758C619.512 39.0508 619.844 38.4062 620.156 37.7422C620.43 37.0781 620.664 36.375 620.859 35.6328C621.094 35.5156 621.328 35.418 621.562 35.3398C621.797 35.2617 622.051 35.1641 622.324 35.0469C622.285 34.9688 622.266 34.8711 622.266 34.7539C622.266 34.5586 622.324 34.3633 622.441 34.168C622.598 33.9727 622.637 33.7773 622.559 33.582C623.418 32.8008 624.238 32 625.02 31.1797C625.84 30.3203 626.543 29.3828 627.129 28.3672C627.715 28.1719 628.184 27.8789 628.535 27.4883C628.887 27.0977 629.238 26.707 629.59 26.3164C629.941 25.8867 630.332 25.5156 630.762 25.2031C631.191 24.8516 631.738 24.6367 632.402 24.5586C632.559 24.2852 632.773 24.0703 633.047 23.9141C633.32 23.7187 633.594 23.543 633.867 23.3867C634.141 23.2305 634.395 23.0547 634.629 22.8594C634.863 22.6641 635.039 22.3906 635.156 22.0391C635.781 22.0391 636.348 21.9219 636.855 21.6875C637.402 21.4531 637.93 21.1992 638.438 20.9258C638.945 20.6523 639.453 20.3984 639.961 20.1641C640.508 19.9297 641.094 19.8125 641.719 19.8125C641.875 19.8125 642.031 19.832 642.188 19.8711C642.344 19.8711 642.52 19.8906 642.715 19.9297C642.988 20.2031 643.164 20.5352 643.242 20.9258C643.359 21.2773 643.438 21.668 643.477 22.0977C643.516 22.5273 643.535 22.957 643.535 23.3867C643.574 23.8164 643.652 24.207 643.77 24.5586C643.418 25.2227 643.027 25.8867 642.598 26.5508C642.207 27.2148 641.68 27.7227 641.016 28.0742H640.898C640.625 28.1133 640.371 28.0547 640.137 27.8984C639.902 27.7422 639.629 27.6641 639.316 27.6641C639.121 27.6641 638.965 27.7227 638.848 27.8398L638.555 28.1328C638.477 28.2109 638.359 28.2891 638.203 28.3672C638.086 28.4453 637.91 28.4453 637.676 28.3672C637.129 28.5625 636.914 28.8945 637.031 29.3633C636.289 29.4414 635.664 29.6758 635.156 30.0664C634.648 30.418 634.18 30.8281 633.75 31.2969C633.32 31.7266 632.891 32.1367 632.461 32.5273C632.031 32.8789 631.523 33.0742 630.938 33.1133C630.273 34.2852 629.453 35.3203 628.477 36.2188C627.539 37.1172 626.758 38.1328 626.133 39.2656C626.25 39.5781 626.328 39.9102 626.367 40.2617C626.406 40.6133 626.465 40.9844 626.543 41.375C626.895 41.8438 627.305 42.2539 627.773 42.6055C628.281 42.957 628.77 43.3086 629.238 43.6602H629.414C630.195 43.6602 630.918 43.8164 631.582 44.1289C632.246 44.4023 632.949 44.5391 633.691 44.5391C634.082 44.5391 634.414 44.4609 634.688 44.3047C635.703 44.5391 636.699 44.7344 637.676 44.8906C638.691 45.0469 639.707 45.1641 640.723 45.2422C641.23 45.3203 641.738 45.3594 642.246 45.3594C642.793 45.3594 643.301 45.418 643.77 45.5352C644.199 45.6523 644.629 45.8086 645.059 46.0039C645.488 46.1602 645.918 46.3359 646.348 46.5312C647.246 46.9219 648.086 47.3516 648.867 47.8203C649.688 48.2891 650.41 48.8555 651.035 49.5195C651.66 50.1445 652.148 50.8867 652.5 51.7461C652.852 52.5664 653.027 53.5234 653.027 54.6172Z" fill="#8C52FF"/>
</svg>
